<?xml version="1.0" encoding="utf-8" standalone="no"?>
<!DOCTYPE svg PUBLIC "-//W3C//DTD SVG 1.1//EN"
  "http://www.w3.org/Graphics/SVG/1.1/DTD/svg11.dtd">
<svg xmlns:xlink="http://www.w3.org/1999/xlink" width="720pt" height="360pt" viewBox="0 0 720 360" xmlns="http://www.w3.org/2000/svg" version="1.1">
 <metadata>
  <rdf:RDF xmlns:dc="http://purl.org/dc/elements/1.1/" xmlns:cc="http://creativecommons.org/ns#" xmlns:rdf="http://www.w3.org/1999/02/22-rdf-syntax-ns#">
   <cc:Work>
    <dc:type rdf:resource="http://purl.org/dc/dcmitype/StillImage"/>
    <dc:date>2024-05-23T15:09:18.398938</dc:date>
    <dc:format>image/svg+xml</dc:format>
    <dc:creator>
     <cc:Agent>
      <dc:title>Matplotlib v3.8.0, https://matplotlib.org/</dc:title>
     </cc:Agent>
    </dc:creator>
   </cc:Work>
  </rdf:RDF>
 </metadata>
 <defs>
  <style type="text/css">*{stroke-linejoin: round; stroke-linecap: butt}</style>
 </defs>
 <g id="figure_1">
  <g id="patch_1">
   <path d="M 0 360 
L 720 360 
L 720 0 
L 0 0 
z
" style="fill: #ffffff"/>
  </g>
  <g id="axes_1">
   <g id="patch_2">
    <path d="M 90 320.4 
L 343.636364 320.4 
L 343.636364 43.2 
L 90 43.2 
z
" style="fill: #ffffff"/>
   </g>
   <g id="PolyCollection_1">
    <defs>
     <path id="mf08d0328ca" d="M 92.536364 -316.8 
L 92.536364 -316.8 
L 95.072727 -316.8 
L 97.609091 -316.8 
L 100.145455 -316.8 
L 102.681818 -316.8 
L 105.218182 -316.8 
L 107.754545 -316.8 
L 110.290909 -316.8 
L 112.827273 -316.8 
L 115.363636 -316.8 
L 117.9 -316.8 
L 120.436364 -316.8 
L 122.972727 -316.8 
L 125.509091 -316.8 
L 128.045455 -316.8 
L 130.581818 -316.8 
L 133.118182 -316.8 
L 135.654545 -316.8 
L 138.190909 -316.8 
L 140.727273 -316.8 
L 143.263636 -316.8 
L 145.8 -316.8 
L 148.336364 -316.8 
L 150.872727 -316.8 
L 153.409091 -316.8 
L 155.945455 -316.8 
L 158.481818 -316.8 
L 161.018182 -316.8 
L 163.554545 -316.8 
L 166.090909 -316.8 
L 168.627273 -316.8 
L 171.163636 -316.8 
L 173.7 -316.8 
L 176.236364 -316.8 
L 178.772727 -316.8 
L 181.309091 -316.8 
L 183.845455 -316.8 
L 186.381818 -316.8 
L 188.918182 -316.8 
L 191.454545 -316.8 
L 193.990909 -316.8 
L 196.527273 -316.8 
L 199.063636 -316.8 
L 201.6 -316.8 
L 204.136364 -316.8 
L 206.672727 -316.8 
L 209.209091 -316.8 
L 211.745455 -316.8 
L 214.281818 -316.8 
L 216.818182 -316.8 
L 219.354545 -316.8 
L 221.890909 -316.8 
L 224.427273 -316.8 
L 226.963636 -316.747119 
L 229.5 -316.646059 
L 232.036364 -316.552585 
L 234.572727 -316.55684 
L 237.109091 -316.561038 
L 239.645455 -316.56511 
L 242.181818 -316.569031 
L 244.718182 -316.559354 
L 247.254545 -316.45012 
L 249.790909 -316.319292 
L 252.327273 -316.081973 
L 254.863636 -315.949139 
L 257.4 -315.96196 
L 259.936364 -315.933685 
L 262.472727 -315.847887 
L 265.009091 -315.76637 
L 267.545455 -315.653741 
L 270.081818 -315.44416 
L 272.618182 -315.255909 
L 275.154545 -315.147989 
L 277.690909 -314.781992 
L 280.227273 -314.326492 
L 282.763636 -313.724189 
L 285.3 -313.071 
L 287.836364 -312.418184 
L 290.372727 -311.798864 
L 292.909091 -311.239174 
L 295.445455 -310.734769 
L 297.981818 -309.970389 
L 300.518182 -308.948425 
L 303.054545 -307.92517 
L 305.590909 -307.080898 
L 308.127273 -306.057557 
L 310.663636 -304.685185 
L 313.2 -303.378479 
L 315.736364 -302.178425 
L 318.272727 -299.214564 
L 320.809091 -297.270859 
L 323.345455 -295.177748 
L 325.881818 -291.647961 
L 328.418182 -285.347228 
L 330.954545 -277.857542 
L 333.490909 -256.59044 
L 336.027273 -225.036931 
L 338.563636 -174.851778 
L 341.1 -108.545302 
L 343.636364 -39.8772 
L 343.636364 -39.8772 
L 343.636364 -39.8772 
L 341.1 -149.149535 
L 338.563636 -214.139879 
L 336.027273 -255.959488 
L 333.490909 -280.218326 
L 330.954545 -286.647065 
L 328.418182 -292.303535 
L 325.881818 -296.613 
L 323.345455 -299.687551 
L 320.809091 -301.848889 
L 318.272727 -302.566602 
L 315.736364 -304.031129 
L 313.2 -305.506047 
L 310.663636 -307.373012 
L 308.127273 -308.535173 
L 305.590909 -309.208747 
L 303.054545 -310.325807 
L 300.518182 -311.012488 
L 297.981818 -311.842396 
L 295.445455 -312.64582 
L 292.909091 -313.331395 
L 290.372727 -313.940971 
L 287.836364 -314.510756 
L 285.3 -315.003012 
L 282.763636 -315.375294 
L 280.227273 -315.666669 
L 277.690909 -315.958043 
L 275.154545 -316.09331 
L 272.618182 -316.157402 
L 270.081818 -316.343149 
L 267.545455 -316.598173 
L 265.009091 -316.599121 
L 262.472727 -316.606719 
L 259.936364 -316.8 
L 257.4 -316.8 
L 254.863636 -316.8 
L 252.327273 -316.8 
L 249.790909 -316.8 
L 247.254545 -316.8 
L 244.718182 -316.8 
L 242.181818 -316.8 
L 239.645455 -316.8 
L 237.109091 -316.8 
L 234.572727 -316.8 
L 232.036364 -316.8 
L 229.5 -316.8 
L 226.963636 -316.8 
L 224.427273 -316.8 
L 221.890909 -316.8 
L 219.354545 -316.8 
L 216.818182 -316.8 
L 214.281818 -316.8 
L 211.745455 -316.8 
L 209.209091 -316.8 
L 206.672727 -316.8 
L 204.136364 -316.8 
L 201.6 -316.8 
L 199.063636 -316.8 
L 196.527273 -316.8 
L 193.990909 -316.8 
L 191.454545 -316.8 
L 188.918182 -316.8 
L 186.381818 -316.8 
L 183.845455 -316.8 
L 181.309091 -316.8 
L 178.772727 -316.8 
L 176.236364 -316.8 
L 173.7 -316.8 
L 171.163636 -316.8 
L 168.627273 -316.8 
L 166.090909 -316.8 
L 163.554545 -316.8 
L 161.018182 -316.8 
L 158.481818 -316.8 
L 155.945455 -316.8 
L 153.409091 -316.8 
L 150.872727 -316.8 
L 148.336364 -316.8 
L 145.8 -316.8 
L 143.263636 -316.8 
L 140.727273 -316.8 
L 138.190909 -316.8 
L 135.654545 -316.8 
L 133.118182 -316.8 
L 130.581818 -316.8 
L 128.045455 -316.8 
L 125.509091 -316.8 
L 122.972727 -316.8 
L 120.436364 -316.8 
L 117.9 -316.8 
L 115.363636 -316.8 
L 112.827273 -316.8 
L 110.290909 -316.8 
L 107.754545 -316.8 
L 105.218182 -316.8 
L 102.681818 -316.8 
L 100.145455 -316.8 
L 97.609091 -316.8 
L 95.072727 -316.8 
L 92.536364 -316.8 
z
" style="stroke: #006ba4; stroke-opacity: 0.3"/>
    </defs>
    <g clip-path="url(#p98f75ad58b)">
     <use xlink:href="#mf08d0328ca" x="0" y="360" style="fill: #006ba4; fill-opacity: 0.3; stroke: #006ba4; stroke-opacity: 0.3"/>
    </g>
   </g>
   <g id="PolyCollection_2">
    <defs>
     <path id="ma1804d12dc" d="M 92.536364 -316.8 
L 92.536364 -316.8 
L 95.072727 -316.8 
L 97.609091 -316.8 
L 100.145455 -316.8 
L 102.681818 -316.8 
L 105.218182 -316.8 
L 107.754545 -316.8 
L 110.290909 -316.8 
L 112.827273 -316.8 
L 115.363636 -316.8 
L 117.9 -316.8 
L 120.436364 -316.8 
L 122.972727 -316.8 
L 125.509091 -316.8 
L 128.045455 -316.8 
L 130.581818 -316.8 
L 133.118182 -316.8 
L 135.654545 -316.8 
L 138.190909 -316.8 
L 140.727273 -316.8 
L 143.263636 -316.8 
L 145.8 -316.8 
L 148.336364 -316.8 
L 150.872727 -316.8 
L 153.409091 -316.8 
L 155.945455 -316.8 
L 158.481818 -316.8 
L 161.018182 -316.8 
L 163.554545 -316.8 
L 166.090909 -316.8 
L 168.627273 -316.8 
L 171.163636 -316.8 
L 173.7 -316.8 
L 176.236364 -316.8 
L 178.772727 -316.8 
L 181.309091 -316.8 
L 183.845455 -316.8 
L 186.381818 -316.8 
L 188.918182 -316.8 
L 191.454545 -316.8 
L 193.990909 -316.8 
L 196.527273 -316.8 
L 199.063636 -316.8 
L 201.6 -316.640395 
L 204.136364 -316.492161 
L 206.672727 -316.498868 
L 209.209091 -316.50525 
L 211.745455 -316.511372 
L 214.281818 -316.235151 
L 216.818182 -316.246407 
L 219.354545 -316.257156 
L 221.890909 -316.106326 
L 224.427273 -315.97812 
L 226.963636 -315.776362 
L 229.5 -315.794705 
L 232.036364 -315.807203 
L 234.572727 -315.559992 
L 237.109091 -315.340843 
L 239.645455 -315.220549 
L 242.181818 -315.118286 
L 244.718182 -314.992965 
L 247.254545 -314.71193 
L 249.790909 -314.380035 
L 252.327273 -314.088688 
L 254.863636 -313.562419 
L 257.4 -313.402618 
L 259.936364 -313.353905 
L 262.472727 -313.080223 
L 265.009091 -312.769762 
L 267.545455 -312.013423 
L 270.081818 -310.605782 
L 272.618182 -309.668357 
L 275.154545 -309.162762 
L 277.690909 -308.133506 
L 280.227273 -306.60764 
L 282.763636 -304.93013 
L 285.3 -303.156602 
L 287.836364 -301.173889 
L 290.372727 -297.921881 
L 292.909091 -294.559889 
L 295.445455 -289.11525 
L 297.981818 -281.223103 
L 300.518182 -270.571053 
L 303.054545 -255.914185 
L 305.590909 -242.11805 
L 308.127273 -225.756673 
L 310.663636 -208.162724 
L 313.2 -188.185299 
L 315.736364 -164.91688 
L 318.272727 -142.347908 
L 320.809091 -123.949102 
L 323.345455 -107.871161 
L 325.881818 -88.725547 
L 328.418182 -74.04068 
L 330.954545 -60.764222 
L 333.490909 -54.206349 
L 336.027273 -49.694954 
L 338.563636 -45.543742 
L 341.1 -42.144143 
L 343.636364 -39.8772 
L 343.636364 -39.8772 
L 343.636364 -39.8772 
L 341.1 -43.496635 
L 338.563636 -48.350865 
L 336.027273 -55.666733 
L 333.490909 -68.53211 
L 330.954545 -84.174298 
L 328.418182 -106.837696 
L 325.881818 -132.209343 
L 323.345455 -149.475429 
L 320.809091 -173.890525 
L 318.272727 -195.496042 
L 315.736364 -216.173947 
L 313.2 -234.667505 
L 310.663636 -248.190558 
L 308.127273 -262.02697 
L 305.590909 -272.730677 
L 303.054545 -282.100637 
L 300.518182 -287.635552 
L 297.981818 -292.595841 
L 295.445455 -298.185515 
L 292.909091 -302.347335 
L 290.372727 -305.016232 
L 287.836364 -307.111355 
L 285.3 -308.806589 
L 282.763636 -310.249411 
L 280.227273 -311.214573 
L 277.690909 -312.179734 
L 275.154545 -312.640728 
L 272.618182 -313.058269 
L 270.081818 -313.57066 
L 267.545455 -314.156394 
L 265.009091 -314.670393 
L 262.472727 -315.053869 
L 259.936364 -315.228132 
L 257.4 -315.538705 
L 254.863636 -315.619681 
L 252.327273 -315.728978 
L 249.790909 -315.965652 
L 247.254545 -316.227216 
L 244.718182 -316.522202 
L 242.181818 -316.56902 
L 239.645455 -316.565163 
L 237.109091 -316.561072 
L 234.572727 -316.597053 
L 232.036364 -316.714884 
L 229.5 -316.8 
L 226.963636 -316.8 
L 224.427273 -316.8 
L 221.890909 -316.8 
L 219.354545 -316.8 
L 216.818182 -316.8 
L 214.281818 -316.8 
L 211.745455 -316.8 
L 209.209091 -316.8 
L 206.672727 -316.8 
L 204.136364 -316.8 
L 201.6 -316.8 
L 199.063636 -316.8 
L 196.527273 -316.8 
L 193.990909 -316.8 
L 191.454545 -316.8 
L 188.918182 -316.8 
L 186.381818 -316.8 
L 183.845455 -316.8 
L 181.309091 -316.8 
L 178.772727 -316.8 
L 176.236364 -316.8 
L 173.7 -316.8 
L 171.163636 -316.8 
L 168.627273 -316.8 
L 166.090909 -316.8 
L 163.554545 -316.8 
L 161.018182 -316.8 
L 158.481818 -316.8 
L 155.945455 -316.8 
L 153.409091 -316.8 
L 150.872727 -316.8 
L 148.336364 -316.8 
L 145.8 -316.8 
L 143.263636 -316.8 
L 140.727273 -316.8 
L 138.190909 -316.8 
L 135.654545 -316.8 
L 133.118182 -316.8 
L 130.581818 -316.8 
L 128.045455 -316.8 
L 125.509091 -316.8 
L 122.972727 -316.8 
L 120.436364 -316.8 
L 117.9 -316.8 
L 115.363636 -316.8 
L 112.827273 -316.8 
L 110.290909 -316.8 
L 107.754545 -316.8 
L 105.218182 -316.8 
L 102.681818 -316.8 
L 100.145455 -316.8 
L 97.609091 -316.8 
L 95.072727 -316.8 
L 92.536364 -316.8 
z
" style="stroke: #ff800e; stroke-opacity: 0.3"/>
    </defs>
    <g clip-path="url(#p98f75ad58b)">
     <use xlink:href="#ma1804d12dc" x="0" y="360" style="fill: #ff800e; fill-opacity: 0.3; stroke: #ff800e; stroke-opacity: 0.3"/>
    </g>
   </g>
   <g id="PolyCollection_3">
    <defs>
     <path id="me24b816dfe" d="M 92.536364 -316.8 
L 92.536364 -316.8 
L 95.072727 -316.8 
L 97.609091 -316.8 
L 100.145455 -316.8 
L 102.681818 -316.8 
L 105.218182 -316.8 
L 107.754545 -316.8 
L 110.290909 -316.8 
L 112.827273 -316.8 
L 115.363636 -316.8 
L 117.9 -316.8 
L 120.436364 -316.8 
L 122.972727 -316.8 
L 125.509091 -316.8 
L 128.045455 -316.8 
L 130.581818 -316.51616 
L 133.118182 -315.98559 
L 135.654545 -316.031043 
L 138.190909 -316.071654 
L 140.727273 -316.107392 
L 143.263636 -316.14003 
L 145.8 -315.845522 
L 148.336364 -315.598899 
L 150.872727 -315.648819 
L 153.409091 -315.172026 
L 155.945455 -314.681411 
L 158.481818 -314.758798 
L 161.018182 -314.50474 
L 163.554545 -313.513855 
L 166.090909 -312.252757 
L 168.627273 -312.003607 
L 171.163636 -310.592508 
L 173.7 -308.709724 
L 176.236364 -307.573063 
L 178.772727 -303.968325 
L 181.309091 -301.5097 
L 183.845455 -300.177967 
L 186.381818 -298.112826 
L 188.918182 -296.261309 
L 191.454545 -293.305669 
L 193.990909 -288.19753 
L 196.527273 -284.125586 
L 199.063636 -278.935799 
L 201.6 -274.892266 
L 204.136364 -261.628473 
L 206.672727 -248.445252 
L 209.209091 -230.690961 
L 211.745455 -221.124764 
L 214.281818 -210.202071 
L 216.818182 -196.896016 
L 219.354545 -185.595482 
L 221.890909 -174.53125 
L 224.427273 -166.422387 
L 226.963636 -155.569355 
L 229.5 -144.859888 
L 232.036364 -134.27048 
L 234.572727 -124.880305 
L 237.109091 -116.388243 
L 239.645455 -108.014001 
L 242.181818 -100.212623 
L 244.718182 -92.461526 
L 247.254545 -87.237331 
L 249.790909 -82.013136 
L 252.327273 -77.675475 
L 254.863636 -74.161879 
L 257.4 -70.648284 
L 259.936364 -67.483019 
L 262.472727 -64.423638 
L 265.009091 -61.572516 
L 267.545455 -59.297142 
L 270.081818 -57.021768 
L 272.618182 -55.354507 
L 275.154545 -53.403002 
L 277.690909 -51.846036 
L 280.227273 -50.537829 
L 282.763636 -49.235921 
L 285.3 -48.452373 
L 287.836364 -47.441534 
L 290.372727 -46.646927 
L 292.909091 -45.935803 
L 295.445455 -45.262769 
L 297.981818 -44.627292 
L 300.518182 -43.857652 
L 303.054545 -43.317147 
L 305.590909 -42.870982 
L 308.127273 -42.349931 
L 310.663636 -41.941751 
L 313.2 -41.704683 
L 315.736364 -41.444634 
L 318.272727 -41.151575 
L 320.809091 -41.006555 
L 323.345455 -40.861683 
L 325.881818 -40.719384 
L 328.418182 -40.525367 
L 330.954545 -40.333434 
L 333.490909 -40.205403 
L 336.027273 -40.115176 
L 338.563636 -40.002177 
L 341.1 -39.924392 
L 343.636364 -39.8772 
L 343.636364 -39.8772 
L 343.636364 -39.8772 
L 341.1 -39.975896 
L 338.563636 -40.112218 
L 336.027273 -40.309183 
L 333.490909 -40.458715 
L 330.954545 -40.620811 
L 328.418182 -40.813291 
L 325.881818 -41.108893 
L 323.345455 -41.389384 
L 320.809091 -41.719299 
L 318.272727 -42.068166 
L 315.736364 -42.434457 
L 313.2 -42.795236 
L 310.663636 -43.150516 
L 308.127273 -43.747585 
L 305.590909 -44.463535 
L 303.054545 -45.274271 
L 300.518182 -46.09643 
L 297.981818 -47.174298 
L 295.445455 -48.268062 
L 292.909091 -49.421472 
L 290.372727 -50.578658 
L 287.836364 -52.097858 
L 285.3 -54.185207 
L 282.763636 -56.470356 
L 280.227273 -59.067243 
L 277.690909 -61.631492 
L 275.154545 -64.053936 
L 272.618182 -66.47638 
L 270.081818 -68.966553 
L 267.545455 -71.753928 
L 265.009091 -74.541304 
L 262.472727 -77.32868 
L 259.936364 -81.230968 
L 257.4 -85.440622 
L 254.863636 -89.650276 
L 252.327273 -94.565522 
L 249.790909 -99.89106 
L 247.254545 -105.803433 
L 244.718182 -113.467603 
L 242.181818 -123.536603 
L 239.645455 -133.134792 
L 237.109091 -141.529985 
L 234.572727 -149.925179 
L 232.036364 -158.937541 
L 229.5 -168.314996 
L 226.963636 -177.692451 
L 224.427273 -187.566924 
L 221.890909 -197.511144 
L 219.354545 -207.549818 
L 216.818182 -221.196249 
L 214.281818 -236.325254 
L 211.745455 -248.375565 
L 209.209091 -259.96705 
L 206.672727 -270.580361 
L 204.136364 -283.228381 
L 201.6 -290.315359 
L 199.063636 -292.990409 
L 196.527273 -295.380293 
L 193.990909 -297.937455 
L 191.454545 -300.846942 
L 188.918182 -303.400802 
L 186.381818 -304.929289 
L 183.845455 -306.722637 
L 181.309091 -307.871724 
L 178.772727 -310.296047 
L 176.236364 -311.878386 
L 173.7 -312.781066 
L 171.163636 -314.290491 
L 168.627273 -314.78298 
L 166.090909 -315.212616 
L 163.554545 -315.372008 
L 161.018182 -316.009228 
L 158.481818 -316.287231 
L 155.945455 -316.26751 
L 153.409091 -316.246414 
L 150.872727 -316.427886 
L 148.336364 -316.8 
L 145.8 -316.8 
L 143.263636 -316.8 
L 140.727273 -316.8 
L 138.190909 -316.8 
L 135.654545 -316.8 
L 133.118182 -316.8 
L 130.581818 -316.8 
L 128.045455 -316.8 
L 125.509091 -316.8 
L 122.972727 -316.8 
L 120.436364 -316.8 
L 117.9 -316.8 
L 115.363636 -316.8 
L 112.827273 -316.8 
L 110.290909 -316.8 
L 107.754545 -316.8 
L 105.218182 -316.8 
L 102.681818 -316.8 
L 100.145455 -316.8 
L 97.609091 -316.8 
L 95.072727 -316.8 
L 92.536364 -316.8 
z
" style="stroke: #ababab; stroke-opacity: 0.3"/>
    </defs>
    <g clip-path="url(#p98f75ad58b)">
     <use xlink:href="#me24b816dfe" x="0" y="360" style="fill: #ababab; fill-opacity: 0.3; stroke: #ababab; stroke-opacity: 0.3"/>
    </g>
   </g>
   <g id="matplotlib.axis_1">
    <g id="xtick_1">
     <g id="line2d_1">
      <defs>
       <path id="md113061bb8" d="M 0 0 
L 0 3.5 
" style="stroke: #000000; stroke-width: 0.8"/>
      </defs>
      <g>
       <use xlink:href="#md113061bb8" x="90" y="320.4" style="stroke: #000000; stroke-width: 0.8"/>
      </g>
     </g>
     <g id="text_1">
      <!-- 0.0 -->
      <g transform="translate(82.048438 334.998438) scale(0.1 -0.1)">
       <defs>
        <path id="DejaVuSans-30" d="M 2034 4250 
Q 1547 4250 1301 3770 
Q 1056 3291 1056 2328 
Q 1056 1369 1301 889 
Q 1547 409 2034 409 
Q 2525 409 2770 889 
Q 3016 1369 3016 2328 
Q 3016 3291 2770 3770 
Q 2525 4250 2034 4250 
z
M 2034 4750 
Q 2819 4750 3233 4129 
Q 3647 3509 3647 2328 
Q 3647 1150 3233 529 
Q 2819 -91 2034 -91 
Q 1250 -91 836 529 
Q 422 1150 422 2328 
Q 422 3509 836 4129 
Q 1250 4750 2034 4750 
z
" transform="scale(0.015625)"/>
        <path id="DejaVuSans-2e" d="M 684 794 
L 1344 794 
L 1344 0 
L 684 0 
L 684 794 
z
" transform="scale(0.015625)"/>
       </defs>
       <use xlink:href="#DejaVuSans-30"/>
       <use xlink:href="#DejaVuSans-2e" x="63.623047"/>
       <use xlink:href="#DejaVuSans-30" x="95.410156"/>
      </g>
     </g>
    </g>
    <g id="xtick_2">
     <g id="line2d_2">
      <g>
       <use xlink:href="#md113061bb8" x="140.727273" y="320.4" style="stroke: #000000; stroke-width: 0.8"/>
      </g>
     </g>
     <g id="text_2">
      <!-- 0.2 -->
      <g transform="translate(132.77571 334.998438) scale(0.1 -0.1)">
       <defs>
        <path id="DejaVuSans-32" d="M 1228 531 
L 3431 531 
L 3431 0 
L 469 0 
L 469 531 
Q 828 903 1448 1529 
Q 2069 2156 2228 2338 
Q 2531 2678 2651 2914 
Q 2772 3150 2772 3378 
Q 2772 3750 2511 3984 
Q 2250 4219 1831 4219 
Q 1534 4219 1204 4116 
Q 875 4013 500 3803 
L 500 4441 
Q 881 4594 1212 4672 
Q 1544 4750 1819 4750 
Q 2544 4750 2975 4387 
Q 3406 4025 3406 3419 
Q 3406 3131 3298 2873 
Q 3191 2616 2906 2266 
Q 2828 2175 2409 1742 
Q 1991 1309 1228 531 
z
" transform="scale(0.015625)"/>
       </defs>
       <use xlink:href="#DejaVuSans-30"/>
       <use xlink:href="#DejaVuSans-2e" x="63.623047"/>
       <use xlink:href="#DejaVuSans-32" x="95.410156"/>
      </g>
     </g>
    </g>
    <g id="xtick_3">
     <g id="line2d_3">
      <g>
       <use xlink:href="#md113061bb8" x="191.454545" y="320.4" style="stroke: #000000; stroke-width: 0.8"/>
      </g>
     </g>
     <g id="text_3">
      <!-- 0.4 -->
      <g transform="translate(183.502983 334.998438) scale(0.1 -0.1)">
       <defs>
        <path id="DejaVuSans-34" d="M 2419 4116 
L 825 1625 
L 2419 1625 
L 2419 4116 
z
M 2253 4666 
L 3047 4666 
L 3047 1625 
L 3713 1625 
L 3713 1100 
L 3047 1100 
L 3047 0 
L 2419 0 
L 2419 1100 
L 313 1100 
L 313 1709 
L 2253 4666 
z
" transform="scale(0.015625)"/>
       </defs>
       <use xlink:href="#DejaVuSans-30"/>
       <use xlink:href="#DejaVuSans-2e" x="63.623047"/>
       <use xlink:href="#DejaVuSans-34" x="95.410156"/>
      </g>
     </g>
    </g>
    <g id="xtick_4">
     <g id="line2d_4">
      <g>
       <use xlink:href="#md113061bb8" x="242.181818" y="320.4" style="stroke: #000000; stroke-width: 0.8"/>
      </g>
     </g>
     <g id="text_4">
      <!-- 0.6 -->
      <g transform="translate(234.230256 334.998438) scale(0.1 -0.1)">
       <defs>
        <path id="DejaVuSans-36" d="M 2113 2584 
Q 1688 2584 1439 2293 
Q 1191 2003 1191 1497 
Q 1191 994 1439 701 
Q 1688 409 2113 409 
Q 2538 409 2786 701 
Q 3034 994 3034 1497 
Q 3034 2003 2786 2293 
Q 2538 2584 2113 2584 
z
M 3366 4563 
L 3366 3988 
Q 3128 4100 2886 4159 
Q 2644 4219 2406 4219 
Q 1781 4219 1451 3797 
Q 1122 3375 1075 2522 
Q 1259 2794 1537 2939 
Q 1816 3084 2150 3084 
Q 2853 3084 3261 2657 
Q 3669 2231 3669 1497 
Q 3669 778 3244 343 
Q 2819 -91 2113 -91 
Q 1303 -91 875 529 
Q 447 1150 447 2328 
Q 447 3434 972 4092 
Q 1497 4750 2381 4750 
Q 2619 4750 2861 4703 
Q 3103 4656 3366 4563 
z
" transform="scale(0.015625)"/>
       </defs>
       <use xlink:href="#DejaVuSans-30"/>
       <use xlink:href="#DejaVuSans-2e" x="63.623047"/>
       <use xlink:href="#DejaVuSans-36" x="95.410156"/>
      </g>
     </g>
    </g>
    <g id="xtick_5">
     <g id="line2d_5">
      <g>
       <use xlink:href="#md113061bb8" x="292.909091" y="320.4" style="stroke: #000000; stroke-width: 0.8"/>
      </g>
     </g>
     <g id="text_5">
      <!-- 0.8 -->
      <g transform="translate(284.957528 334.998438) scale(0.1 -0.1)">
       <defs>
        <path id="DejaVuSans-38" d="M 2034 2216 
Q 1584 2216 1326 1975 
Q 1069 1734 1069 1313 
Q 1069 891 1326 650 
Q 1584 409 2034 409 
Q 2484 409 2743 651 
Q 3003 894 3003 1313 
Q 3003 1734 2745 1975 
Q 2488 2216 2034 2216 
z
M 1403 2484 
Q 997 2584 770 2862 
Q 544 3141 544 3541 
Q 544 4100 942 4425 
Q 1341 4750 2034 4750 
Q 2731 4750 3128 4425 
Q 3525 4100 3525 3541 
Q 3525 3141 3298 2862 
Q 3072 2584 2669 2484 
Q 3125 2378 3379 2068 
Q 3634 1759 3634 1313 
Q 3634 634 3220 271 
Q 2806 -91 2034 -91 
Q 1263 -91 848 271 
Q 434 634 434 1313 
Q 434 1759 690 2068 
Q 947 2378 1403 2484 
z
M 1172 3481 
Q 1172 3119 1398 2916 
Q 1625 2713 2034 2713 
Q 2441 2713 2670 2916 
Q 2900 3119 2900 3481 
Q 2900 3844 2670 4047 
Q 2441 4250 2034 4250 
Q 1625 4250 1398 4047 
Q 1172 3844 1172 3481 
z
" transform="scale(0.015625)"/>
       </defs>
       <use xlink:href="#DejaVuSans-30"/>
       <use xlink:href="#DejaVuSans-2e" x="63.623047"/>
       <use xlink:href="#DejaVuSans-38" x="95.410156"/>
      </g>
     </g>
    </g>
    <g id="xtick_6">
     <g id="line2d_6">
      <g>
       <use xlink:href="#md113061bb8" x="343.636364" y="320.4" style="stroke: #000000; stroke-width: 0.8"/>
      </g>
     </g>
     <g id="text_6">
      <!-- 1.0 -->
      <g transform="translate(335.684801 334.998438) scale(0.1 -0.1)">
       <defs>
        <path id="DejaVuSans-31" d="M 794 531 
L 1825 531 
L 1825 4091 
L 703 3866 
L 703 4441 
L 1819 4666 
L 2450 4666 
L 2450 531 
L 3481 531 
L 3481 0 
L 794 0 
L 794 531 
z
" transform="scale(0.015625)"/>
       </defs>
       <use xlink:href="#DejaVuSans-31"/>
       <use xlink:href="#DejaVuSans-2e" x="63.623047"/>
       <use xlink:href="#DejaVuSans-30" x="95.410156"/>
      </g>
     </g>
    </g>
    <g id="text_7">
     <!-- Recall -->
     <g transform="translate(201.900994 348.676562) scale(0.1 -0.1)">
      <defs>
       <path id="DejaVuSans-52" d="M 2841 2188 
Q 3044 2119 3236 1894 
Q 3428 1669 3622 1275 
L 4263 0 
L 3584 0 
L 2988 1197 
Q 2756 1666 2539 1819 
Q 2322 1972 1947 1972 
L 1259 1972 
L 1259 0 
L 628 0 
L 628 4666 
L 2053 4666 
Q 2853 4666 3247 4331 
Q 3641 3997 3641 3322 
Q 3641 2881 3436 2590 
Q 3231 2300 2841 2188 
z
M 1259 4147 
L 1259 2491 
L 2053 2491 
Q 2509 2491 2742 2702 
Q 2975 2913 2975 3322 
Q 2975 3731 2742 3939 
Q 2509 4147 2053 4147 
L 1259 4147 
z
" transform="scale(0.015625)"/>
       <path id="DejaVuSans-65" d="M 3597 1894 
L 3597 1613 
L 953 1613 
Q 991 1019 1311 708 
Q 1631 397 2203 397 
Q 2534 397 2845 478 
Q 3156 559 3463 722 
L 3463 178 
Q 3153 47 2828 -22 
Q 2503 -91 2169 -91 
Q 1331 -91 842 396 
Q 353 884 353 1716 
Q 353 2575 817 3079 
Q 1281 3584 2069 3584 
Q 2775 3584 3186 3129 
Q 3597 2675 3597 1894 
z
M 3022 2063 
Q 3016 2534 2758 2815 
Q 2500 3097 2075 3097 
Q 1594 3097 1305 2825 
Q 1016 2553 972 2059 
L 3022 2063 
z
" transform="scale(0.015625)"/>
       <path id="DejaVuSans-63" d="M 3122 3366 
L 3122 2828 
Q 2878 2963 2633 3030 
Q 2388 3097 2138 3097 
Q 1578 3097 1268 2742 
Q 959 2388 959 1747 
Q 959 1106 1268 751 
Q 1578 397 2138 397 
Q 2388 397 2633 464 
Q 2878 531 3122 666 
L 3122 134 
Q 2881 22 2623 -34 
Q 2366 -91 2075 -91 
Q 1284 -91 818 406 
Q 353 903 353 1747 
Q 353 2603 823 3093 
Q 1294 3584 2113 3584 
Q 2378 3584 2631 3529 
Q 2884 3475 3122 3366 
z
" transform="scale(0.015625)"/>
       <path id="DejaVuSans-61" d="M 2194 1759 
Q 1497 1759 1228 1600 
Q 959 1441 959 1056 
Q 959 750 1161 570 
Q 1363 391 1709 391 
Q 2188 391 2477 730 
Q 2766 1069 2766 1631 
L 2766 1759 
L 2194 1759 
z
M 3341 1997 
L 3341 0 
L 2766 0 
L 2766 531 
Q 2569 213 2275 61 
Q 1981 -91 1556 -91 
Q 1019 -91 701 211 
Q 384 513 384 1019 
Q 384 1609 779 1909 
Q 1175 2209 1959 2209 
L 2766 2209 
L 2766 2266 
Q 2766 2663 2505 2880 
Q 2244 3097 1772 3097 
Q 1472 3097 1187 3025 
Q 903 2953 641 2809 
L 641 3341 
Q 956 3463 1253 3523 
Q 1550 3584 1831 3584 
Q 2591 3584 2966 3190 
Q 3341 2797 3341 1997 
z
" transform="scale(0.015625)"/>
       <path id="DejaVuSans-6c" d="M 603 4863 
L 1178 4863 
L 1178 0 
L 603 0 
L 603 4863 
z
" transform="scale(0.015625)"/>
      </defs>
      <use xlink:href="#DejaVuSans-52"/>
      <use xlink:href="#DejaVuSans-65" x="64.982422"/>
      <use xlink:href="#DejaVuSans-63" x="126.505859"/>
      <use xlink:href="#DejaVuSans-61" x="181.486328"/>
      <use xlink:href="#DejaVuSans-6c" x="242.765625"/>
      <use xlink:href="#DejaVuSans-6c" x="270.548828"/>
     </g>
    </g>
   </g>
   <g id="matplotlib.axis_2">
    <g id="ytick_1">
     <g id="line2d_7">
      <defs>
       <path id="m40f1b4e723" d="M 0 0 
L -3.5 0 
" style="stroke: #000000; stroke-width: 0.8"/>
      </defs>
      <g>
       <use xlink:href="#m40f1b4e723" x="90" y="320.4" style="stroke: #000000; stroke-width: 0.8"/>
      </g>
     </g>
     <g id="text_8">
      <!-- 0.0 -->
      <g transform="translate(67.096875 324.199219) scale(0.1 -0.1)">
       <use xlink:href="#DejaVuSans-30"/>
       <use xlink:href="#DejaVuSans-2e" x="63.623047"/>
       <use xlink:href="#DejaVuSans-30" x="95.410156"/>
      </g>
     </g>
    </g>
    <g id="ytick_2">
     <g id="line2d_8">
      <g>
       <use xlink:href="#m40f1b4e723" x="90" y="264.96" style="stroke: #000000; stroke-width: 0.8"/>
      </g>
     </g>
     <g id="text_9">
      <!-- 0.2 -->
      <g transform="translate(67.096875 268.759219) scale(0.1 -0.1)">
       <use xlink:href="#DejaVuSans-30"/>
       <use xlink:href="#DejaVuSans-2e" x="63.623047"/>
       <use xlink:href="#DejaVuSans-32" x="95.410156"/>
      </g>
     </g>
    </g>
    <g id="ytick_3">
     <g id="line2d_9">
      <g>
       <use xlink:href="#m40f1b4e723" x="90" y="209.52" style="stroke: #000000; stroke-width: 0.8"/>
      </g>
     </g>
     <g id="text_10">
      <!-- 0.4 -->
      <g transform="translate(67.096875 213.319219) scale(0.1 -0.1)">
       <use xlink:href="#DejaVuSans-30"/>
       <use xlink:href="#DejaVuSans-2e" x="63.623047"/>
       <use xlink:href="#DejaVuSans-34" x="95.410156"/>
      </g>
     </g>
    </g>
    <g id="ytick_4">
     <g id="line2d_10">
      <g>
       <use xlink:href="#m40f1b4e723" x="90" y="154.08" style="stroke: #000000; stroke-width: 0.8"/>
      </g>
     </g>
     <g id="text_11">
      <!-- 0.6 -->
      <g transform="translate(67.096875 157.879219) scale(0.1 -0.1)">
       <use xlink:href="#DejaVuSans-30"/>
       <use xlink:href="#DejaVuSans-2e" x="63.623047"/>
       <use xlink:href="#DejaVuSans-36" x="95.410156"/>
      </g>
     </g>
    </g>
    <g id="ytick_5">
     <g id="line2d_11">
      <g>
       <use xlink:href="#m40f1b4e723" x="90" y="98.64" style="stroke: #000000; stroke-width: 0.8"/>
      </g>
     </g>
     <g id="text_12">
      <!-- 0.8 -->
      <g transform="translate(67.096875 102.439219) scale(0.1 -0.1)">
       <use xlink:href="#DejaVuSans-30"/>
       <use xlink:href="#DejaVuSans-2e" x="63.623047"/>
       <use xlink:href="#DejaVuSans-38" x="95.410156"/>
      </g>
     </g>
    </g>
    <g id="ytick_6">
     <g id="line2d_12">
      <g>
       <use xlink:href="#m40f1b4e723" x="90" y="43.2" style="stroke: #000000; stroke-width: 0.8"/>
      </g>
     </g>
     <g id="text_13">
      <!-- 1.0 -->
      <g transform="translate(67.096875 46.999219) scale(0.1 -0.1)">
       <use xlink:href="#DejaVuSans-31"/>
       <use xlink:href="#DejaVuSans-2e" x="63.623047"/>
       <use xlink:href="#DejaVuSans-30" x="95.410156"/>
      </g>
     </g>
    </g>
    <g id="text_14">
     <!-- Precision -->
     <g transform="translate(61.017187 204.107031) rotate(-90) scale(0.1 -0.1)">
      <defs>
       <path id="DejaVuSans-50" d="M 1259 4147 
L 1259 2394 
L 2053 2394 
Q 2494 2394 2734 2622 
Q 2975 2850 2975 3272 
Q 2975 3691 2734 3919 
Q 2494 4147 2053 4147 
L 1259 4147 
z
M 628 4666 
L 2053 4666 
Q 2838 4666 3239 4311 
Q 3641 3956 3641 3272 
Q 3641 2581 3239 2228 
Q 2838 1875 2053 1875 
L 1259 1875 
L 1259 0 
L 628 0 
L 628 4666 
z
" transform="scale(0.015625)"/>
       <path id="DejaVuSans-72" d="M 2631 2963 
Q 2534 3019 2420 3045 
Q 2306 3072 2169 3072 
Q 1681 3072 1420 2755 
Q 1159 2438 1159 1844 
L 1159 0 
L 581 0 
L 581 3500 
L 1159 3500 
L 1159 2956 
Q 1341 3275 1631 3429 
Q 1922 3584 2338 3584 
Q 2397 3584 2469 3576 
Q 2541 3569 2628 3553 
L 2631 2963 
z
" transform="scale(0.015625)"/>
       <path id="DejaVuSans-69" d="M 603 3500 
L 1178 3500 
L 1178 0 
L 603 0 
L 603 3500 
z
M 603 4863 
L 1178 4863 
L 1178 4134 
L 603 4134 
L 603 4863 
z
" transform="scale(0.015625)"/>
       <path id="DejaVuSans-73" d="M 2834 3397 
L 2834 2853 
Q 2591 2978 2328 3040 
Q 2066 3103 1784 3103 
Q 1356 3103 1142 2972 
Q 928 2841 928 2578 
Q 928 2378 1081 2264 
Q 1234 2150 1697 2047 
L 1894 2003 
Q 2506 1872 2764 1633 
Q 3022 1394 3022 966 
Q 3022 478 2636 193 
Q 2250 -91 1575 -91 
Q 1294 -91 989 -36 
Q 684 19 347 128 
L 347 722 
Q 666 556 975 473 
Q 1284 391 1588 391 
Q 1994 391 2212 530 
Q 2431 669 2431 922 
Q 2431 1156 2273 1281 
Q 2116 1406 1581 1522 
L 1381 1569 
Q 847 1681 609 1914 
Q 372 2147 372 2553 
Q 372 3047 722 3315 
Q 1072 3584 1716 3584 
Q 2034 3584 2315 3537 
Q 2597 3491 2834 3397 
z
" transform="scale(0.015625)"/>
       <path id="DejaVuSans-6f" d="M 1959 3097 
Q 1497 3097 1228 2736 
Q 959 2375 959 1747 
Q 959 1119 1226 758 
Q 1494 397 1959 397 
Q 2419 397 2687 759 
Q 2956 1122 2956 1747 
Q 2956 2369 2687 2733 
Q 2419 3097 1959 3097 
z
M 1959 3584 
Q 2709 3584 3137 3096 
Q 3566 2609 3566 1747 
Q 3566 888 3137 398 
Q 2709 -91 1959 -91 
Q 1206 -91 779 398 
Q 353 888 353 1747 
Q 353 2609 779 3096 
Q 1206 3584 1959 3584 
z
" transform="scale(0.015625)"/>
       <path id="DejaVuSans-6e" d="M 3513 2113 
L 3513 0 
L 2938 0 
L 2938 2094 
Q 2938 2591 2744 2837 
Q 2550 3084 2163 3084 
Q 1697 3084 1428 2787 
Q 1159 2491 1159 1978 
L 1159 0 
L 581 0 
L 581 3500 
L 1159 3500 
L 1159 2956 
Q 1366 3272 1645 3428 
Q 1925 3584 2291 3584 
Q 2894 3584 3203 3211 
Q 3513 2838 3513 2113 
z
" transform="scale(0.015625)"/>
      </defs>
      <use xlink:href="#DejaVuSans-50"/>
      <use xlink:href="#DejaVuSans-72" x="58.552734"/>
      <use xlink:href="#DejaVuSans-65" x="97.416016"/>
      <use xlink:href="#DejaVuSans-63" x="158.939453"/>
      <use xlink:href="#DejaVuSans-69" x="213.919922"/>
      <use xlink:href="#DejaVuSans-73" x="241.703125"/>
      <use xlink:href="#DejaVuSans-69" x="293.802734"/>
      <use xlink:href="#DejaVuSans-6f" x="321.585938"/>
      <use xlink:href="#DejaVuSans-6e" x="382.767578"/>
     </g>
    </g>
   </g>
   <g id="line2d_13">
    <path clip-path="url(#p98f75ad58b)" style="fill: none; stroke: #006ba4; stroke-width: 1.5; stroke-linecap: square"/>
   </g>
   <g id="line2d_14">
    <path d="M 92.536364 43.2 
L 95.072727 43.2 
L 97.609091 43.2 
L 100.145455 43.2 
L 102.681818 43.2 
L 105.218182 43.2 
L 107.754545 43.2 
L 110.290909 43.2 
L 112.827273 43.2 
L 115.363636 43.2 
L 117.9 43.2 
L 120.436364 43.2 
L 122.972727 43.2 
L 125.509091 43.2 
L 128.045455 43.2 
L 130.581818 43.2 
L 133.118182 43.2 
L 135.654545 43.2 
L 138.190909 43.2 
L 140.727273 43.2 
L 143.263636 43.2 
L 145.8 43.2 
L 148.336364 43.2 
L 150.872727 43.2 
L 153.409091 43.2 
L 155.945455 43.2 
L 158.481818 43.2 
L 161.018182 43.2 
L 163.554545 43.2 
L 166.090909 43.2 
L 168.627273 43.2 
L 171.163636 43.2 
L 173.7 43.2 
L 176.236364 43.2 
L 178.772727 43.2 
L 181.309091 43.2 
L 183.845455 43.2 
L 186.381818 43.2 
L 188.918182 43.2 
L 191.454545 43.2 
L 193.990909 43.2 
L 196.527273 43.2 
L 199.063636 43.2 
L 201.6 43.2 
L 204.136364 43.2 
L 206.672727 43.2 
L 209.209091 43.2 
L 211.745455 43.2 
L 214.281818 43.2 
L 216.818182 43.2 
L 219.354545 43.2 
L 221.890909 43.2 
L 224.427273 43.2 
L 226.963636 43.252881 
L 229.5 43.353941 
L 232.036364 43.447415 
L 234.572727 43.44316 
L 237.109091 43.438962 
L 239.645455 43.43489 
L 242.181818 43.430969 
L 244.718182 43.440646 
L 247.254545 43.54988 
L 249.790909 43.680708 
L 252.327273 43.918027 
L 254.863636 44.050861 
L 257.4 44.03804 
L 259.936364 44.066315 
L 262.472727 44.152113 
L 265.009091 44.23363 
L 267.545455 44.346259 
L 270.081818 44.55584 
L 272.618182 44.744091 
L 275.154545 44.852011 
L 277.690909 45.218008 
L 280.227273 45.673508 
L 282.763636 46.275811 
L 285.3 46.929 
L 287.836364 47.581816 
L 290.372727 48.201136 
L 292.909091 48.760826 
L 295.445455 49.265231 
L 297.981818 50.029611 
L 300.518182 51.051575 
L 303.054545 52.07483 
L 305.590909 52.919102 
L 308.127273 53.942443 
L 310.663636 55.314815 
L 313.2 56.621521 
L 315.736364 57.821575 
L 318.272727 60.785436 
L 320.809091 62.729141 
L 323.345455 64.822252 
L 325.881818 68.352039 
L 328.418182 74.652772 
L 330.954545 82.142458 
L 333.490909 103.40956 
L 336.027273 134.963069 
L 338.563636 185.148222 
L 341.1 251.454698 
L 343.636364 320.1228 
" clip-path="url(#p98f75ad58b)" style="fill: none; stroke: #006ba4; stroke-opacity: 0.3; stroke-width: 1.5; stroke-linecap: square"/>
   </g>
   <g id="line2d_15">
    <path d="M 92.536364 43.2 
L 95.072727 43.2 
L 97.609091 43.2 
L 100.145455 43.2 
L 102.681818 43.2 
L 105.218182 43.2 
L 107.754545 43.2 
L 110.290909 43.2 
L 112.827273 43.2 
L 115.363636 43.2 
L 117.9 43.2 
L 120.436364 43.2 
L 122.972727 43.2 
L 125.509091 43.2 
L 128.045455 43.2 
L 130.581818 43.2 
L 133.118182 43.2 
L 135.654545 43.2 
L 138.190909 43.2 
L 140.727273 43.2 
L 143.263636 43.2 
L 145.8 43.2 
L 148.336364 43.2 
L 150.872727 43.2 
L 153.409091 43.2 
L 155.945455 43.2 
L 158.481818 43.2 
L 161.018182 43.2 
L 163.554545 43.2 
L 166.090909 43.2 
L 168.627273 43.2 
L 171.163636 43.2 
L 173.7 43.2 
L 176.236364 43.2 
L 178.772727 43.2 
L 181.309091 43.2 
L 183.845455 43.2 
L 186.381818 43.2 
L 188.918182 43.2 
L 191.454545 43.2 
L 193.990909 43.2 
L 196.527273 43.2 
L 199.063636 43.2 
L 201.6 43.2 
L 204.136364 43.2 
L 206.672727 43.2 
L 209.209091 43.2 
L 211.745455 43.2 
L 214.281818 43.2 
L 216.818182 43.2 
L 219.354545 43.2 
L 221.890909 43.2 
L 224.427273 43.2 
L 226.963636 43.2 
L 229.5 43.2 
L 232.036364 43.2 
L 234.572727 43.2 
L 237.109091 43.2 
L 239.645455 43.2 
L 242.181818 43.2 
L 244.718182 43.2 
L 247.254545 43.2 
L 249.790909 43.2 
L 252.327273 43.2 
L 254.863636 43.2 
L 257.4 43.2 
L 259.936364 43.2 
L 262.472727 43.393281 
L 265.009091 43.400879 
L 267.545455 43.401827 
L 270.081818 43.656851 
L 272.618182 43.842598 
L 275.154545 43.90669 
L 277.690909 44.041957 
L 280.227273 44.333331 
L 282.763636 44.624706 
L 285.3 44.996988 
L 287.836364 45.489244 
L 290.372727 46.059029 
L 292.909091 46.668605 
L 295.445455 47.35418 
L 297.981818 48.157604 
L 300.518182 48.987512 
L 303.054545 49.674193 
L 305.590909 50.791253 
L 308.127273 51.464827 
L 310.663636 52.626988 
L 313.2 54.493953 
L 315.736364 55.968871 
L 318.272727 57.433398 
L 320.809091 58.151111 
L 323.345455 60.312449 
L 325.881818 63.387 
L 328.418182 67.696465 
L 330.954545 73.352935 
L 333.490909 79.781674 
L 336.027273 104.040512 
L 338.563636 145.860121 
L 341.1 210.850465 
L 343.636364 320.1228 
" clip-path="url(#p98f75ad58b)" style="fill: none; stroke: #006ba4; stroke-opacity: 0.3; stroke-width: 1.5; stroke-linecap: square"/>
   </g>
   <g id="line2d_16">
    <path d="M 92.536364 43.2 
L 95.072727 43.2 
L 97.609091 43.2 
L 100.145455 43.2 
L 102.681818 43.2 
L 105.218182 43.2 
L 107.754545 43.2 
L 110.290909 43.2 
L 112.827273 43.2 
L 115.363636 43.2 
L 117.9 43.2 
L 120.436364 43.2 
L 122.972727 43.2 
L 125.509091 43.2 
L 128.045455 43.2 
L 130.581818 43.2 
L 133.118182 43.2 
L 135.654545 43.2 
L 138.190909 43.2 
L 140.727273 43.2 
L 143.263636 43.2 
L 145.8 43.2 
L 148.336364 43.2 
L 150.872727 43.2 
L 153.409091 43.2 
L 155.945455 43.2 
L 158.481818 43.2 
L 161.018182 43.2 
L 163.554545 43.2 
L 166.090909 43.2 
L 168.627273 43.2 
L 171.163636 43.2 
L 173.7 43.2 
L 176.236364 43.2 
L 178.772727 43.2 
L 181.309091 43.2 
L 183.845455 43.2 
L 186.381818 43.2 
L 188.918182 43.2 
L 191.454545 43.2 
L 193.990909 43.2 
L 196.527273 43.2 
L 199.063636 43.2 
L 201.6 43.2 
L 204.136364 43.2 
L 206.672727 43.2 
L 209.209091 43.2 
L 211.745455 43.2 
L 214.281818 43.2 
L 216.818182 43.2 
L 219.354545 43.2 
L 221.890909 43.2 
L 224.427273 43.2 
L 226.963636 43.22644 
L 229.5 43.276971 
L 232.036364 43.323707 
L 234.572727 43.32158 
L 237.109091 43.319481 
L 239.645455 43.317445 
L 242.181818 43.315484 
L 244.718182 43.320323 
L 247.254545 43.37494 
L 249.790909 43.440354 
L 252.327273 43.559014 
L 254.863636 43.62543 
L 257.4 43.61902 
L 259.936364 43.633157 
L 262.472727 43.772697 
L 265.009091 43.817255 
L 267.545455 43.874043 
L 270.081818 44.106345 
L 272.618182 44.293344 
L 275.154545 44.37935 
L 277.690909 44.629982 
L 280.227273 45.003419 
L 282.763636 45.450258 
L 285.3 45.962994 
L 287.836364 46.53553 
L 290.372727 47.130082 
L 292.909091 47.714716 
L 295.445455 48.309705 
L 297.981818 49.093607 
L 300.518182 50.019543 
L 303.054545 50.874511 
L 305.590909 51.855178 
L 308.127273 52.703635 
L 310.663636 53.970902 
L 313.2 55.557737 
L 315.736364 56.895223 
L 318.272727 59.109417 
L 320.809091 60.440126 
L 323.345455 62.56735 
L 325.881818 65.869519 
L 328.418182 71.174619 
L 330.954545 77.747697 
L 333.490909 91.595617 
L 336.027273 119.501791 
L 338.563636 165.504172 
L 341.1 231.152582 
L 343.636364 320.1228 
" clip-path="url(#p98f75ad58b)" style="fill: none; stroke: #006ba4; stroke-width: 1.5; stroke-linecap: square"/>
   </g>
   <g id="line2d_17">
    <path clip-path="url(#p98f75ad58b)" style="fill: none; stroke: #ff800e; stroke-width: 1.5; stroke-linecap: square"/>
   </g>
   <g id="line2d_18">
    <path d="M 92.536364 43.2 
L 95.072727 43.2 
L 97.609091 43.2 
L 100.145455 43.2 
L 102.681818 43.2 
L 105.218182 43.2 
L 107.754545 43.2 
L 110.290909 43.2 
L 112.827273 43.2 
L 115.363636 43.2 
L 117.9 43.2 
L 120.436364 43.2 
L 122.972727 43.2 
L 125.509091 43.2 
L 128.045455 43.2 
L 130.581818 43.2 
L 133.118182 43.2 
L 135.654545 43.2 
L 138.190909 43.2 
L 140.727273 43.2 
L 143.263636 43.2 
L 145.8 43.2 
L 148.336364 43.2 
L 150.872727 43.2 
L 153.409091 43.2 
L 155.945455 43.2 
L 158.481818 43.2 
L 161.018182 43.2 
L 163.554545 43.2 
L 166.090909 43.2 
L 168.627273 43.2 
L 171.163636 43.2 
L 173.7 43.2 
L 176.236364 43.2 
L 178.772727 43.2 
L 181.309091 43.2 
L 183.845455 43.2 
L 186.381818 43.2 
L 188.918182 43.2 
L 191.454545 43.2 
L 193.990909 43.2 
L 196.527273 43.2 
L 199.063636 43.2 
L 201.6 43.359605 
L 204.136364 43.507839 
L 206.672727 43.501132 
L 209.209091 43.49475 
L 211.745455 43.488628 
L 214.281818 43.764849 
L 216.818182 43.753593 
L 219.354545 43.742844 
L 221.890909 43.893674 
L 224.427273 44.02188 
L 226.963636 44.223638 
L 229.5 44.205295 
L 232.036364 44.192797 
L 234.572727 44.440008 
L 237.109091 44.659157 
L 239.645455 44.779451 
L 242.181818 44.881714 
L 244.718182 45.007035 
L 247.254545 45.28807 
L 249.790909 45.619965 
L 252.327273 45.911312 
L 254.863636 46.437581 
L 257.4 46.597382 
L 259.936364 46.646095 
L 262.472727 46.919777 
L 265.009091 47.230238 
L 267.545455 47.986577 
L 270.081818 49.394218 
L 272.618182 50.331643 
L 275.154545 50.837238 
L 277.690909 51.866494 
L 280.227273 53.39236 
L 282.763636 55.06987 
L 285.3 56.843398 
L 287.836364 58.826111 
L 290.372727 62.078119 
L 292.909091 65.440111 
L 295.445455 70.88475 
L 297.981818 78.776897 
L 300.518182 89.428947 
L 303.054545 104.085815 
L 305.590909 117.88195 
L 308.127273 134.243327 
L 310.663636 151.837276 
L 313.2 171.814701 
L 315.736364 195.08312 
L 318.272727 217.652092 
L 320.809091 236.050898 
L 323.345455 252.128839 
L 325.881818 271.274453 
L 328.418182 285.95932 
L 330.954545 299.235778 
L 333.490909 305.793651 
L 336.027273 310.305046 
L 338.563636 314.456258 
L 341.1 317.855857 
L 343.636364 320.1228 
" clip-path="url(#p98f75ad58b)" style="fill: none; stroke-dasharray: 5.55,2.4; stroke-dashoffset: 0; stroke: #ff800e; stroke-opacity: 0.3; stroke-width: 1.5"/>
   </g>
   <g id="line2d_19">
    <path d="M 92.536364 43.2 
L 95.072727 43.2 
L 97.609091 43.2 
L 100.145455 43.2 
L 102.681818 43.2 
L 105.218182 43.2 
L 107.754545 43.2 
L 110.290909 43.2 
L 112.827273 43.2 
L 115.363636 43.2 
L 117.9 43.2 
L 120.436364 43.2 
L 122.972727 43.2 
L 125.509091 43.2 
L 128.045455 43.2 
L 130.581818 43.2 
L 133.118182 43.2 
L 135.654545 43.2 
L 138.190909 43.2 
L 140.727273 43.2 
L 143.263636 43.2 
L 145.8 43.2 
L 148.336364 43.2 
L 150.872727 43.2 
L 153.409091 43.2 
L 155.945455 43.2 
L 158.481818 43.2 
L 161.018182 43.2 
L 163.554545 43.2 
L 166.090909 43.2 
L 168.627273 43.2 
L 171.163636 43.2 
L 173.7 43.2 
L 176.236364 43.2 
L 178.772727 43.2 
L 181.309091 43.2 
L 183.845455 43.2 
L 186.381818 43.2 
L 188.918182 43.2 
L 191.454545 43.2 
L 193.990909 43.2 
L 196.527273 43.2 
L 199.063636 43.2 
L 201.6 43.2 
L 204.136364 43.2 
L 206.672727 43.2 
L 209.209091 43.2 
L 211.745455 43.2 
L 214.281818 43.2 
L 216.818182 43.2 
L 219.354545 43.2 
L 221.890909 43.2 
L 224.427273 43.2 
L 226.963636 43.2 
L 229.5 43.2 
L 232.036364 43.285116 
L 234.572727 43.402947 
L 237.109091 43.438928 
L 239.645455 43.434837 
L 242.181818 43.43098 
L 244.718182 43.477798 
L 247.254545 43.772784 
L 249.790909 44.034348 
L 252.327273 44.271022 
L 254.863636 44.380319 
L 257.4 44.461295 
L 259.936364 44.771868 
L 262.472727 44.946131 
L 265.009091 45.329607 
L 267.545455 45.843606 
L 270.081818 46.42934 
L 272.618182 46.941731 
L 275.154545 47.359272 
L 277.690909 47.820266 
L 280.227273 48.785427 
L 282.763636 49.750589 
L 285.3 51.193411 
L 287.836364 52.888645 
L 290.372727 54.983768 
L 292.909091 57.652665 
L 295.445455 61.814485 
L 297.981818 67.404159 
L 300.518182 72.364448 
L 303.054545 77.899363 
L 305.590909 87.269323 
L 308.127273 97.97303 
L 310.663636 111.809442 
L 313.2 125.332495 
L 315.736364 143.826053 
L 318.272727 164.503958 
L 320.809091 186.109475 
L 323.345455 210.524571 
L 325.881818 227.790657 
L 328.418182 253.162304 
L 330.954545 275.825702 
L 333.490909 291.46789 
L 336.027273 304.333267 
L 338.563636 311.649135 
L 341.1 316.503365 
L 343.636364 320.1228 
" clip-path="url(#p98f75ad58b)" style="fill: none; stroke-dasharray: 5.55,2.4; stroke-dashoffset: 0; stroke: #ff800e; stroke-opacity: 0.3; stroke-width: 1.5"/>
   </g>
   <g id="line2d_20">
    <path d="M 92.536364 43.2 
L 95.072727 43.2 
L 97.609091 43.2 
L 100.145455 43.2 
L 102.681818 43.2 
L 105.218182 43.2 
L 107.754545 43.2 
L 110.290909 43.2 
L 112.827273 43.2 
L 115.363636 43.2 
L 117.9 43.2 
L 120.436364 43.2 
L 122.972727 43.2 
L 125.509091 43.2 
L 128.045455 43.2 
L 130.581818 43.2 
L 133.118182 43.2 
L 135.654545 43.2 
L 138.190909 43.2 
L 140.727273 43.2 
L 143.263636 43.2 
L 145.8 43.2 
L 148.336364 43.2 
L 150.872727 43.2 
L 153.409091 43.2 
L 155.945455 43.2 
L 158.481818 43.2 
L 161.018182 43.2 
L 163.554545 43.2 
L 166.090909 43.2 
L 168.627273 43.2 
L 171.163636 43.2 
L 173.7 43.2 
L 176.236364 43.2 
L 178.772727 43.2 
L 181.309091 43.2 
L 183.845455 43.2 
L 186.381818 43.2 
L 188.918182 43.2 
L 191.454545 43.2 
L 193.990909 43.2 
L 196.527273 43.2 
L 199.063636 43.2 
L 201.6 43.279802 
L 204.136364 43.353919 
L 206.672727 43.350566 
L 209.209091 43.347375 
L 211.745455 43.344314 
L 214.281818 43.482425 
L 216.818182 43.476797 
L 219.354545 43.471422 
L 221.890909 43.546837 
L 224.427273 43.61094 
L 226.963636 43.711819 
L 229.5 43.702647 
L 232.036364 43.738957 
L 234.572727 43.921478 
L 237.109091 44.049042 
L 239.645455 44.107144 
L 242.181818 44.156347 
L 244.718182 44.242416 
L 247.254545 44.530427 
L 249.790909 44.827156 
L 252.327273 45.091167 
L 254.863636 45.40895 
L 257.4 45.529339 
L 259.936364 45.708981 
L 262.472727 45.932954 
L 265.009091 46.279922 
L 267.545455 46.915092 
L 270.081818 47.911779 
L 272.618182 48.636687 
L 275.154545 49.098255 
L 277.690909 49.84338 
L 280.227273 51.088894 
L 282.763636 52.41023 
L 285.3 54.018404 
L 287.836364 55.857378 
L 290.372727 58.530944 
L 292.909091 61.546388 
L 295.445455 66.349618 
L 297.981818 73.090528 
L 300.518182 80.896697 
L 303.054545 90.992589 
L 305.590909 102.575637 
L 308.127273 116.108178 
L 310.663636 131.823359 
L 313.2 148.573598 
L 315.736364 169.454587 
L 318.272727 191.078025 
L 320.809091 211.080187 
L 323.345455 231.326705 
L 325.881818 249.532555 
L 328.418182 269.560812 
L 330.954545 287.53074 
L 333.490909 298.63077 
L 336.027273 307.319157 
L 338.563636 313.052696 
L 341.1 317.179611 
L 343.636364 320.1228 
" clip-path="url(#p98f75ad58b)" style="fill: none; stroke-dasharray: 5.55,2.4; stroke-dashoffset: 0; stroke: #ff800e; stroke-width: 1.5"/>
   </g>
   <g id="line2d_21">
    <path clip-path="url(#p98f75ad58b)" style="fill: none; stroke: #ababab; stroke-width: 1.5; stroke-linecap: square"/>
   </g>
   <g id="line2d_22">
    <path d="M 92.536364 43.2 
L 95.072727 43.2 
L 97.609091 43.2 
L 100.145455 43.2 
L 102.681818 43.2 
L 105.218182 43.2 
L 107.754545 43.2 
L 110.290909 43.2 
L 112.827273 43.2 
L 115.363636 43.2 
L 117.9 43.2 
L 120.436364 43.2 
L 122.972727 43.2 
L 125.509091 43.2 
L 128.045455 43.2 
L 130.581818 43.48384 
L 133.118182 44.01441 
L 135.654545 43.968957 
L 138.190909 43.928346 
L 140.727273 43.892608 
L 143.263636 43.85997 
L 145.8 44.154478 
L 148.336364 44.401101 
L 150.872727 44.351181 
L 153.409091 44.827974 
L 155.945455 45.318589 
L 158.481818 45.241202 
L 161.018182 45.49526 
L 163.554545 46.486145 
L 166.090909 47.747243 
L 168.627273 47.996393 
L 171.163636 49.407492 
L 173.7 51.290276 
L 176.236364 52.426937 
L 178.772727 56.031675 
L 181.309091 58.4903 
L 183.845455 59.822033 
L 186.381818 61.887174 
L 188.918182 63.738691 
L 191.454545 66.694331 
L 193.990909 71.80247 
L 196.527273 75.874414 
L 199.063636 81.064201 
L 201.6 85.107734 
L 204.136364 98.371527 
L 206.672727 111.554748 
L 209.209091 129.309039 
L 211.745455 138.875236 
L 214.281818 149.797929 
L 216.818182 163.103984 
L 219.354545 174.404518 
L 221.890909 185.46875 
L 224.427273 193.577613 
L 226.963636 204.430645 
L 229.5 215.140112 
L 232.036364 225.72952 
L 234.572727 235.119695 
L 237.109091 243.611757 
L 239.645455 251.985999 
L 242.181818 259.787377 
L 244.718182 267.538474 
L 247.254545 272.762669 
L 249.790909 277.986864 
L 252.327273 282.324525 
L 254.863636 285.838121 
L 257.4 289.351716 
L 259.936364 292.516981 
L 262.472727 295.576362 
L 265.009091 298.427484 
L 267.545455 300.702858 
L 270.081818 302.978232 
L 272.618182 304.645493 
L 275.154545 306.596998 
L 277.690909 308.153964 
L 280.227273 309.462171 
L 282.763636 310.764079 
L 285.3 311.547627 
L 287.836364 312.558466 
L 290.372727 313.353073 
L 292.909091 314.064197 
L 295.445455 314.737231 
L 297.981818 315.372708 
L 300.518182 316.142348 
L 303.054545 316.682853 
L 305.590909 317.129018 
L 308.127273 317.650069 
L 310.663636 318.058249 
L 313.2 318.295317 
L 315.736364 318.555366 
L 318.272727 318.848425 
L 320.809091 318.993445 
L 323.345455 319.138317 
L 325.881818 319.280616 
L 328.418182 319.474633 
L 330.954545 319.666566 
L 333.490909 319.794597 
L 336.027273 319.884824 
L 338.563636 319.997823 
L 341.1 320.075608 
L 343.636364 320.1228 
" clip-path="url(#p98f75ad58b)" style="fill: none; stroke-dasharray: 9.6,2.4,1.5,2.4; stroke-dashoffset: 0; stroke: #ababab; stroke-opacity: 0.3; stroke-width: 1.5"/>
   </g>
   <g id="line2d_23">
    <path d="M 92.536364 43.2 
L 95.072727 43.2 
L 97.609091 43.2 
L 100.145455 43.2 
L 102.681818 43.2 
L 105.218182 43.2 
L 107.754545 43.2 
L 110.290909 43.2 
L 112.827273 43.2 
L 115.363636 43.2 
L 117.9 43.2 
L 120.436364 43.2 
L 122.972727 43.2 
L 125.509091 43.2 
L 128.045455 43.2 
L 130.581818 43.2 
L 133.118182 43.2 
L 135.654545 43.2 
L 138.190909 43.2 
L 140.727273 43.2 
L 143.263636 43.2 
L 145.8 43.2 
L 148.336364 43.2 
L 150.872727 43.572114 
L 153.409091 43.753586 
L 155.945455 43.73249 
L 158.481818 43.712769 
L 161.018182 43.990772 
L 163.554545 44.627992 
L 166.090909 44.787384 
L 168.627273 45.21702 
L 171.163636 45.709509 
L 173.7 47.218934 
L 176.236364 48.121614 
L 178.772727 49.703953 
L 181.309091 52.128276 
L 183.845455 53.277363 
L 186.381818 55.070711 
L 188.918182 56.599198 
L 191.454545 59.153058 
L 193.990909 62.062545 
L 196.527273 64.619707 
L 199.063636 67.009591 
L 201.6 69.684641 
L 204.136364 76.771619 
L 206.672727 89.419639 
L 209.209091 100.03295 
L 211.745455 111.624435 
L 214.281818 123.674746 
L 216.818182 138.803751 
L 219.354545 152.450182 
L 221.890909 162.488856 
L 224.427273 172.433076 
L 226.963636 182.307549 
L 229.5 191.685004 
L 232.036364 201.062459 
L 234.572727 210.074821 
L 237.109091 218.470015 
L 239.645455 226.865208 
L 242.181818 236.463397 
L 244.718182 246.532397 
L 247.254545 254.196567 
L 249.790909 260.10894 
L 252.327273 265.434478 
L 254.863636 270.349724 
L 257.4 274.559378 
L 259.936364 278.769032 
L 262.472727 282.67132 
L 265.009091 285.458696 
L 267.545455 288.246072 
L 270.081818 291.033447 
L 272.618182 293.52362 
L 275.154545 295.946064 
L 277.690909 298.368508 
L 280.227273 300.932757 
L 282.763636 303.529644 
L 285.3 305.814793 
L 287.836364 307.902142 
L 290.372727 309.421342 
L 292.909091 310.578528 
L 295.445455 311.731938 
L 297.981818 312.825702 
L 300.518182 313.90357 
L 303.054545 314.725729 
L 305.590909 315.536465 
L 308.127273 316.252415 
L 310.663636 316.849484 
L 313.2 317.204764 
L 315.736364 317.565543 
L 318.272727 317.931834 
L 320.809091 318.280701 
L 323.345455 318.610616 
L 325.881818 318.891107 
L 328.418182 319.186709 
L 330.954545 319.379189 
L 333.490909 319.541285 
L 336.027273 319.690817 
L 338.563636 319.887782 
L 341.1 320.024104 
L 343.636364 320.1228 
" clip-path="url(#p98f75ad58b)" style="fill: none; stroke-dasharray: 9.6,2.4,1.5,2.4; stroke-dashoffset: 0; stroke: #ababab; stroke-opacity: 0.3; stroke-width: 1.5"/>
   </g>
   <g id="line2d_24">
    <path d="M 92.536364 43.2 
L 95.072727 43.2 
L 97.609091 43.2 
L 100.145455 43.2 
L 102.681818 43.2 
L 105.218182 43.2 
L 107.754545 43.2 
L 110.290909 43.2 
L 112.827273 43.2 
L 115.363636 43.2 
L 117.9 43.2 
L 120.436364 43.2 
L 122.972727 43.2 
L 125.509091 43.2 
L 128.045455 43.2 
L 130.581818 43.34192 
L 133.118182 43.607205 
L 135.654545 43.584478 
L 138.190909 43.564173 
L 140.727273 43.546304 
L 143.263636 43.529985 
L 145.8 43.677239 
L 148.336364 43.800551 
L 150.872727 43.961647 
L 153.409091 44.29078 
L 155.945455 44.525539 
L 158.481818 44.476986 
L 161.018182 44.743016 
L 163.554545 45.557068 
L 166.090909 46.267313 
L 168.627273 46.606707 
L 171.163636 47.558501 
L 173.7 49.254605 
L 176.236364 50.274276 
L 178.772727 52.867814 
L 181.309091 55.309288 
L 183.845455 56.549698 
L 186.381818 58.478942 
L 188.918182 60.168945 
L 191.454545 62.923694 
L 193.990909 66.932507 
L 196.527273 70.247061 
L 199.063636 74.036896 
L 201.6 77.396188 
L 204.136364 87.571573 
L 206.672727 100.487194 
L 209.209091 114.670995 
L 211.745455 125.249836 
L 214.281818 136.736338 
L 216.818182 150.953868 
L 219.354545 163.42735 
L 221.890909 173.978803 
L 224.427273 183.005345 
L 226.963636 193.369097 
L 229.5 203.412558 
L 232.036364 213.395989 
L 234.572727 222.597258 
L 237.109091 231.040886 
L 239.645455 239.425604 
L 242.181818 248.125387 
L 244.718182 257.035436 
L 247.254545 263.479618 
L 249.790909 269.047902 
L 252.327273 273.879502 
L 254.863636 278.093922 
L 257.4 281.955547 
L 259.936364 285.643007 
L 262.472727 289.123841 
L 265.009091 291.94309 
L 267.545455 294.474465 
L 270.081818 297.00584 
L 272.618182 299.084557 
L 275.154545 301.271531 
L 277.690909 303.261236 
L 280.227273 305.197464 
L 282.763636 307.146862 
L 285.3 308.68121 
L 287.836364 310.230304 
L 290.372727 311.387208 
L 292.909091 312.321362 
L 295.445455 313.234584 
L 297.981818 314.099205 
L 300.518182 315.022959 
L 303.054545 315.704291 
L 305.590909 316.332741 
L 308.127273 316.951242 
L 310.663636 317.453866 
L 313.2 317.750041 
L 315.736364 318.060455 
L 318.272727 318.39013 
L 320.809091 318.637073 
L 323.345455 318.874467 
L 325.881818 319.085861 
L 328.418182 319.330671 
L 330.954545 319.522877 
L 333.490909 319.667941 
L 336.027273 319.787821 
L 338.563636 319.942803 
L 341.1 320.049856 
L 343.636364 320.1228 
" clip-path="url(#p98f75ad58b)" style="fill: none; stroke-dasharray: 9.6,2.4,1.5,2.4; stroke-dashoffset: 0; stroke: #ababab; stroke-width: 1.5"/>
   </g>
   <g id="patch_3">
    <path d="M 90 320.4 
L 90 43.2 
" style="fill: none; stroke: #000000; stroke-width: 0.8; stroke-linejoin: miter; stroke-linecap: square"/>
   </g>
   <g id="patch_4">
    <path d="M 343.636364 320.4 
L 343.636364 43.2 
" style="fill: none; stroke: #000000; stroke-width: 0.8; stroke-linejoin: miter; stroke-linecap: square"/>
   </g>
   <g id="patch_5">
    <path d="M 90 320.4 
L 343.636364 320.4 
" style="fill: none; stroke: #000000; stroke-width: 0.8; stroke-linejoin: miter; stroke-linecap: square"/>
   </g>
   <g id="patch_6">
    <path d="M 90 43.2 
L 343.636364 43.2 
" style="fill: none; stroke: #000000; stroke-width: 0.8; stroke-linejoin: miter; stroke-linecap: square"/>
   </g>
   <g id="text_15">
    <!-- PR Curves for Barabasi-Albert graph (2000 nodes) -->
    <g transform="translate(66.560369 37.2) scale(0.12 -0.12)">
     <defs>
      <path id="DejaVuSans-20" transform="scale(0.015625)"/>
      <path id="DejaVuSans-43" d="M 4122 4306 
L 4122 3641 
Q 3803 3938 3442 4084 
Q 3081 4231 2675 4231 
Q 1875 4231 1450 3742 
Q 1025 3253 1025 2328 
Q 1025 1406 1450 917 
Q 1875 428 2675 428 
Q 3081 428 3442 575 
Q 3803 722 4122 1019 
L 4122 359 
Q 3791 134 3420 21 
Q 3050 -91 2638 -91 
Q 1578 -91 968 557 
Q 359 1206 359 2328 
Q 359 3453 968 4101 
Q 1578 4750 2638 4750 
Q 3056 4750 3426 4639 
Q 3797 4528 4122 4306 
z
" transform="scale(0.015625)"/>
      <path id="DejaVuSans-75" d="M 544 1381 
L 544 3500 
L 1119 3500 
L 1119 1403 
Q 1119 906 1312 657 
Q 1506 409 1894 409 
Q 2359 409 2629 706 
Q 2900 1003 2900 1516 
L 2900 3500 
L 3475 3500 
L 3475 0 
L 2900 0 
L 2900 538 
Q 2691 219 2414 64 
Q 2138 -91 1772 -91 
Q 1169 -91 856 284 
Q 544 659 544 1381 
z
M 1991 3584 
L 1991 3584 
z
" transform="scale(0.015625)"/>
      <path id="DejaVuSans-76" d="M 191 3500 
L 800 3500 
L 1894 563 
L 2988 3500 
L 3597 3500 
L 2284 0 
L 1503 0 
L 191 3500 
z
" transform="scale(0.015625)"/>
      <path id="DejaVuSans-66" d="M 2375 4863 
L 2375 4384 
L 1825 4384 
Q 1516 4384 1395 4259 
Q 1275 4134 1275 3809 
L 1275 3500 
L 2222 3500 
L 2222 3053 
L 1275 3053 
L 1275 0 
L 697 0 
L 697 3053 
L 147 3053 
L 147 3500 
L 697 3500 
L 697 3744 
Q 697 4328 969 4595 
Q 1241 4863 1831 4863 
L 2375 4863 
z
" transform="scale(0.015625)"/>
      <path id="DejaVuSans-42" d="M 1259 2228 
L 1259 519 
L 2272 519 
Q 2781 519 3026 730 
Q 3272 941 3272 1375 
Q 3272 1813 3026 2020 
Q 2781 2228 2272 2228 
L 1259 2228 
z
M 1259 4147 
L 1259 2741 
L 2194 2741 
Q 2656 2741 2882 2914 
Q 3109 3088 3109 3444 
Q 3109 3797 2882 3972 
Q 2656 4147 2194 4147 
L 1259 4147 
z
M 628 4666 
L 2241 4666 
Q 2963 4666 3353 4366 
Q 3744 4066 3744 3513 
Q 3744 3084 3544 2831 
Q 3344 2578 2956 2516 
Q 3422 2416 3680 2098 
Q 3938 1781 3938 1306 
Q 3938 681 3513 340 
Q 3088 0 2303 0 
L 628 0 
L 628 4666 
z
" transform="scale(0.015625)"/>
      <path id="DejaVuSans-62" d="M 3116 1747 
Q 3116 2381 2855 2742 
Q 2594 3103 2138 3103 
Q 1681 3103 1420 2742 
Q 1159 2381 1159 1747 
Q 1159 1113 1420 752 
Q 1681 391 2138 391 
Q 2594 391 2855 752 
Q 3116 1113 3116 1747 
z
M 1159 2969 
Q 1341 3281 1617 3432 
Q 1894 3584 2278 3584 
Q 2916 3584 3314 3078 
Q 3713 2572 3713 1747 
Q 3713 922 3314 415 
Q 2916 -91 2278 -91 
Q 1894 -91 1617 61 
Q 1341 213 1159 525 
L 1159 0 
L 581 0 
L 581 4863 
L 1159 4863 
L 1159 2969 
z
" transform="scale(0.015625)"/>
      <path id="DejaVuSans-2d" d="M 313 2009 
L 1997 2009 
L 1997 1497 
L 313 1497 
L 313 2009 
z
" transform="scale(0.015625)"/>
      <path id="DejaVuSans-41" d="M 2188 4044 
L 1331 1722 
L 3047 1722 
L 2188 4044 
z
M 1831 4666 
L 2547 4666 
L 4325 0 
L 3669 0 
L 3244 1197 
L 1141 1197 
L 716 0 
L 50 0 
L 1831 4666 
z
" transform="scale(0.015625)"/>
      <path id="DejaVuSans-74" d="M 1172 4494 
L 1172 3500 
L 2356 3500 
L 2356 3053 
L 1172 3053 
L 1172 1153 
Q 1172 725 1289 603 
Q 1406 481 1766 481 
L 2356 481 
L 2356 0 
L 1766 0 
Q 1100 0 847 248 
Q 594 497 594 1153 
L 594 3053 
L 172 3053 
L 172 3500 
L 594 3500 
L 594 4494 
L 1172 4494 
z
" transform="scale(0.015625)"/>
      <path id="DejaVuSans-67" d="M 2906 1791 
Q 2906 2416 2648 2759 
Q 2391 3103 1925 3103 
Q 1463 3103 1205 2759 
Q 947 2416 947 1791 
Q 947 1169 1205 825 
Q 1463 481 1925 481 
Q 2391 481 2648 825 
Q 2906 1169 2906 1791 
z
M 3481 434 
Q 3481 -459 3084 -895 
Q 2688 -1331 1869 -1331 
Q 1566 -1331 1297 -1286 
Q 1028 -1241 775 -1147 
L 775 -588 
Q 1028 -725 1275 -790 
Q 1522 -856 1778 -856 
Q 2344 -856 2625 -561 
Q 2906 -266 2906 331 
L 2906 616 
Q 2728 306 2450 153 
Q 2172 0 1784 0 
Q 1141 0 747 490 
Q 353 981 353 1791 
Q 353 2603 747 3093 
Q 1141 3584 1784 3584 
Q 2172 3584 2450 3431 
Q 2728 3278 2906 2969 
L 2906 3500 
L 3481 3500 
L 3481 434 
z
" transform="scale(0.015625)"/>
      <path id="DejaVuSans-70" d="M 1159 525 
L 1159 -1331 
L 581 -1331 
L 581 3500 
L 1159 3500 
L 1159 2969 
Q 1341 3281 1617 3432 
Q 1894 3584 2278 3584 
Q 2916 3584 3314 3078 
Q 3713 2572 3713 1747 
Q 3713 922 3314 415 
Q 2916 -91 2278 -91 
Q 1894 -91 1617 61 
Q 1341 213 1159 525 
z
M 3116 1747 
Q 3116 2381 2855 2742 
Q 2594 3103 2138 3103 
Q 1681 3103 1420 2742 
Q 1159 2381 1159 1747 
Q 1159 1113 1420 752 
Q 1681 391 2138 391 
Q 2594 391 2855 752 
Q 3116 1113 3116 1747 
z
" transform="scale(0.015625)"/>
      <path id="DejaVuSans-68" d="M 3513 2113 
L 3513 0 
L 2938 0 
L 2938 2094 
Q 2938 2591 2744 2837 
Q 2550 3084 2163 3084 
Q 1697 3084 1428 2787 
Q 1159 2491 1159 1978 
L 1159 0 
L 581 0 
L 581 4863 
L 1159 4863 
L 1159 2956 
Q 1366 3272 1645 3428 
Q 1925 3584 2291 3584 
Q 2894 3584 3203 3211 
Q 3513 2838 3513 2113 
z
" transform="scale(0.015625)"/>
      <path id="DejaVuSans-28" d="M 1984 4856 
Q 1566 4138 1362 3434 
Q 1159 2731 1159 2009 
Q 1159 1288 1364 580 
Q 1569 -128 1984 -844 
L 1484 -844 
Q 1016 -109 783 600 
Q 550 1309 550 2009 
Q 550 2706 781 3412 
Q 1013 4119 1484 4856 
L 1984 4856 
z
" transform="scale(0.015625)"/>
      <path id="DejaVuSans-64" d="M 2906 2969 
L 2906 4863 
L 3481 4863 
L 3481 0 
L 2906 0 
L 2906 525 
Q 2725 213 2448 61 
Q 2172 -91 1784 -91 
Q 1150 -91 751 415 
Q 353 922 353 1747 
Q 353 2572 751 3078 
Q 1150 3584 1784 3584 
Q 2172 3584 2448 3432 
Q 2725 3281 2906 2969 
z
M 947 1747 
Q 947 1113 1208 752 
Q 1469 391 1925 391 
Q 2381 391 2643 752 
Q 2906 1113 2906 1747 
Q 2906 2381 2643 2742 
Q 2381 3103 1925 3103 
Q 1469 3103 1208 2742 
Q 947 2381 947 1747 
z
" transform="scale(0.015625)"/>
      <path id="DejaVuSans-29" d="M 513 4856 
L 1013 4856 
Q 1481 4119 1714 3412 
Q 1947 2706 1947 2009 
Q 1947 1309 1714 600 
Q 1481 -109 1013 -844 
L 513 -844 
Q 928 -128 1133 580 
Q 1338 1288 1338 2009 
Q 1338 2731 1133 3434 
Q 928 4138 513 4856 
z
" transform="scale(0.015625)"/>
     </defs>
     <use xlink:href="#DejaVuSans-50"/>
     <use xlink:href="#DejaVuSans-52" x="60.302734"/>
     <use xlink:href="#DejaVuSans-20" x="129.785156"/>
     <use xlink:href="#DejaVuSans-43" x="161.572266"/>
     <use xlink:href="#DejaVuSans-75" x="231.396484"/>
     <use xlink:href="#DejaVuSans-72" x="294.775391"/>
     <use xlink:href="#DejaVuSans-76" x="335.888672"/>
     <use xlink:href="#DejaVuSans-65" x="395.068359"/>
     <use xlink:href="#DejaVuSans-73" x="456.591797"/>
     <use xlink:href="#DejaVuSans-20" x="508.691406"/>
     <use xlink:href="#DejaVuSans-66" x="540.478516"/>
     <use xlink:href="#DejaVuSans-6f" x="575.683594"/>
     <use xlink:href="#DejaVuSans-72" x="636.865234"/>
     <use xlink:href="#DejaVuSans-20" x="677.978516"/>
     <use xlink:href="#DejaVuSans-42" x="709.765625"/>
     <use xlink:href="#DejaVuSans-61" x="778.369141"/>
     <use xlink:href="#DejaVuSans-72" x="839.648438"/>
     <use xlink:href="#DejaVuSans-61" x="880.761719"/>
     <use xlink:href="#DejaVuSans-62" x="942.041016"/>
     <use xlink:href="#DejaVuSans-61" x="1005.517578"/>
     <use xlink:href="#DejaVuSans-73" x="1066.796875"/>
     <use xlink:href="#DejaVuSans-69" x="1118.896484"/>
     <use xlink:href="#DejaVuSans-2d" x="1146.679688"/>
     <use xlink:href="#DejaVuSans-41" x="1180.513672"/>
     <use xlink:href="#DejaVuSans-6c" x="1248.921875"/>
     <use xlink:href="#DejaVuSans-62" x="1276.705078"/>
     <use xlink:href="#DejaVuSans-65" x="1340.181641"/>
     <use xlink:href="#DejaVuSans-72" x="1401.705078"/>
     <use xlink:href="#DejaVuSans-74" x="1442.818359"/>
     <use xlink:href="#DejaVuSans-20" x="1482.027344"/>
     <use xlink:href="#DejaVuSans-67" x="1513.814453"/>
     <use xlink:href="#DejaVuSans-72" x="1577.291016"/>
     <use xlink:href="#DejaVuSans-61" x="1618.404297"/>
     <use xlink:href="#DejaVuSans-70" x="1679.683594"/>
     <use xlink:href="#DejaVuSans-68" x="1743.160156"/>
     <use xlink:href="#DejaVuSans-20" x="1806.539062"/>
     <use xlink:href="#DejaVuSans-28" x="1838.326172"/>
     <use xlink:href="#DejaVuSans-32" x="1877.339844"/>
     <use xlink:href="#DejaVuSans-30" x="1940.962891"/>
     <use xlink:href="#DejaVuSans-30" x="2004.585938"/>
     <use xlink:href="#DejaVuSans-30" x="2068.208984"/>
     <use xlink:href="#DejaVuSans-20" x="2131.832031"/>
     <use xlink:href="#DejaVuSans-6e" x="2163.619141"/>
     <use xlink:href="#DejaVuSans-6f" x="2226.998047"/>
     <use xlink:href="#DejaVuSans-64" x="2288.179688"/>
     <use xlink:href="#DejaVuSans-65" x="2351.65625"/>
     <use xlink:href="#DejaVuSans-73" x="2413.179688"/>
     <use xlink:href="#DejaVuSans-29" x="2465.279297"/>
    </g>
   </g>
   <g id="legend_1">
    <g id="patch_7">
     <path d="M 97 315.4 
L 202.617188 315.4 
Q 204.617188 315.4 204.617188 313.4 
L 204.617188 270.365625 
Q 204.617188 268.365625 202.617188 268.365625 
L 97 268.365625 
Q 95 268.365625 95 270.365625 
L 95 313.4 
Q 95 315.4 97 315.4 
z
" style="fill: #ffffff; opacity: 0.8; stroke: #cccccc; stroke-linejoin: miter"/>
    </g>
    <g id="line2d_25">
     <path d="M 99 276.464063 
L 109 276.464063 
L 119 276.464063 
" style="fill: none; stroke: #006ba4; stroke-width: 1.5; stroke-linecap: square"/>
    </g>
    <g id="text_16">
     <!-- GmGM -->
     <g transform="translate(127 279.964063) scale(0.1 -0.1)">
      <defs>
       <path id="DejaVuSans-47" d="M 3809 666 
L 3809 1919 
L 2778 1919 
L 2778 2438 
L 4434 2438 
L 4434 434 
Q 4069 175 3628 42 
Q 3188 -91 2688 -91 
Q 1594 -91 976 548 
Q 359 1188 359 2328 
Q 359 3472 976 4111 
Q 1594 4750 2688 4750 
Q 3144 4750 3555 4637 
Q 3966 4525 4313 4306 
L 4313 3634 
Q 3963 3931 3569 4081 
Q 3175 4231 2741 4231 
Q 1884 4231 1454 3753 
Q 1025 3275 1025 2328 
Q 1025 1384 1454 906 
Q 1884 428 2741 428 
Q 3075 428 3337 486 
Q 3600 544 3809 666 
z
" transform="scale(0.015625)"/>
       <path id="DejaVuSans-6d" d="M 3328 2828 
Q 3544 3216 3844 3400 
Q 4144 3584 4550 3584 
Q 5097 3584 5394 3201 
Q 5691 2819 5691 2113 
L 5691 0 
L 5113 0 
L 5113 2094 
Q 5113 2597 4934 2840 
Q 4756 3084 4391 3084 
Q 3944 3084 3684 2787 
Q 3425 2491 3425 1978 
L 3425 0 
L 2847 0 
L 2847 2094 
Q 2847 2600 2669 2842 
Q 2491 3084 2119 3084 
Q 1678 3084 1418 2786 
Q 1159 2488 1159 1978 
L 1159 0 
L 581 0 
L 581 3500 
L 1159 3500 
L 1159 2956 
Q 1356 3278 1631 3431 
Q 1906 3584 2284 3584 
Q 2666 3584 2933 3390 
Q 3200 3197 3328 2828 
z
" transform="scale(0.015625)"/>
       <path id="DejaVuSans-4d" d="M 628 4666 
L 1569 4666 
L 2759 1491 
L 3956 4666 
L 4897 4666 
L 4897 0 
L 4281 0 
L 4281 4097 
L 3078 897 
L 2444 897 
L 1241 4097 
L 1241 0 
L 628 0 
L 628 4666 
z
" transform="scale(0.015625)"/>
      </defs>
      <use xlink:href="#DejaVuSans-47"/>
      <use xlink:href="#DejaVuSans-6d" x="77.490234"/>
      <use xlink:href="#DejaVuSans-47" x="174.902344"/>
      <use xlink:href="#DejaVuSans-4d" x="252.392578"/>
     </g>
    </g>
    <g id="line2d_26">
     <path d="M 99 291.142187 
L 109 291.142187 
L 119 291.142187 
" style="fill: none; stroke-dasharray: 5.55,2.4; stroke-dashoffset: 0; stroke: #ff800e; stroke-width: 1.5"/>
    </g>
    <g id="text_17">
     <!-- GmGM-500pcs -->
     <g transform="translate(127 294.642187) scale(0.1 -0.1)">
      <defs>
       <path id="DejaVuSans-35" d="M 691 4666 
L 3169 4666 
L 3169 4134 
L 1269 4134 
L 1269 2991 
Q 1406 3038 1543 3061 
Q 1681 3084 1819 3084 
Q 2600 3084 3056 2656 
Q 3513 2228 3513 1497 
Q 3513 744 3044 326 
Q 2575 -91 1722 -91 
Q 1428 -91 1123 -41 
Q 819 9 494 109 
L 494 744 
Q 775 591 1075 516 
Q 1375 441 1709 441 
Q 2250 441 2565 725 
Q 2881 1009 2881 1497 
Q 2881 1984 2565 2268 
Q 2250 2553 1709 2553 
Q 1456 2553 1204 2497 
Q 953 2441 691 2322 
L 691 4666 
z
" transform="scale(0.015625)"/>
      </defs>
      <use xlink:href="#DejaVuSans-47"/>
      <use xlink:href="#DejaVuSans-6d" x="77.490234"/>
      <use xlink:href="#DejaVuSans-47" x="174.902344"/>
      <use xlink:href="#DejaVuSans-4d" x="252.392578"/>
      <use xlink:href="#DejaVuSans-2d" x="338.671875"/>
      <use xlink:href="#DejaVuSans-35" x="374.755859"/>
      <use xlink:href="#DejaVuSans-30" x="438.378906"/>
      <use xlink:href="#DejaVuSans-30" x="502.001953"/>
      <use xlink:href="#DejaVuSans-70" x="565.625"/>
      <use xlink:href="#DejaVuSans-63" x="629.101562"/>
      <use xlink:href="#DejaVuSans-73" x="684.082031"/>
     </g>
    </g>
    <g id="line2d_27">
     <path d="M 99 305.820312 
L 109 305.820312 
L 119 305.820312 
" style="fill: none; stroke-dasharray: 9.6,2.4,1.5,2.4; stroke-dashoffset: 0; stroke: #ababab; stroke-width: 1.5"/>
    </g>
    <g id="text_18">
     <!-- GmGM-125pcs -->
     <g transform="translate(127 309.320312) scale(0.1 -0.1)">
      <use xlink:href="#DejaVuSans-47"/>
      <use xlink:href="#DejaVuSans-6d" x="77.490234"/>
      <use xlink:href="#DejaVuSans-47" x="174.902344"/>
      <use xlink:href="#DejaVuSans-4d" x="252.392578"/>
      <use xlink:href="#DejaVuSans-2d" x="338.671875"/>
      <use xlink:href="#DejaVuSans-31" x="374.755859"/>
      <use xlink:href="#DejaVuSans-32" x="438.378906"/>
      <use xlink:href="#DejaVuSans-35" x="502.001953"/>
      <use xlink:href="#DejaVuSans-70" x="565.625"/>
      <use xlink:href="#DejaVuSans-63" x="629.101562"/>
      <use xlink:href="#DejaVuSans-73" x="684.082031"/>
     </g>
    </g>
   </g>
  </g>
  <g id="axes_2">
   <g id="patch_8">
    <path d="M 394.363636 320.4 
L 648 320.4 
L 648 43.2 
L 394.363636 43.2 
z
" style="fill: #ffffff"/>
   </g>
   <g id="matplotlib.axis_3">
    <g id="xtick_7">
     <g id="line2d_28">
      <g>
       <use xlink:href="#md113061bb8" x="436.636364" y="320.4" style="stroke: #000000; stroke-width: 0.8"/>
      </g>
     </g>
     <g id="text_19">
      <!-- GmGM -->
      <g transform="translate(439.395739 361.265625) rotate(-90) scale(0.1 -0.1)">
       <use xlink:href="#DejaVuSans-47"/>
       <use xlink:href="#DejaVuSans-6d" x="77.490234"/>
       <use xlink:href="#DejaVuSans-47" x="174.902344"/>
       <use xlink:href="#DejaVuSans-4d" x="252.392578"/>
      </g>
     </g>
    </g>
    <g id="xtick_8">
     <g id="line2d_29">
      <g>
       <use xlink:href="#md113061bb8" x="521.181818" y="320.4" style="stroke: #000000; stroke-width: 0.8"/>
      </g>
     </g>
     <g id="text_20">
      <!-- GmGM-500pcs -->
      <g transform="translate(523.941193 401.017187) rotate(-90) scale(0.1 -0.1)">
       <use xlink:href="#DejaVuSans-47"/>
       <use xlink:href="#DejaVuSans-6d" x="77.490234"/>
       <use xlink:href="#DejaVuSans-47" x="174.902344"/>
       <use xlink:href="#DejaVuSans-4d" x="252.392578"/>
       <use xlink:href="#DejaVuSans-2d" x="338.671875"/>
       <use xlink:href="#DejaVuSans-35" x="374.755859"/>
       <use xlink:href="#DejaVuSans-30" x="438.378906"/>
       <use xlink:href="#DejaVuSans-30" x="502.001953"/>
       <use xlink:href="#DejaVuSans-70" x="565.625"/>
       <use xlink:href="#DejaVuSans-63" x="629.101562"/>
       <use xlink:href="#DejaVuSans-73" x="684.082031"/>
      </g>
     </g>
    </g>
    <g id="xtick_9">
     <g id="line2d_30">
      <g>
       <use xlink:href="#md113061bb8" x="605.727273" y="320.4" style="stroke: #000000; stroke-width: 0.8"/>
      </g>
     </g>
     <g id="text_21">
      <!-- GmGM-125pcs -->
      <g transform="translate(608.486648 401.017187) rotate(-90) scale(0.1 -0.1)">
       <use xlink:href="#DejaVuSans-47"/>
       <use xlink:href="#DejaVuSans-6d" x="77.490234"/>
       <use xlink:href="#DejaVuSans-47" x="174.902344"/>
       <use xlink:href="#DejaVuSans-4d" x="252.392578"/>
       <use xlink:href="#DejaVuSans-2d" x="338.671875"/>
       <use xlink:href="#DejaVuSans-31" x="374.755859"/>
       <use xlink:href="#DejaVuSans-32" x="438.378906"/>
       <use xlink:href="#DejaVuSans-35" x="502.001953"/>
       <use xlink:href="#DejaVuSans-70" x="565.625"/>
       <use xlink:href="#DejaVuSans-63" x="629.101562"/>
       <use xlink:href="#DejaVuSans-73" x="684.082031"/>
      </g>
     </g>
    </g>
   </g>
   <g id="matplotlib.axis_4">
    <g id="ytick_7">
     <g id="line2d_31">
      <g>
       <use xlink:href="#m40f1b4e723" x="394.363636" y="320.4" style="stroke: #000000; stroke-width: 0.8"/>
      </g>
     </g>
     <g id="text_22">
      <!-- 0.0 -->
      <g transform="translate(371.460511 324.199219) scale(0.1 -0.1)">
       <use xlink:href="#DejaVuSans-30"/>
       <use xlink:href="#DejaVuSans-2e" x="63.623047"/>
       <use xlink:href="#DejaVuSans-30" x="95.410156"/>
      </g>
     </g>
    </g>
    <g id="ytick_8">
     <g id="line2d_32">
      <g>
       <use xlink:href="#m40f1b4e723" x="394.363636" y="265.508911" style="stroke: #000000; stroke-width: 0.8"/>
      </g>
     </g>
     <g id="text_23">
      <!-- 0.2 -->
      <g transform="translate(371.460511 269.30813) scale(0.1 -0.1)">
       <use xlink:href="#DejaVuSans-30"/>
       <use xlink:href="#DejaVuSans-2e" x="63.623047"/>
       <use xlink:href="#DejaVuSans-32" x="95.410156"/>
      </g>
     </g>
    </g>
    <g id="ytick_9">
     <g id="line2d_33">
      <g>
       <use xlink:href="#m40f1b4e723" x="394.363636" y="210.617822" style="stroke: #000000; stroke-width: 0.8"/>
      </g>
     </g>
     <g id="text_24">
      <!-- 0.4 -->
      <g transform="translate(371.460511 214.417041) scale(0.1 -0.1)">
       <use xlink:href="#DejaVuSans-30"/>
       <use xlink:href="#DejaVuSans-2e" x="63.623047"/>
       <use xlink:href="#DejaVuSans-34" x="95.410156"/>
      </g>
     </g>
    </g>
    <g id="ytick_10">
     <g id="line2d_34">
      <g>
       <use xlink:href="#m40f1b4e723" x="394.363636" y="155.726733" style="stroke: #000000; stroke-width: 0.8"/>
      </g>
     </g>
     <g id="text_25">
      <!-- 0.6 -->
      <g transform="translate(371.460511 159.525951) scale(0.1 -0.1)">
       <use xlink:href="#DejaVuSans-30"/>
       <use xlink:href="#DejaVuSans-2e" x="63.623047"/>
       <use xlink:href="#DejaVuSans-36" x="95.410156"/>
      </g>
     </g>
    </g>
    <g id="ytick_11">
     <g id="line2d_35">
      <g>
       <use xlink:href="#m40f1b4e723" x="394.363636" y="100.835644" style="stroke: #000000; stroke-width: 0.8"/>
      </g>
     </g>
     <g id="text_26">
      <!-- 0.8 -->
      <g transform="translate(371.460511 104.634862) scale(0.1 -0.1)">
       <use xlink:href="#DejaVuSans-30"/>
       <use xlink:href="#DejaVuSans-2e" x="63.623047"/>
       <use xlink:href="#DejaVuSans-38" x="95.410156"/>
      </g>
     </g>
    </g>
    <g id="ytick_12">
     <g id="line2d_36">
      <g>
       <use xlink:href="#m40f1b4e723" x="394.363636" y="45.944554" style="stroke: #000000; stroke-width: 0.8"/>
      </g>
     </g>
     <g id="text_27">
      <!-- 1.0 -->
      <g transform="translate(371.460511 49.743773) scale(0.1 -0.1)">
       <use xlink:href="#DejaVuSans-31"/>
       <use xlink:href="#DejaVuSans-2e" x="63.623047"/>
       <use xlink:href="#DejaVuSans-30" x="95.410156"/>
      </g>
     </g>
    </g>
    <g id="text_28">
     <!-- Explained Variance -->
     <g transform="translate(365.380824 229.54375) rotate(-90) scale(0.1 -0.1)">
      <defs>
       <path id="DejaVuSans-45" d="M 628 4666 
L 3578 4666 
L 3578 4134 
L 1259 4134 
L 1259 2753 
L 3481 2753 
L 3481 2222 
L 1259 2222 
L 1259 531 
L 3634 531 
L 3634 0 
L 628 0 
L 628 4666 
z
" transform="scale(0.015625)"/>
       <path id="DejaVuSans-78" d="M 3513 3500 
L 2247 1797 
L 3578 0 
L 2900 0 
L 1881 1375 
L 863 0 
L 184 0 
L 1544 1831 
L 300 3500 
L 978 3500 
L 1906 2253 
L 2834 3500 
L 3513 3500 
z
" transform="scale(0.015625)"/>
       <path id="DejaVuSans-56" d="M 1831 0 
L 50 4666 
L 709 4666 
L 2188 738 
L 3669 4666 
L 4325 4666 
L 2547 0 
L 1831 0 
z
" transform="scale(0.015625)"/>
      </defs>
      <use xlink:href="#DejaVuSans-45"/>
      <use xlink:href="#DejaVuSans-78" x="63.183594"/>
      <use xlink:href="#DejaVuSans-70" x="122.363281"/>
      <use xlink:href="#DejaVuSans-6c" x="185.839844"/>
      <use xlink:href="#DejaVuSans-61" x="213.623047"/>
      <use xlink:href="#DejaVuSans-69" x="274.902344"/>
      <use xlink:href="#DejaVuSans-6e" x="302.685547"/>
      <use xlink:href="#DejaVuSans-65" x="366.064453"/>
      <use xlink:href="#DejaVuSans-64" x="427.587891"/>
      <use xlink:href="#DejaVuSans-20" x="491.064453"/>
      <use xlink:href="#DejaVuSans-56" x="522.851562"/>
      <use xlink:href="#DejaVuSans-61" x="583.509766"/>
      <use xlink:href="#DejaVuSans-72" x="644.789062"/>
      <use xlink:href="#DejaVuSans-69" x="685.902344"/>
      <use xlink:href="#DejaVuSans-61" x="713.685547"/>
      <use xlink:href="#DejaVuSans-6e" x="774.964844"/>
      <use xlink:href="#DejaVuSans-63" x="838.34375"/>
      <use xlink:href="#DejaVuSans-65" x="893.324219"/>
     </g>
    </g>
   </g>
   <g id="line2d_37">
    <path d="M 423.954545 45.944554 
L 449.318182 45.944554 
L 449.318182 45.944554 
L 423.954545 45.944554 
L 423.954545 45.944554 
" clip-path="url(#p8b9b0d2f00)" style="fill: none; stroke: #000000; stroke-linecap: square"/>
   </g>
   <g id="line2d_38">
    <path d="M 436.636364 45.944554 
L 436.636364 45.944554 
" clip-path="url(#p8b9b0d2f00)" style="fill: none; stroke: #000000; stroke-linecap: square"/>
   </g>
   <g id="line2d_39">
    <path d="M 436.636364 45.944554 
L 436.636364 45.944554 
" clip-path="url(#p8b9b0d2f00)" style="fill: none; stroke: #000000; stroke-linecap: square"/>
   </g>
   <g id="line2d_40">
    <path d="M 430.295455 45.944554 
L 442.977273 45.944554 
" clip-path="url(#p8b9b0d2f00)" style="fill: none; stroke: #000000; stroke-linecap: square"/>
   </g>
   <g id="line2d_41">
    <path d="M 430.295455 45.944554 
L 442.977273 45.944554 
" clip-path="url(#p8b9b0d2f00)" style="fill: none; stroke: #000000; stroke-linecap: square"/>
   </g>
   <g id="line2d_42"/>
   <g id="line2d_43">
    <path d="M 508.5 133.165764 
L 533.863636 133.165764 
L 533.863636 133.036305 
L 508.5 133.036305 
L 508.5 133.165764 
" clip-path="url(#p8b9b0d2f00)" style="fill: none; stroke: #000000; stroke-linecap: square"/>
   </g>
   <g id="line2d_44">
    <path d="M 521.181818 133.165764 
L 521.181818 133.225915 
" clip-path="url(#p8b9b0d2f00)" style="fill: none; stroke: #000000; stroke-linecap: square"/>
   </g>
   <g id="line2d_45">
    <path d="M 521.181818 133.036305 
L 521.181818 133.003949 
" clip-path="url(#p8b9b0d2f00)" style="fill: none; stroke: #000000; stroke-linecap: square"/>
   </g>
   <g id="line2d_46">
    <path d="M 514.840909 133.225915 
L 527.522727 133.225915 
" clip-path="url(#p8b9b0d2f00)" style="fill: none; stroke: #000000; stroke-linecap: square"/>
   </g>
   <g id="line2d_47">
    <path d="M 514.840909 133.003949 
L 527.522727 133.003949 
" clip-path="url(#p8b9b0d2f00)" style="fill: none; stroke: #000000; stroke-linecap: square"/>
   </g>
   <g id="line2d_48"/>
   <g id="line2d_49">
    <path d="M 593.045455 252.351401 
L 618.409091 252.351401 
L 618.409091 252.306604 
L 593.045455 252.306604 
L 593.045455 252.351401 
" clip-path="url(#p8b9b0d2f00)" style="fill: none; stroke: #000000; stroke-linecap: square"/>
   </g>
   <g id="line2d_50">
    <path d="M 605.727273 252.351401 
L 605.727273 252.391771 
" clip-path="url(#p8b9b0d2f00)" style="fill: none; stroke: #000000; stroke-linecap: square"/>
   </g>
   <g id="line2d_51">
    <path d="M 605.727273 252.306604 
L 605.727273 252.271337 
" clip-path="url(#p8b9b0d2f00)" style="fill: none; stroke: #000000; stroke-linecap: square"/>
   </g>
   <g id="line2d_52">
    <path d="M 599.386364 252.391771 
L 612.068182 252.391771 
" clip-path="url(#p8b9b0d2f00)" style="fill: none; stroke: #000000; stroke-linecap: square"/>
   </g>
   <g id="line2d_53">
    <path d="M 599.386364 252.271337 
L 612.068182 252.271337 
" clip-path="url(#p8b9b0d2f00)" style="fill: none; stroke: #000000; stroke-linecap: square"/>
   </g>
   <g id="line2d_54">
    <defs>
     <path id="mb44061f795" d="M 0 3 
C 0.795609 3 1.55874 2.683901 2.12132 2.12132 
C 2.683901 1.55874 3 0.795609 3 0 
C 3 -0.795609 2.683901 -1.55874 2.12132 -2.12132 
C 1.55874 -2.683901 0.795609 -3 0 -3 
C -0.795609 -3 -1.55874 -2.683901 -2.12132 -2.12132 
C -2.683901 -1.55874 -3 -0.795609 -3 0 
C -3 0.795609 -2.683901 1.55874 -2.12132 2.12132 
C -1.55874 2.683901 -0.795609 3 0 3 
z
" style="stroke: #000000"/>
    </defs>
    <g clip-path="url(#p8b9b0d2f00)">
     <use xlink:href="#mb44061f795" x="605.727273" y="252.21806" style="fill-opacity: 0; stroke: #000000"/>
    </g>
   </g>
   <g id="line2d_55">
    <path d="M 423.954545 45.944554 
L 449.318182 45.944554 
" clip-path="url(#p8b9b0d2f00)" style="fill: none; stroke: #ff800e"/>
   </g>
   <g id="line2d_56">
    <path d="M 508.5 133.110484 
L 533.863636 133.110484 
" clip-path="url(#p8b9b0d2f00)" style="fill: none; stroke: #ff800e"/>
   </g>
   <g id="line2d_57">
    <path d="M 593.045455 252.324478 
L 618.409091 252.324478 
" clip-path="url(#p8b9b0d2f00)" style="fill: none; stroke: #ff800e"/>
   </g>
   <g id="patch_9">
    <path d="M 394.363636 320.4 
L 394.363636 43.2 
" style="fill: none; stroke: #000000; stroke-width: 0.8; stroke-linejoin: miter; stroke-linecap: square"/>
   </g>
   <g id="patch_10">
    <path d="M 648 320.4 
L 648 43.2 
" style="fill: none; stroke: #000000; stroke-width: 0.8; stroke-linejoin: miter; stroke-linecap: square"/>
   </g>
   <g id="patch_11">
    <path d="M 394.363636 320.4 
L 648 320.4 
" style="fill: none; stroke: #000000; stroke-width: 0.8; stroke-linejoin: miter; stroke-linecap: square"/>
   </g>
   <g id="patch_12">
    <path d="M 394.363636 43.2 
L 648 43.2 
" style="fill: none; stroke: #000000; stroke-width: 0.8; stroke-linejoin: miter; stroke-linecap: square"/>
   </g>
   <g id="text_29">
    <!-- Explained Variance; Box and Whiskers -->
    <g transform="translate(406.639006 37.2) scale(0.12 -0.12)">
     <defs>
      <path id="DejaVuSans-3b" d="M 750 3309 
L 1409 3309 
L 1409 2516 
L 750 2516 
L 750 3309 
z
M 750 794 
L 1409 794 
L 1409 256 
L 897 -744 
L 494 -744 
L 750 256 
L 750 794 
z
" transform="scale(0.015625)"/>
      <path id="DejaVuSans-57" d="M 213 4666 
L 850 4666 
L 1831 722 
L 2809 4666 
L 3519 4666 
L 4500 722 
L 5478 4666 
L 6119 4666 
L 4947 0 
L 4153 0 
L 3169 4050 
L 2175 0 
L 1381 0 
L 213 4666 
z
" transform="scale(0.015625)"/>
      <path id="DejaVuSans-6b" d="M 581 4863 
L 1159 4863 
L 1159 1991 
L 2875 3500 
L 3609 3500 
L 1753 1863 
L 3688 0 
L 2938 0 
L 1159 1709 
L 1159 0 
L 581 0 
L 581 4863 
z
" transform="scale(0.015625)"/>
     </defs>
     <use xlink:href="#DejaVuSans-45"/>
     <use xlink:href="#DejaVuSans-78" x="63.183594"/>
     <use xlink:href="#DejaVuSans-70" x="122.363281"/>
     <use xlink:href="#DejaVuSans-6c" x="185.839844"/>
     <use xlink:href="#DejaVuSans-61" x="213.623047"/>
     <use xlink:href="#DejaVuSans-69" x="274.902344"/>
     <use xlink:href="#DejaVuSans-6e" x="302.685547"/>
     <use xlink:href="#DejaVuSans-65" x="366.064453"/>
     <use xlink:href="#DejaVuSans-64" x="427.587891"/>
     <use xlink:href="#DejaVuSans-20" x="491.064453"/>
     <use xlink:href="#DejaVuSans-56" x="522.851562"/>
     <use xlink:href="#DejaVuSans-61" x="583.509766"/>
     <use xlink:href="#DejaVuSans-72" x="644.789062"/>
     <use xlink:href="#DejaVuSans-69" x="685.902344"/>
     <use xlink:href="#DejaVuSans-61" x="713.685547"/>
     <use xlink:href="#DejaVuSans-6e" x="774.964844"/>
     <use xlink:href="#DejaVuSans-63" x="838.34375"/>
     <use xlink:href="#DejaVuSans-65" x="893.324219"/>
     <use xlink:href="#DejaVuSans-3b" x="954.847656"/>
     <use xlink:href="#DejaVuSans-20" x="988.539062"/>
     <use xlink:href="#DejaVuSans-42" x="1020.326172"/>
     <use xlink:href="#DejaVuSans-6f" x="1088.929688"/>
     <use xlink:href="#DejaVuSans-78" x="1146.986328"/>
     <use xlink:href="#DejaVuSans-20" x="1206.166016"/>
     <use xlink:href="#DejaVuSans-61" x="1237.953125"/>
     <use xlink:href="#DejaVuSans-6e" x="1299.232422"/>
     <use xlink:href="#DejaVuSans-64" x="1362.611328"/>
     <use xlink:href="#DejaVuSans-20" x="1426.087891"/>
     <use xlink:href="#DejaVuSans-57" x="1457.875"/>
     <use xlink:href="#DejaVuSans-68" x="1556.751953"/>
     <use xlink:href="#DejaVuSans-69" x="1620.130859"/>
     <use xlink:href="#DejaVuSans-73" x="1647.914062"/>
     <use xlink:href="#DejaVuSans-6b" x="1700.013672"/>
     <use xlink:href="#DejaVuSans-65" x="1754.298828"/>
     <use xlink:href="#DejaVuSans-72" x="1815.822266"/>
     <use xlink:href="#DejaVuSans-73" x="1856.935547"/>
    </g>
   </g>
  </g>
 </g>
 <defs>
  <clipPath id="p98f75ad58b">
   <rect x="90" y="43.2" width="253.636364" height="277.2"/>
  </clipPath>
  <clipPath id="p8b9b0d2f00">
   <rect x="394.363636" y="43.2" width="253.636364" height="277.2"/>
  </clipPath>
 </defs>
</svg>
