<?xml version="1.0" encoding="utf-8" standalone="no"?>
<!DOCTYPE svg PUBLIC "-//W3C//DTD SVG 1.1//EN"
  "http://www.w3.org/Graphics/SVG/1.1/DTD/svg11.dtd">
<svg xmlns:xlink="http://www.w3.org/1999/xlink" width="720pt" height="360pt" viewBox="0 0 720 360" xmlns="http://www.w3.org/2000/svg" version="1.1">
 <metadata>
  <rdf:RDF xmlns:dc="http://purl.org/dc/elements/1.1/" xmlns:cc="http://creativecommons.org/ns#" xmlns:rdf="http://www.w3.org/1999/02/22-rdf-syntax-ns#">
   <cc:Work>
    <dc:type rdf:resource="http://purl.org/dc/dcmitype/StillImage"/>
    <dc:date>2024-05-23T15:04:05.585649</dc:date>
    <dc:format>image/svg+xml</dc:format>
    <dc:creator>
     <cc:Agent>
      <dc:title>Matplotlib v3.8.0, https://matplotlib.org/</dc:title>
     </cc:Agent>
    </dc:creator>
   </cc:Work>
  </rdf:RDF>
 </metadata>
 <defs>
  <style type="text/css">*{stroke-linejoin: round; stroke-linecap: butt}</style>
 </defs>
 <g id="figure_1">
  <g id="patch_1">
   <path d="M 0 360 
L 720 360 
L 720 0 
L 0 0 
z
" style="fill: #ffffff"/>
  </g>
  <g id="axes_1">
   <g id="patch_2">
    <path d="M 90 320.4 
L 343.636364 320.4 
L 343.636364 43.2 
L 90 43.2 
z
" style="fill: #ffffff"/>
   </g>
   <g id="PolyCollection_1">
    <defs>
     <path id="m205304bc4a" d="M 92.536364 -316.8 
L 92.536364 -316.8 
L 95.072727 -316.8 
L 97.609091 -316.8 
L 100.145455 -316.8 
L 102.681818 -316.8 
L 105.218182 -316.8 
L 107.754545 -316.8 
L 110.290909 -316.8 
L 112.827273 -316.8 
L 115.363636 -316.8 
L 117.9 -313.072138 
L 120.436364 -307.785931 
L 122.972727 -308.481789 
L 125.509091 -309.032211 
L 128.045455 -309.564639 
L 130.581818 -309.987055 
L 133.118182 -310.398751 
L 135.654545 -310.740279 
L 138.190909 -311.056652 
L 140.727273 -311.338133 
L 143.263636 -311.593773 
L 145.8 -311.826631 
L 148.336364 -312.039336 
L 150.872727 -312.237253 
L 153.409091 -312.415497 
L 155.945455 -312.579579 
L 158.481818 -312.521242 
L 161.018182 -310.331255 
L 163.554545 -309.324822 
L 166.090909 -309.570411 
L 168.627273 -309.783349 
L 171.163636 -309.991814 
L 173.7 -310.200279 
L 176.236364 -310.402393 
L 178.772727 -309.540928 
L 181.309091 -308.514054 
L 183.845455 -306.393773 
L 186.381818 -305.092531 
L 188.918182 -305.12592 
L 191.454545 -302.854072 
L 193.990909 -300.901224 
L 196.527273 -300.090601 
L 199.063636 -299.786713 
L 201.6 -299.950923 
L 204.136364 -296.087433 
L 206.672727 -290.794722 
L 209.209091 -283.383125 
L 211.745455 -277.3081 
L 214.281818 -270.95533 
L 216.818182 -265.732514 
L 219.354545 -259.739153 
L 221.890909 -253.624212 
L 224.427273 -246.412314 
L 226.963636 -240.052792 
L 229.5 -233.703664 
L 232.036364 -227.553424 
L 234.572727 -222.32982 
L 237.109091 -217.106217 
L 239.645455 -214.30344 
L 242.181818 -212.235783 
L 244.718182 -210.168126 
L 247.254545 -203.281056 
L 249.790909 -193.826086 
L 252.327273 -186.807794 
L 254.863636 -179.559037 
L 257.4 -170.157181 
L 259.936364 -154.814415 
L 262.472727 -149.19659 
L 265.009091 -134.692516 
L 267.545455 -129.748776 
L 270.081818 -127.117343 
L 272.618182 -124.485909 
L 275.154545 -118.864041 
L 277.690909 -112.052857 
L 280.227273 -109.110825 
L 282.763636 -106.168793 
L 285.3 -95.475557 
L 287.836364 -93.328498 
L 290.372727 -91.181439 
L 292.909091 -89.072926 
L 295.445455 -87.405765 
L 297.981818 -81.81786 
L 300.518182 -74.810222 
L 303.054545 -72.610401 
L 305.590909 -70.699557 
L 308.127273 -68.935828 
L 310.663636 -67.327217 
L 313.2 -65.606445 
L 315.736364 -63.832128 
L 318.272727 -61.422294 
L 320.809091 -55.591892 
L 323.345455 -52.625816 
L 325.881818 -49.965712 
L 328.418182 -48.930667 
L 330.954545 -48.032553 
L 333.490909 -46.643204 
L 336.027273 -44.841245 
L 338.563636 -44.241502 
L 341.1 -42.612381 
L 343.636364 -41.8176 
L 343.636364 -41.8176 
L 343.636364 -41.8176 
L 341.1 -46.854204 
L 338.563636 -47.915526 
L 336.027273 -48.988493 
L 333.490909 -55.307598 
L 330.954545 -62.079741 
L 328.418182 -64.715255 
L 325.881818 -66.747261 
L 323.345455 -69.705962 
L 320.809091 -72.975134 
L 318.272727 -76.423688 
L 315.736364 -79.908299 
L 313.2 -83.421443 
L 310.663636 -88.590323 
L 308.127273 -94.271851 
L 305.590909 -98.359498 
L 303.054545 -102.447144 
L 300.518182 -106.91255 
L 297.981818 -111.403896 
L 295.445455 -120.414488 
L 292.909091 -126.298561 
L 290.372727 -131.792847 
L 287.836364 -143.214943 
L 285.3 -157.132365 
L 282.763636 -162.297336 
L 280.227273 -168.004645 
L 277.690909 -172.980402 
L 275.154545 -179.333586 
L 272.618182 -185.686769 
L 270.081818 -191.208234 
L 267.545455 -196.624323 
L 265.009091 -201.752931 
L 262.472727 -206.567484 
L 259.936364 -211.248432 
L 257.4 -214.893613 
L 254.863636 -222.603606 
L 252.327273 -230.567893 
L 249.790909 -242.378623 
L 247.254545 -249.287741 
L 244.718182 -254.103493 
L 242.181818 -261.88882 
L 239.645455 -267.313397 
L 237.109091 -274.893748 
L 234.572727 -286.643749 
L 232.036364 -292.123751 
L 229.5 -295.189556 
L 226.963636 -297.737192 
L 224.427273 -299.58689 
L 221.890909 -300.44728 
L 219.354545 -301.165747 
L 216.818182 -301.850322 
L 214.281818 -303.434434 
L 211.745455 -305.93376 
L 209.209091 -307.606157 
L 206.672727 -307.470985 
L 204.136364 -309.527402 
L 201.6 -311.845039 
L 199.063636 -314.168028 
L 196.527273 -314.174345 
L 193.990909 -314.111067 
L 191.454545 -314.043495 
L 188.918182 -314.4984 
L 186.381818 -315.8928 
L 183.845455 -316.8 
L 181.309091 -316.8 
L 178.772727 -316.8 
L 176.236364 -316.8 
L 173.7 -316.8 
L 171.163636 -316.8 
L 168.627273 -316.8 
L 166.090909 -316.8 
L 163.554545 -316.8 
L 161.018182 -316.8 
L 158.481818 -316.8 
L 155.945455 -316.8 
L 153.409091 -316.8 
L 150.872727 -316.8 
L 148.336364 -316.8 
L 145.8 -316.8 
L 143.263636 -316.8 
L 140.727273 -316.8 
L 138.190909 -316.8 
L 135.654545 -316.8 
L 133.118182 -316.8 
L 130.581818 -316.8 
L 128.045455 -316.8 
L 125.509091 -316.8 
L 122.972727 -316.8 
L 120.436364 -316.8 
L 117.9 -316.8 
L 115.363636 -316.8 
L 112.827273 -316.8 
L 110.290909 -316.8 
L 107.754545 -316.8 
L 105.218182 -316.8 
L 102.681818 -316.8 
L 100.145455 -316.8 
L 97.609091 -316.8 
L 95.072727 -316.8 
L 92.536364 -316.8 
z
" style="stroke: #006ba4; stroke-opacity: 0.3"/>
    </defs>
    <g clip-path="url(#p015e637ba5)">
     <use xlink:href="#m205304bc4a" x="0" y="360" style="fill: #006ba4; fill-opacity: 0.3; stroke: #006ba4; stroke-opacity: 0.3"/>
    </g>
   </g>
   <g id="PolyCollection_2">
    <defs>
     <path id="m5b0dcefefd" d="M 92.536364 -316.8 
L 92.536364 -235.719 
L 95.072727 -214.929 
L 97.609091 -227.882769 
L 100.145455 -225.324 
L 102.681818 -213.110526 
L 105.218182 -214.0182 
L 107.754545 -207.148765 
L 110.290909 -202.798588 
L 112.827273 -199.711535 
L 115.363636 -194.288947 
L 117.9 -163.494704 
L 120.436364 -151.888101 
L 122.972727 -148.552038 
L 125.509091 -146.339769 
L 128.045455 -145.846934 
L 130.581818 -144.72486 
L 133.118182 -142.165568 
L 135.654545 -140.384555 
L 138.190909 -137.734105 
L 140.727273 -139.149474 
L 143.263636 -139.099678 
L 145.8 -138.62643 
L 148.336364 -135.829246 
L 150.872727 -131.871019 
L 153.409091 -124.942376 
L 155.945455 -119.85072 
L 158.481818 -112.783571 
L 161.018182 -109.765134 
L 163.554545 -104.778878 
L 166.090909 -101.61585 
L 168.627273 -98.21577 
L 171.163636 -94.556725 
L 173.7 -92.893811 
L 176.236364 -91.525258 
L 178.772727 -89.33033 
L 181.309091 -86.53272 
L 183.845455 -82.562567 
L 186.381818 -81.735766 
L 188.918182 -80.908965 
L 191.454545 -79.803675 
L 193.990909 -78.464239 
L 196.527273 -76.694903 
L 199.063636 -72.103531 
L 201.6 -68.495292 
L 204.136364 -67.919513 
L 206.672727 -67.343735 
L 209.209091 -66.767957 
L 211.745455 -65.937771 
L 214.281818 -64.945233 
L 216.818182 -64.038893 
L 219.354545 -63.47562 
L 221.890909 -62.912346 
L 224.427273 -60.095243 
L 226.963636 -59.586456 
L 229.5 -59.14889 
L 232.036364 -58.705153 
L 234.572727 -58.232661 
L 237.109091 -57.760169 
L 239.645455 -57.287676 
L 242.181818 -56.754943 
L 244.718182 -55.929587 
L 247.254545 -54.806625 
L 249.790909 -54.260734 
L 252.327273 -53.453091 
L 254.863636 -52.750138 
L 257.4 -52.244147 
L 259.936364 -51.721881 
L 262.472727 -51.167062 
L 265.009091 -50.580735 
L 267.545455 -50.54638 
L 270.081818 -50.011797 
L 272.618182 -49.096203 
L 275.154545 -48.612696 
L 277.690909 -48.304955 
L 280.227273 -48.013306 
L 282.763636 -47.758995 
L 285.3 -47.504684 
L 287.836364 -47.184797 
L 290.372727 -46.796647 
L 292.909091 -46.116137 
L 295.445455 -45.880016 
L 297.981818 -45.61468 
L 300.518182 -45.082335 
L 303.054545 -44.843156 
L 305.590909 -44.616562 
L 308.127273 -44.392558 
L 310.663636 -44.104488 
L 313.2 -43.832263 
L 315.736364 -43.658851 
L 318.272727 -43.537935 
L 320.809091 -43.283759 
L 323.345455 -42.979779 
L 325.881818 -42.669113 
L 328.418182 -42.494734 
L 330.954545 -42.239174 
L 333.490909 -42.164112 
L 336.027273 -42.059018 
L 338.563636 -41.932587 
L 341.1 -41.903931 
L 343.636364 -41.8176 
L 343.636364 -41.8176 
L 343.636364 -41.8176 
L 341.1 -42.233827 
L 338.563636 -42.71513 
L 336.027273 -43.182159 
L 333.490909 -43.327168 
L 330.954545 -43.679001 
L 328.418182 -44.087519 
L 325.881818 -44.132544 
L 323.345455 -44.562875 
L 320.809091 -45.370535 
L 318.272727 -45.753789 
L 315.736364 -45.913558 
L 313.2 -46.063977 
L 310.663636 -46.301866 
L 308.127273 -47.025456 
L 305.590909 -47.763553 
L 303.054545 -47.943469 
L 300.518182 -48.123386 
L 297.981818 -48.340022 
L 295.445455 -48.631719 
L 292.909091 -49.484858 
L 290.372727 -50.13902 
L 287.836364 -50.650524 
L 285.3 -52.0029 
L 282.763636 -52.450943 
L 280.227273 -52.940757 
L 277.690909 -53.804842 
L 275.154545 -54.394268 
L 272.618182 -54.951672 
L 270.081818 -56.54899 
L 267.545455 -57.734135 
L 265.009091 -58.558717 
L 262.472727 -59.333908 
L 259.936364 -60.008816 
L 257.4 -60.668937 
L 254.863636 -61.601309 
L 252.327273 -62.850913 
L 249.790909 -63.3193 
L 247.254545 -63.655651 
L 244.718182 -63.992001 
L 242.181818 -64.740295 
L 239.645455 -65.597307 
L 237.109091 -67.01387 
L 234.572727 -69.457599 
L 232.036364 -69.990851 
L 229.5 -72.534455 
L 226.963636 -75.353442 
L 224.427273 -79.669993 
L 221.890909 -83.452505 
L 219.354545 -86.682482 
L 216.818182 -91.108752 
L 214.281818 -95.277057 
L 211.745455 -99.380546 
L 209.209091 -102.002858 
L 206.672727 -104.234198 
L 204.136364 -106.465539 
L 201.6 -108.237977 
L 199.063636 -110.001011 
L 196.527273 -111.70401 
L 193.990909 -113.11112 
L 191.454545 -114.518229 
L 188.918182 -115.925339 
L 186.381818 -126.33582 
L 183.845455 -130.771925 
L 181.309091 -135.208031 
L 178.772727 -139.385345 
L 176.236364 -143.473129 
L 173.7 -147.560914 
L 171.163636 -151.242667 
L 168.627273 -154.894667 
L 166.090909 -159.0116 
L 163.554545 -163.554126 
L 161.018182 -168.971594 
L 158.481818 -174.380908 
L 155.945455 -177.000179 
L 153.409091 -179.045122 
L 150.872727 -182.035394 
L 148.336364 -184.956448 
L 145.8 -189.358646 
L 143.263636 -203.875269 
L 140.727273 -203.559231 
L 138.190909 -203.243192 
L 135.654545 -216.528 
L 133.118182 -226.9718 
L 130.581818 -229.168867 
L 128.045455 -229.488417 
L 125.509091 -250.401278 
L 122.972727 -248.413441 
L 120.436364 -258.977053 
L 117.9 -263.933083 
L 115.363636 -271.26 
L 112.827273 -279.8235 
L 110.290909 -286.605 
L 107.754545 -301.72135 
L 105.218182 -299.99475 
L 102.681818 -316.8 
L 100.145455 -316.8 
L 97.609091 -316.8 
L 95.072727 -316.8 
L 92.536364 -316.8 
z
" style="stroke: #ff800e; stroke-opacity: 0.3"/>
    </defs>
    <g clip-path="url(#p015e637ba5)">
     <use xlink:href="#m5b0dcefefd" x="0" y="360" style="fill: #ff800e; fill-opacity: 0.3; stroke: #ff800e; stroke-opacity: 0.3"/>
    </g>
   </g>
   <g id="PolyCollection_3">
    <defs>
     <path id="m6969cef8b5" d="M 92.536364 -316.8 
L 92.536364 -303.2172 
L 95.072727 -270.4152 
L 97.609091 -283.9595 
L 100.145455 -291.030667 
L 102.681818 -295.670294 
L 105.218182 -299.053765 
L 107.754545 -298.263757 
L 110.290909 -294.380121 
L 112.827273 -284.131 
L 115.363636 -272.14 
L 117.9 -265.77 
L 120.436364 -261.747692 
L 122.972727 -252.882274 
L 125.509091 -244.556056 
L 128.045455 -244.537425 
L 130.581818 -241.628936 
L 133.118182 -232.584508 
L 135.654545 -224.995015 
L 138.190909 -218.257262 
L 140.727273 -212.523186 
L 143.263636 -208.46684 
L 145.8 -202.3334 
L 148.336364 -195.933248 
L 150.872727 -181.324126 
L 153.409091 -174.24 
L 155.945455 -166.0368 
L 158.481818 -161.757538 
L 161.018182 -159.782997 
L 163.554545 -158.845233 
L 166.090909 -154.313031 
L 168.627273 -140.589335 
L 171.163636 -143.852117 
L 173.7 -134.028647 
L 176.236364 -125.735048 
L 178.772727 -121.683364 
L 181.309091 -117.614958 
L 183.845455 -113.498213 
L 186.381818 -109.689848 
L 188.918182 -106.811593 
L 191.454545 -103.933338 
L 193.990909 -100.497812 
L 196.527273 -96.955632 
L 199.063636 -93.100905 
L 201.6 -88.831399 
L 204.136364 -86.400657 
L 206.672727 -84.364578 
L 209.209091 -82.601431 
L 211.745455 -81.225159 
L 214.281818 -79.848887 
L 216.818182 -78.292375 
L 219.354545 -76.018509 
L 221.890909 -73.860226 
L 224.427273 -72.185947 
L 226.963636 -70.511668 
L 229.5 -65.724666 
L 232.036364 -64.543717 
L 234.572727 -63.454327 
L 237.109091 -62.631983 
L 239.645455 -62.010867 
L 242.181818 -61.38975 
L 244.718182 -60.768633 
L 247.254545 -59.101684 
L 249.790909 -57.76784 
L 252.327273 -57.144268 
L 254.863636 -56.520696 
L 257.4 -55.895847 
L 259.936364 -54.769925 
L 262.472727 -53.040603 
L 265.009091 -52.298581 
L 267.545455 -51.938404 
L 270.081818 -51.578228 
L 272.618182 -51.00351 
L 275.154545 -50.127489 
L 277.690909 -49.33801 
L 280.227273 -48.480836 
L 282.763636 -48.034303 
L 285.3 -47.633601 
L 287.836364 -47.324979 
L 290.372727 -47.027556 
L 292.909091 -46.676811 
L 295.445455 -46.268745 
L 297.981818 -45.540353 
L 300.518182 -45.093942 
L 303.054545 -44.888024 
L 305.590909 -44.718848 
L 308.127273 -44.51434 
L 310.663636 -44.267989 
L 313.2 -44.051884 
L 315.736364 -43.588845 
L 318.272727 -43.356482 
L 320.809091 -42.879427 
L 323.345455 -42.726154 
L 325.881818 -42.448374 
L 328.418182 -42.335059 
L 330.954545 -42.253563 
L 333.490909 -42.199553 
L 336.027273 -42.135694 
L 338.563636 -42.035346 
L 341.1 -41.884027 
L 343.636364 -41.8176 
L 343.636364 -41.8176 
L 343.636364 -41.8176 
L 341.1 -42.393509 
L 338.563636 -42.556782 
L 336.027273 -42.849481 
L 333.490909 -43.379963 
L 330.954545 -43.759755 
L 328.418182 -44.240126 
L 325.881818 -44.400684 
L 323.345455 -45.178239 
L 320.809091 -45.556151 
L 318.272727 -45.990483 
L 315.736364 -46.333082 
L 313.2 -46.640946 
L 310.663636 -46.892284 
L 308.127273 -47.320711 
L 305.590909 -48.642827 
L 303.054545 -49.240541 
L 300.518182 -49.474066 
L 297.981818 -49.707592 
L 295.445455 -49.962006 
L 292.909091 -50.363315 
L 290.372727 -50.764624 
L 287.836364 -51.636497 
L 285.3 -52.876188 
L 282.763636 -54.280135 
L 280.227273 -55.630698 
L 277.690909 -56.681845 
L 275.154545 -58.543894 
L 272.618182 -59.933782 
L 270.081818 -61.03437 
L 267.545455 -62.403094 
L 265.009091 -64.398598 
L 262.472727 -66.541387 
L 259.936364 -68.847676 
L 257.4 -72.195057 
L 254.863636 -75.335459 
L 252.327273 -77.628134 
L 249.790909 -79.614725 
L 247.254545 -81.23293 
L 244.718182 -82.851134 
L 242.181818 -84.109477 
L 239.645455 -85.167646 
L 237.109091 -86.225816 
L 234.572727 -87.293819 
L 232.036364 -91.42843 
L 229.5 -96.833588 
L 226.963636 -98.836291 
L 224.427273 -100.838993 
L 221.890909 -102.841695 
L 219.354545 -107.155067 
L 216.818182 -113.286012 
L 214.281818 -121.2387 
L 211.745455 -128.007864 
L 209.209091 -137.025229 
L 206.672727 -142.387169 
L 204.136364 -153.897053 
L 201.6 -161.333903 
L 199.063636 -166.242233 
L 196.527273 -167.107697 
L 193.990909 -167.97316 
L 191.454545 -168.93059 
L 188.918182 -176.360094 
L 186.381818 -182.794648 
L 183.845455 -204.562147 
L 181.309091 -210.108221 
L 178.772727 -210.232136 
L 176.236364 -210.074921 
L 173.7 -217.813041 
L 171.163636 -228.10296 
L 168.627273 -232.544164 
L 166.090909 -238.592157 
L 163.554545 -239.330039 
L 161.018182 -246.4605 
L 158.481818 -250.28775 
L 155.945455 -251.735213 
L 153.409091 -253.965183 
L 150.872727 -259.354461 
L 148.336364 -265.983684 
L 145.8 -270.826451 
L 143.263636 -279.055452 
L 140.727273 -286.987925 
L 138.190909 -303.261095 
L 135.654545 -307.608064 
L 133.118182 -310.032215 
L 130.581818 -316.8 
L 128.045455 -316.8 
L 125.509091 -316.8 
L 122.972727 -316.8 
L 120.436364 -316.8 
L 117.9 -316.8 
L 115.363636 -316.8 
L 112.827273 -316.8 
L 110.290909 -316.8 
L 107.754545 -316.8 
L 105.218182 -316.8 
L 102.681818 -316.8 
L 100.145455 -316.8 
L 97.609091 -316.8 
L 95.072727 -316.8 
L 92.536364 -316.8 
z
" style="stroke: #ababab; stroke-opacity: 0.3"/>
    </defs>
    <g clip-path="url(#p015e637ba5)">
     <use xlink:href="#m6969cef8b5" x="0" y="360" style="fill: #ababab; fill-opacity: 0.3; stroke: #ababab; stroke-opacity: 0.3"/>
    </g>
   </g>
   <g id="PolyCollection_4">
    <defs>
     <path id="m18c4d31a14" d="M 92.536364 -316.8 
L 92.536364 -316.8 
L 95.072727 -316.8 
L 97.609091 -316.8 
L 100.145455 -316.8 
L 102.681818 -316.8 
L 105.218182 -316.8 
L 107.754545 -316.8 
L 110.290909 -316.8 
L 112.827273 -316.8 
L 115.363636 -316.8 
L 117.9 -316.8 
L 120.436364 -316.8 
L 122.972727 -316.8 
L 125.509091 -316.8 
L 128.045455 -316.8 
L 130.581818 -316.8 
L 133.118182 -316.8 
L 135.654545 -316.8 
L 138.190909 -316.8 
L 140.727273 -316.8 
L 143.263636 -316.8 
L 145.8 -316.8 
L 148.336364 -316.8 
L 150.872727 -316.8 
L 153.409091 -316.705068 
L 155.945455 -315.759551 
L 158.481818 -314.814033 
L 161.018182 -313.868515 
L 163.554545 -313.012233 
L 166.090909 -313.124795 
L 168.627273 -313.237356 
L 171.163636 -313.349918 
L 173.7 -313.462479 
L 176.236364 -313.06691 
L 178.772727 -312.417276 
L 181.309091 -311.767641 
L 183.845455 -311.118006 
L 186.381818 -310.468372 
L 188.918182 -309.818737 
L 191.454545 -308.187307 
L 193.990909 -306.279334 
L 196.527273 -304.371362 
L 199.063636 -302.46339 
L 201.6 -300.555418 
L 204.136364 -298.647446 
L 206.672727 -296.739474 
L 209.209091 -294.831502 
L 211.745455 -292.923529 
L 214.281818 -289.306029 
L 216.818182 -283.183479 
L 219.354545 -277.060928 
L 221.890909 -272.725271 
L 224.427273 -269.609049 
L 226.963636 -266.492827 
L 229.5 -263.376605 
L 232.036364 -260.260383 
L 234.572727 -257.144161 
L 237.109091 -254.027939 
L 239.645455 -250.911717 
L 242.181818 -247.795495 
L 244.718182 -243.670962 
L 247.254545 -237.733733 
L 249.790909 -231.796505 
L 252.327273 -225.859276 
L 254.863636 -219.922048 
L 257.4 -213.984819 
L 259.936364 -208.45139 
L 262.472727 -203.725561 
L 265.009091 -198.999732 
L 267.545455 -194.273903 
L 270.081818 -189.548074 
L 272.618182 -184.822245 
L 275.154545 -180.096416 
L 277.690909 -175.370587 
L 280.227273 -170.644758 
L 282.763636 -165.556694 
L 285.3 -160.428202 
L 287.836364 -150.824712 
L 290.372727 -140.879873 
L 292.909091 -130.935034 
L 295.445455 -123.441855 
L 297.981818 -117.109226 
L 300.518182 -110.776597 
L 303.054545 -104.443967 
L 305.590909 -98.111338 
L 308.127273 -92.905208 
L 310.663636 -89.033089 
L 313.2 -85.16097 
L 315.736364 -81.288851 
L 318.272727 -77.416732 
L 320.809091 -73.65051 
L 323.345455 -68.760477 
L 325.881818 -64.132274 
L 328.418182 -60.386023 
L 330.954545 -56.639773 
L 333.490909 -54.094514 
L 336.027273 -51.015623 
L 338.563636 -48.821816 
L 341.1 -44.937067 
L 341.1 -53.505111 
L 341.1 -53.505111 
L 338.563636 -63.240682 
L 336.027273 -68.93645 
L 333.490909 -74.59446 
L 330.954545 -81.41047 
L 328.418182 -89.057047 
L 325.881818 -96.703623 
L 323.345455 -104.842515 
L 320.809091 -113.127562 
L 318.272727 -121.41261 
L 315.736364 -129.714437 
L 313.2 -138.106609 
L 310.663636 -146.498782 
L 308.127273 -154.890954 
L 305.590909 -163.283127 
L 303.054545 -171.675299 
L 300.518182 -181.494806 
L 297.981818 -192.559207 
L 295.445455 -203.623607 
L 292.909091 -214.688007 
L 290.372727 -225.752408 
L 287.836364 -233.141891 
L 285.3 -239.065536 
L 282.763636 -244.989182 
L 280.227273 -250.912827 
L 277.690909 -256.836473 
L 275.154545 -262.760118 
L 272.618182 -265.536832 
L 270.081818 -266.904745 
L 267.545455 -268.272658 
L 265.009091 -269.640571 
L 262.472727 -271.008484 
L 259.936364 -272.376397 
L 257.4 -273.74431 
L 254.863636 -275.112223 
L 252.327273 -276.480135 
L 249.790909 -277.848048 
L 247.254545 -279.215961 
L 244.718182 -283.643041 
L 242.181818 -287.10017 
L 239.645455 -290.722561 
L 237.109091 -294.782418 
L 234.572727 -298.842275 
L 232.036364 -302.902131 
L 229.5 -305.8275 
L 226.963636 -307.197 
L 224.427273 -308.5665 
L 221.890909 -309.936 
L 219.354545 -311.3055 
L 216.818182 -312.675 
L 214.281818 -314.0445 
L 211.745455 -315.414 
L 209.209091 -316.7835 
L 206.672727 -316.8 
L 204.136364 -316.8 
L 201.6 -316.8 
L 199.063636 -316.8 
L 196.527273 -316.8 
L 193.990909 -316.8 
L 191.454545 -316.8 
L 188.918182 -316.8 
L 186.381818 -316.8 
L 183.845455 -316.8 
L 181.309091 -316.8 
L 178.772727 -316.8 
L 176.236364 -316.8 
L 173.7 -316.8 
L 171.163636 -316.8 
L 168.627273 -316.8 
L 166.090909 -316.8 
L 163.554545 -316.8 
L 161.018182 -316.8 
L 158.481818 -316.8 
L 155.945455 -316.8 
L 153.409091 -316.8 
L 150.872727 -316.8 
L 148.336364 -316.8 
L 145.8 -316.8 
L 143.263636 -316.8 
L 140.727273 -316.8 
L 138.190909 -316.8 
L 135.654545 -316.8 
L 133.118182 -316.8 
L 130.581818 -316.8 
L 128.045455 -316.8 
L 125.509091 -316.8 
L 122.972727 -316.8 
L 120.436364 -316.8 
L 117.9 -316.8 
L 115.363636 -316.8 
L 112.827273 -316.8 
L 110.290909 -316.8 
L 107.754545 -316.8 
L 105.218182 -316.8 
L 102.681818 -316.8 
L 100.145455 -316.8 
L 97.609091 -316.8 
L 95.072727 -316.8 
L 92.536364 -316.8 
z
" style="stroke: #595959; stroke-opacity: 0.3"/>
    </defs>
    <g clip-path="url(#p015e637ba5)">
     <use xlink:href="#m18c4d31a14" x="0" y="360" style="fill: #595959; fill-opacity: 0.3; stroke: #595959; stroke-opacity: 0.3"/>
    </g>
   </g>
   <g id="matplotlib.axis_1">
    <g id="xtick_1">
     <g id="line2d_1">
      <defs>
       <path id="m941cbe3af6" d="M 0 0 
L 0 3.5 
" style="stroke: #000000; stroke-width: 0.8"/>
      </defs>
      <g>
       <use xlink:href="#m941cbe3af6" x="90" y="320.4" style="stroke: #000000; stroke-width: 0.8"/>
      </g>
     </g>
     <g id="text_1">
      <!-- 0.0 -->
      <g transform="translate(82.048438 334.998438) scale(0.1 -0.1)">
       <defs>
        <path id="DejaVuSans-30" d="M 2034 4250 
Q 1547 4250 1301 3770 
Q 1056 3291 1056 2328 
Q 1056 1369 1301 889 
Q 1547 409 2034 409 
Q 2525 409 2770 889 
Q 3016 1369 3016 2328 
Q 3016 3291 2770 3770 
Q 2525 4250 2034 4250 
z
M 2034 4750 
Q 2819 4750 3233 4129 
Q 3647 3509 3647 2328 
Q 3647 1150 3233 529 
Q 2819 -91 2034 -91 
Q 1250 -91 836 529 
Q 422 1150 422 2328 
Q 422 3509 836 4129 
Q 1250 4750 2034 4750 
z
" transform="scale(0.015625)"/>
        <path id="DejaVuSans-2e" d="M 684 794 
L 1344 794 
L 1344 0 
L 684 0 
L 684 794 
z
" transform="scale(0.015625)"/>
       </defs>
       <use xlink:href="#DejaVuSans-30"/>
       <use xlink:href="#DejaVuSans-2e" x="63.623047"/>
       <use xlink:href="#DejaVuSans-30" x="95.410156"/>
      </g>
     </g>
    </g>
    <g id="xtick_2">
     <g id="line2d_2">
      <g>
       <use xlink:href="#m941cbe3af6" x="140.727273" y="320.4" style="stroke: #000000; stroke-width: 0.8"/>
      </g>
     </g>
     <g id="text_2">
      <!-- 0.2 -->
      <g transform="translate(132.77571 334.998438) scale(0.1 -0.1)">
       <defs>
        <path id="DejaVuSans-32" d="M 1228 531 
L 3431 531 
L 3431 0 
L 469 0 
L 469 531 
Q 828 903 1448 1529 
Q 2069 2156 2228 2338 
Q 2531 2678 2651 2914 
Q 2772 3150 2772 3378 
Q 2772 3750 2511 3984 
Q 2250 4219 1831 4219 
Q 1534 4219 1204 4116 
Q 875 4013 500 3803 
L 500 4441 
Q 881 4594 1212 4672 
Q 1544 4750 1819 4750 
Q 2544 4750 2975 4387 
Q 3406 4025 3406 3419 
Q 3406 3131 3298 2873 
Q 3191 2616 2906 2266 
Q 2828 2175 2409 1742 
Q 1991 1309 1228 531 
z
" transform="scale(0.015625)"/>
       </defs>
       <use xlink:href="#DejaVuSans-30"/>
       <use xlink:href="#DejaVuSans-2e" x="63.623047"/>
       <use xlink:href="#DejaVuSans-32" x="95.410156"/>
      </g>
     </g>
    </g>
    <g id="xtick_3">
     <g id="line2d_3">
      <g>
       <use xlink:href="#m941cbe3af6" x="191.454545" y="320.4" style="stroke: #000000; stroke-width: 0.8"/>
      </g>
     </g>
     <g id="text_3">
      <!-- 0.4 -->
      <g transform="translate(183.502983 334.998438) scale(0.1 -0.1)">
       <defs>
        <path id="DejaVuSans-34" d="M 2419 4116 
L 825 1625 
L 2419 1625 
L 2419 4116 
z
M 2253 4666 
L 3047 4666 
L 3047 1625 
L 3713 1625 
L 3713 1100 
L 3047 1100 
L 3047 0 
L 2419 0 
L 2419 1100 
L 313 1100 
L 313 1709 
L 2253 4666 
z
" transform="scale(0.015625)"/>
       </defs>
       <use xlink:href="#DejaVuSans-30"/>
       <use xlink:href="#DejaVuSans-2e" x="63.623047"/>
       <use xlink:href="#DejaVuSans-34" x="95.410156"/>
      </g>
     </g>
    </g>
    <g id="xtick_4">
     <g id="line2d_4">
      <g>
       <use xlink:href="#m941cbe3af6" x="242.181818" y="320.4" style="stroke: #000000; stroke-width: 0.8"/>
      </g>
     </g>
     <g id="text_4">
      <!-- 0.6 -->
      <g transform="translate(234.230256 334.998438) scale(0.1 -0.1)">
       <defs>
        <path id="DejaVuSans-36" d="M 2113 2584 
Q 1688 2584 1439 2293 
Q 1191 2003 1191 1497 
Q 1191 994 1439 701 
Q 1688 409 2113 409 
Q 2538 409 2786 701 
Q 3034 994 3034 1497 
Q 3034 2003 2786 2293 
Q 2538 2584 2113 2584 
z
M 3366 4563 
L 3366 3988 
Q 3128 4100 2886 4159 
Q 2644 4219 2406 4219 
Q 1781 4219 1451 3797 
Q 1122 3375 1075 2522 
Q 1259 2794 1537 2939 
Q 1816 3084 2150 3084 
Q 2853 3084 3261 2657 
Q 3669 2231 3669 1497 
Q 3669 778 3244 343 
Q 2819 -91 2113 -91 
Q 1303 -91 875 529 
Q 447 1150 447 2328 
Q 447 3434 972 4092 
Q 1497 4750 2381 4750 
Q 2619 4750 2861 4703 
Q 3103 4656 3366 4563 
z
" transform="scale(0.015625)"/>
       </defs>
       <use xlink:href="#DejaVuSans-30"/>
       <use xlink:href="#DejaVuSans-2e" x="63.623047"/>
       <use xlink:href="#DejaVuSans-36" x="95.410156"/>
      </g>
     </g>
    </g>
    <g id="xtick_5">
     <g id="line2d_5">
      <g>
       <use xlink:href="#m941cbe3af6" x="292.909091" y="320.4" style="stroke: #000000; stroke-width: 0.8"/>
      </g>
     </g>
     <g id="text_5">
      <!-- 0.8 -->
      <g transform="translate(284.957528 334.998438) scale(0.1 -0.1)">
       <defs>
        <path id="DejaVuSans-38" d="M 2034 2216 
Q 1584 2216 1326 1975 
Q 1069 1734 1069 1313 
Q 1069 891 1326 650 
Q 1584 409 2034 409 
Q 2484 409 2743 651 
Q 3003 894 3003 1313 
Q 3003 1734 2745 1975 
Q 2488 2216 2034 2216 
z
M 1403 2484 
Q 997 2584 770 2862 
Q 544 3141 544 3541 
Q 544 4100 942 4425 
Q 1341 4750 2034 4750 
Q 2731 4750 3128 4425 
Q 3525 4100 3525 3541 
Q 3525 3141 3298 2862 
Q 3072 2584 2669 2484 
Q 3125 2378 3379 2068 
Q 3634 1759 3634 1313 
Q 3634 634 3220 271 
Q 2806 -91 2034 -91 
Q 1263 -91 848 271 
Q 434 634 434 1313 
Q 434 1759 690 2068 
Q 947 2378 1403 2484 
z
M 1172 3481 
Q 1172 3119 1398 2916 
Q 1625 2713 2034 2713 
Q 2441 2713 2670 2916 
Q 2900 3119 2900 3481 
Q 2900 3844 2670 4047 
Q 2441 4250 2034 4250 
Q 1625 4250 1398 4047 
Q 1172 3844 1172 3481 
z
" transform="scale(0.015625)"/>
       </defs>
       <use xlink:href="#DejaVuSans-30"/>
       <use xlink:href="#DejaVuSans-2e" x="63.623047"/>
       <use xlink:href="#DejaVuSans-38" x="95.410156"/>
      </g>
     </g>
    </g>
    <g id="xtick_6">
     <g id="line2d_6">
      <g>
       <use xlink:href="#m941cbe3af6" x="343.636364" y="320.4" style="stroke: #000000; stroke-width: 0.8"/>
      </g>
     </g>
     <g id="text_6">
      <!-- 1.0 -->
      <g transform="translate(335.684801 334.998438) scale(0.1 -0.1)">
       <defs>
        <path id="DejaVuSans-31" d="M 794 531 
L 1825 531 
L 1825 4091 
L 703 3866 
L 703 4441 
L 1819 4666 
L 2450 4666 
L 2450 531 
L 3481 531 
L 3481 0 
L 794 0 
L 794 531 
z
" transform="scale(0.015625)"/>
       </defs>
       <use xlink:href="#DejaVuSans-31"/>
       <use xlink:href="#DejaVuSans-2e" x="63.623047"/>
       <use xlink:href="#DejaVuSans-30" x="95.410156"/>
      </g>
     </g>
    </g>
    <g id="text_7">
     <!-- Recall -->
     <g transform="translate(201.900994 348.676562) scale(0.1 -0.1)">
      <defs>
       <path id="DejaVuSans-52" d="M 2841 2188 
Q 3044 2119 3236 1894 
Q 3428 1669 3622 1275 
L 4263 0 
L 3584 0 
L 2988 1197 
Q 2756 1666 2539 1819 
Q 2322 1972 1947 1972 
L 1259 1972 
L 1259 0 
L 628 0 
L 628 4666 
L 2053 4666 
Q 2853 4666 3247 4331 
Q 3641 3997 3641 3322 
Q 3641 2881 3436 2590 
Q 3231 2300 2841 2188 
z
M 1259 4147 
L 1259 2491 
L 2053 2491 
Q 2509 2491 2742 2702 
Q 2975 2913 2975 3322 
Q 2975 3731 2742 3939 
Q 2509 4147 2053 4147 
L 1259 4147 
z
" transform="scale(0.015625)"/>
       <path id="DejaVuSans-65" d="M 3597 1894 
L 3597 1613 
L 953 1613 
Q 991 1019 1311 708 
Q 1631 397 2203 397 
Q 2534 397 2845 478 
Q 3156 559 3463 722 
L 3463 178 
Q 3153 47 2828 -22 
Q 2503 -91 2169 -91 
Q 1331 -91 842 396 
Q 353 884 353 1716 
Q 353 2575 817 3079 
Q 1281 3584 2069 3584 
Q 2775 3584 3186 3129 
Q 3597 2675 3597 1894 
z
M 3022 2063 
Q 3016 2534 2758 2815 
Q 2500 3097 2075 3097 
Q 1594 3097 1305 2825 
Q 1016 2553 972 2059 
L 3022 2063 
z
" transform="scale(0.015625)"/>
       <path id="DejaVuSans-63" d="M 3122 3366 
L 3122 2828 
Q 2878 2963 2633 3030 
Q 2388 3097 2138 3097 
Q 1578 3097 1268 2742 
Q 959 2388 959 1747 
Q 959 1106 1268 751 
Q 1578 397 2138 397 
Q 2388 397 2633 464 
Q 2878 531 3122 666 
L 3122 134 
Q 2881 22 2623 -34 
Q 2366 -91 2075 -91 
Q 1284 -91 818 406 
Q 353 903 353 1747 
Q 353 2603 823 3093 
Q 1294 3584 2113 3584 
Q 2378 3584 2631 3529 
Q 2884 3475 3122 3366 
z
" transform="scale(0.015625)"/>
       <path id="DejaVuSans-61" d="M 2194 1759 
Q 1497 1759 1228 1600 
Q 959 1441 959 1056 
Q 959 750 1161 570 
Q 1363 391 1709 391 
Q 2188 391 2477 730 
Q 2766 1069 2766 1631 
L 2766 1759 
L 2194 1759 
z
M 3341 1997 
L 3341 0 
L 2766 0 
L 2766 531 
Q 2569 213 2275 61 
Q 1981 -91 1556 -91 
Q 1019 -91 701 211 
Q 384 513 384 1019 
Q 384 1609 779 1909 
Q 1175 2209 1959 2209 
L 2766 2209 
L 2766 2266 
Q 2766 2663 2505 2880 
Q 2244 3097 1772 3097 
Q 1472 3097 1187 3025 
Q 903 2953 641 2809 
L 641 3341 
Q 956 3463 1253 3523 
Q 1550 3584 1831 3584 
Q 2591 3584 2966 3190 
Q 3341 2797 3341 1997 
z
" transform="scale(0.015625)"/>
       <path id="DejaVuSans-6c" d="M 603 4863 
L 1178 4863 
L 1178 0 
L 603 0 
L 603 4863 
z
" transform="scale(0.015625)"/>
      </defs>
      <use xlink:href="#DejaVuSans-52"/>
      <use xlink:href="#DejaVuSans-65" x="64.982422"/>
      <use xlink:href="#DejaVuSans-63" x="126.505859"/>
      <use xlink:href="#DejaVuSans-61" x="181.486328"/>
      <use xlink:href="#DejaVuSans-6c" x="242.765625"/>
      <use xlink:href="#DejaVuSans-6c" x="270.548828"/>
     </g>
    </g>
   </g>
   <g id="matplotlib.axis_2">
    <g id="ytick_1">
     <g id="line2d_7">
      <defs>
       <path id="m465d3c59b4" d="M 0 0 
L -3.5 0 
" style="stroke: #000000; stroke-width: 0.8"/>
      </defs>
      <g>
       <use xlink:href="#m465d3c59b4" x="90" y="320.4" style="stroke: #000000; stroke-width: 0.8"/>
      </g>
     </g>
     <g id="text_8">
      <!-- 0.0 -->
      <g transform="translate(67.096875 324.199219) scale(0.1 -0.1)">
       <use xlink:href="#DejaVuSans-30"/>
       <use xlink:href="#DejaVuSans-2e" x="63.623047"/>
       <use xlink:href="#DejaVuSans-30" x="95.410156"/>
      </g>
     </g>
    </g>
    <g id="ytick_2">
     <g id="line2d_8">
      <g>
       <use xlink:href="#m465d3c59b4" x="90" y="264.96" style="stroke: #000000; stroke-width: 0.8"/>
      </g>
     </g>
     <g id="text_9">
      <!-- 0.2 -->
      <g transform="translate(67.096875 268.759219) scale(0.1 -0.1)">
       <use xlink:href="#DejaVuSans-30"/>
       <use xlink:href="#DejaVuSans-2e" x="63.623047"/>
       <use xlink:href="#DejaVuSans-32" x="95.410156"/>
      </g>
     </g>
    </g>
    <g id="ytick_3">
     <g id="line2d_9">
      <g>
       <use xlink:href="#m465d3c59b4" x="90" y="209.52" style="stroke: #000000; stroke-width: 0.8"/>
      </g>
     </g>
     <g id="text_10">
      <!-- 0.4 -->
      <g transform="translate(67.096875 213.319219) scale(0.1 -0.1)">
       <use xlink:href="#DejaVuSans-30"/>
       <use xlink:href="#DejaVuSans-2e" x="63.623047"/>
       <use xlink:href="#DejaVuSans-34" x="95.410156"/>
      </g>
     </g>
    </g>
    <g id="ytick_4">
     <g id="line2d_10">
      <g>
       <use xlink:href="#m465d3c59b4" x="90" y="154.08" style="stroke: #000000; stroke-width: 0.8"/>
      </g>
     </g>
     <g id="text_11">
      <!-- 0.6 -->
      <g transform="translate(67.096875 157.879219) scale(0.1 -0.1)">
       <use xlink:href="#DejaVuSans-30"/>
       <use xlink:href="#DejaVuSans-2e" x="63.623047"/>
       <use xlink:href="#DejaVuSans-36" x="95.410156"/>
      </g>
     </g>
    </g>
    <g id="ytick_5">
     <g id="line2d_11">
      <g>
       <use xlink:href="#m465d3c59b4" x="90" y="98.64" style="stroke: #000000; stroke-width: 0.8"/>
      </g>
     </g>
     <g id="text_12">
      <!-- 0.8 -->
      <g transform="translate(67.096875 102.439219) scale(0.1 -0.1)">
       <use xlink:href="#DejaVuSans-30"/>
       <use xlink:href="#DejaVuSans-2e" x="63.623047"/>
       <use xlink:href="#DejaVuSans-38" x="95.410156"/>
      </g>
     </g>
    </g>
    <g id="ytick_6">
     <g id="line2d_12">
      <g>
       <use xlink:href="#m465d3c59b4" x="90" y="43.2" style="stroke: #000000; stroke-width: 0.8"/>
      </g>
     </g>
     <g id="text_13">
      <!-- 1.0 -->
      <g transform="translate(67.096875 46.999219) scale(0.1 -0.1)">
       <use xlink:href="#DejaVuSans-31"/>
       <use xlink:href="#DejaVuSans-2e" x="63.623047"/>
       <use xlink:href="#DejaVuSans-30" x="95.410156"/>
      </g>
     </g>
    </g>
    <g id="text_14">
     <!-- Precision -->
     <g transform="translate(61.017187 204.107031) rotate(-90) scale(0.1 -0.1)">
      <defs>
       <path id="DejaVuSans-50" d="M 1259 4147 
L 1259 2394 
L 2053 2394 
Q 2494 2394 2734 2622 
Q 2975 2850 2975 3272 
Q 2975 3691 2734 3919 
Q 2494 4147 2053 4147 
L 1259 4147 
z
M 628 4666 
L 2053 4666 
Q 2838 4666 3239 4311 
Q 3641 3956 3641 3272 
Q 3641 2581 3239 2228 
Q 2838 1875 2053 1875 
L 1259 1875 
L 1259 0 
L 628 0 
L 628 4666 
z
" transform="scale(0.015625)"/>
       <path id="DejaVuSans-72" d="M 2631 2963 
Q 2534 3019 2420 3045 
Q 2306 3072 2169 3072 
Q 1681 3072 1420 2755 
Q 1159 2438 1159 1844 
L 1159 0 
L 581 0 
L 581 3500 
L 1159 3500 
L 1159 2956 
Q 1341 3275 1631 3429 
Q 1922 3584 2338 3584 
Q 2397 3584 2469 3576 
Q 2541 3569 2628 3553 
L 2631 2963 
z
" transform="scale(0.015625)"/>
       <path id="DejaVuSans-69" d="M 603 3500 
L 1178 3500 
L 1178 0 
L 603 0 
L 603 3500 
z
M 603 4863 
L 1178 4863 
L 1178 4134 
L 603 4134 
L 603 4863 
z
" transform="scale(0.015625)"/>
       <path id="DejaVuSans-73" d="M 2834 3397 
L 2834 2853 
Q 2591 2978 2328 3040 
Q 2066 3103 1784 3103 
Q 1356 3103 1142 2972 
Q 928 2841 928 2578 
Q 928 2378 1081 2264 
Q 1234 2150 1697 2047 
L 1894 2003 
Q 2506 1872 2764 1633 
Q 3022 1394 3022 966 
Q 3022 478 2636 193 
Q 2250 -91 1575 -91 
Q 1294 -91 989 -36 
Q 684 19 347 128 
L 347 722 
Q 666 556 975 473 
Q 1284 391 1588 391 
Q 1994 391 2212 530 
Q 2431 669 2431 922 
Q 2431 1156 2273 1281 
Q 2116 1406 1581 1522 
L 1381 1569 
Q 847 1681 609 1914 
Q 372 2147 372 2553 
Q 372 3047 722 3315 
Q 1072 3584 1716 3584 
Q 2034 3584 2315 3537 
Q 2597 3491 2834 3397 
z
" transform="scale(0.015625)"/>
       <path id="DejaVuSans-6f" d="M 1959 3097 
Q 1497 3097 1228 2736 
Q 959 2375 959 1747 
Q 959 1119 1226 758 
Q 1494 397 1959 397 
Q 2419 397 2687 759 
Q 2956 1122 2956 1747 
Q 2956 2369 2687 2733 
Q 2419 3097 1959 3097 
z
M 1959 3584 
Q 2709 3584 3137 3096 
Q 3566 2609 3566 1747 
Q 3566 888 3137 398 
Q 2709 -91 1959 -91 
Q 1206 -91 779 398 
Q 353 888 353 1747 
Q 353 2609 779 3096 
Q 1206 3584 1959 3584 
z
" transform="scale(0.015625)"/>
       <path id="DejaVuSans-6e" d="M 3513 2113 
L 3513 0 
L 2938 0 
L 2938 2094 
Q 2938 2591 2744 2837 
Q 2550 3084 2163 3084 
Q 1697 3084 1428 2787 
Q 1159 2491 1159 1978 
L 1159 0 
L 581 0 
L 581 3500 
L 1159 3500 
L 1159 2956 
Q 1366 3272 1645 3428 
Q 1925 3584 2291 3584 
Q 2894 3584 3203 3211 
Q 3513 2838 3513 2113 
z
" transform="scale(0.015625)"/>
      </defs>
      <use xlink:href="#DejaVuSans-50"/>
      <use xlink:href="#DejaVuSans-72" x="58.552734"/>
      <use xlink:href="#DejaVuSans-65" x="97.416016"/>
      <use xlink:href="#DejaVuSans-63" x="158.939453"/>
      <use xlink:href="#DejaVuSans-69" x="213.919922"/>
      <use xlink:href="#DejaVuSans-73" x="241.703125"/>
      <use xlink:href="#DejaVuSans-69" x="293.802734"/>
      <use xlink:href="#DejaVuSans-6f" x="321.585938"/>
      <use xlink:href="#DejaVuSans-6e" x="382.767578"/>
     </g>
    </g>
   </g>
   <g id="line2d_13">
    <path clip-path="url(#p015e637ba5)" style="fill: none; stroke: #006ba4; stroke-width: 1.5; stroke-linecap: square"/>
   </g>
   <g id="line2d_14">
    <path d="M 92.536364 43.2 
L 95.072727 43.2 
L 97.609091 43.2 
L 100.145455 43.2 
L 102.681818 43.2 
L 105.218182 43.2 
L 107.754545 43.2 
L 110.290909 43.2 
L 112.827273 43.2 
L 115.363636 43.2 
L 117.9 46.927862 
L 120.436364 52.214069 
L 122.972727 51.518211 
L 125.509091 50.967789 
L 128.045455 50.435361 
L 130.581818 50.012945 
L 133.118182 49.601249 
L 135.654545 49.259721 
L 138.190909 48.943348 
L 140.727273 48.661867 
L 143.263636 48.406227 
L 145.8 48.173369 
L 148.336364 47.960664 
L 150.872727 47.762747 
L 153.409091 47.584503 
L 155.945455 47.420421 
L 158.481818 47.478758 
L 161.018182 49.668745 
L 163.554545 50.675178 
L 166.090909 50.429589 
L 168.627273 50.216651 
L 171.163636 50.008186 
L 173.7 49.799721 
L 176.236364 49.597607 
L 178.772727 50.459072 
L 181.309091 51.485946 
L 183.845455 53.606227 
L 186.381818 54.907469 
L 188.918182 54.87408 
L 191.454545 57.145928 
L 193.990909 59.098776 
L 196.527273 59.909399 
L 199.063636 60.213287 
L 201.6 60.049077 
L 204.136364 63.912567 
L 206.672727 69.205278 
L 209.209091 76.616875 
L 211.745455 82.6919 
L 214.281818 89.04467 
L 216.818182 94.267486 
L 219.354545 100.260847 
L 221.890909 106.375788 
L 224.427273 113.587686 
L 226.963636 119.947208 
L 229.5 126.296336 
L 232.036364 132.446576 
L 234.572727 137.67018 
L 237.109091 142.893783 
L 239.645455 145.69656 
L 242.181818 147.764217 
L 244.718182 149.831874 
L 247.254545 156.718944 
L 249.790909 166.173914 
L 252.327273 173.192206 
L 254.863636 180.440963 
L 257.4 189.842819 
L 259.936364 205.185585 
L 262.472727 210.80341 
L 265.009091 225.307484 
L 267.545455 230.251224 
L 270.081818 232.882657 
L 272.618182 235.514091 
L 275.154545 241.135959 
L 277.690909 247.947143 
L 280.227273 250.889175 
L 282.763636 253.831207 
L 285.3 264.524443 
L 287.836364 266.671502 
L 290.372727 268.818561 
L 292.909091 270.927074 
L 295.445455 272.594235 
L 297.981818 278.18214 
L 300.518182 285.189778 
L 303.054545 287.389599 
L 305.590909 289.300443 
L 308.127273 291.064172 
L 310.663636 292.672783 
L 313.2 294.393555 
L 315.736364 296.167872 
L 318.272727 298.577706 
L 320.809091 304.408108 
L 323.345455 307.374184 
L 325.881818 310.034288 
L 328.418182 311.069333 
L 330.954545 311.967447 
L 333.490909 313.356796 
L 336.027273 315.158755 
L 338.563636 315.758498 
L 341.1 317.387619 
L 343.636364 318.1824 
" clip-path="url(#p015e637ba5)" style="fill: none; stroke: #006ba4; stroke-opacity: 0.3; stroke-width: 1.5; stroke-linecap: square"/>
   </g>
   <g id="line2d_15">
    <path d="M 92.536364 43.2 
L 95.072727 43.2 
L 97.609091 43.2 
L 100.145455 43.2 
L 102.681818 43.2 
L 105.218182 43.2 
L 107.754545 43.2 
L 110.290909 43.2 
L 112.827273 43.2 
L 115.363636 43.2 
L 117.9 43.2 
L 120.436364 43.2 
L 122.972727 43.2 
L 125.509091 43.2 
L 128.045455 43.2 
L 130.581818 43.2 
L 133.118182 43.2 
L 135.654545 43.2 
L 138.190909 43.2 
L 140.727273 43.2 
L 143.263636 43.2 
L 145.8 43.2 
L 148.336364 43.2 
L 150.872727 43.2 
L 153.409091 43.2 
L 155.945455 43.2 
L 158.481818 43.2 
L 161.018182 43.2 
L 163.554545 43.2 
L 166.090909 43.2 
L 168.627273 43.2 
L 171.163636 43.2 
L 173.7 43.2 
L 176.236364 43.2 
L 178.772727 43.2 
L 181.309091 43.2 
L 183.845455 43.2 
L 186.381818 44.1072 
L 188.918182 45.5016 
L 191.454545 45.956505 
L 193.990909 45.888933 
L 196.527273 45.825655 
L 199.063636 45.831972 
L 201.6 48.154961 
L 204.136364 50.472598 
L 206.672727 52.529015 
L 209.209091 52.393843 
L 211.745455 54.06624 
L 214.281818 56.565566 
L 216.818182 58.149678 
L 219.354545 58.834253 
L 221.890909 59.55272 
L 224.427273 60.41311 
L 226.963636 62.262808 
L 229.5 64.810444 
L 232.036364 67.876249 
L 234.572727 73.356251 
L 237.109091 85.106252 
L 239.645455 92.686603 
L 242.181818 98.11118 
L 244.718182 105.896507 
L 247.254545 110.712259 
L 249.790909 117.621377 
L 252.327273 129.432107 
L 254.863636 137.396394 
L 257.4 145.106387 
L 259.936364 148.751568 
L 262.472727 153.432516 
L 265.009091 158.247069 
L 267.545455 163.375677 
L 270.081818 168.791766 
L 272.618182 174.313231 
L 275.154545 180.666414 
L 277.690909 187.019598 
L 280.227273 191.995355 
L 282.763636 197.702664 
L 285.3 202.867635 
L 287.836364 216.785057 
L 290.372727 228.207153 
L 292.909091 233.701439 
L 295.445455 239.585512 
L 297.981818 248.596104 
L 300.518182 253.08745 
L 303.054545 257.552856 
L 305.590909 261.640502 
L 308.127273 265.728149 
L 310.663636 271.409677 
L 313.2 276.578557 
L 315.736364 280.091701 
L 318.272727 283.576312 
L 320.809091 287.024866 
L 323.345455 290.294038 
L 325.881818 293.252739 
L 328.418182 295.284745 
L 330.954545 297.920259 
L 333.490909 304.692402 
L 336.027273 311.011507 
L 338.563636 312.084474 
L 341.1 313.145796 
L 343.636364 318.1824 
" clip-path="url(#p015e637ba5)" style="fill: none; stroke: #006ba4; stroke-opacity: 0.3; stroke-width: 1.5; stroke-linecap: square"/>
   </g>
   <g id="line2d_16">
    <path d="M 92.536364 43.2 
L 95.072727 43.2 
L 97.609091 43.2 
L 100.145455 43.2 
L 102.681818 43.2 
L 105.218182 43.2 
L 107.754545 43.2 
L 110.290909 43.2 
L 112.827273 43.2 
L 115.363636 43.2 
L 117.9 45.063931 
L 120.436364 47.707034 
L 122.972727 47.359105 
L 125.509091 47.083895 
L 128.045455 46.817681 
L 130.581818 46.606472 
L 133.118182 46.400624 
L 135.654545 46.22986 
L 138.190909 46.071674 
L 140.727273 45.930933 
L 143.263636 45.803113 
L 145.8 45.686685 
L 148.336364 45.580332 
L 150.872727 45.481374 
L 153.409091 45.392252 
L 155.945455 45.31021 
L 158.481818 45.339379 
L 161.018182 46.434372 
L 163.554545 46.937589 
L 166.090909 46.814795 
L 168.627273 46.708326 
L 171.163636 46.604093 
L 173.7 46.49986 
L 176.236364 46.398804 
L 178.772727 46.829536 
L 181.309091 47.342973 
L 183.845455 48.403113 
L 186.381818 49.507335 
L 188.918182 50.18784 
L 191.454545 51.551216 
L 193.990909 52.493855 
L 196.527273 52.867527 
L 199.063636 53.02263 
L 201.6 54.102019 
L 204.136364 57.192583 
L 206.672727 60.867147 
L 209.209091 64.505359 
L 211.745455 68.37907 
L 214.281818 72.805118 
L 216.818182 76.208582 
L 219.354545 79.54755 
L 221.890909 82.964254 
L 224.427273 87.000398 
L 226.963636 91.105008 
L 229.5 95.55339 
L 232.036364 100.161412 
L 234.572727 105.513215 
L 237.109091 114.000018 
L 239.645455 119.191581 
L 242.181818 122.937698 
L 244.718182 127.86419 
L 247.254545 133.715601 
L 249.790909 141.897646 
L 252.327273 151.312157 
L 254.863636 158.918678 
L 257.4 167.474603 
L 259.936364 176.968577 
L 262.472727 182.117963 
L 265.009091 191.777277 
L 267.545455 196.81345 
L 270.081818 200.837212 
L 272.618182 204.913661 
L 275.154545 210.901187 
L 277.690909 217.48337 
L 280.227273 221.442265 
L 282.763636 225.766936 
L 285.3 233.696039 
L 287.836364 241.728279 
L 290.372727 248.512857 
L 292.909091 252.314257 
L 295.445455 256.089874 
L 297.981818 263.389122 
L 300.518182 269.138614 
L 303.054545 272.471228 
L 305.590909 275.470473 
L 308.127273 278.396161 
L 310.663636 282.04123 
L 313.2 285.486056 
L 315.736364 288.129786 
L 318.272727 291.077009 
L 320.809091 295.716487 
L 323.345455 298.834111 
L 325.881818 301.643513 
L 328.418182 303.177039 
L 330.954545 304.943853 
L 333.490909 309.024599 
L 336.027273 313.085131 
L 338.563636 313.921486 
L 341.1 315.266707 
L 343.636364 318.1824 
" clip-path="url(#p015e637ba5)" style="fill: none; stroke: #006ba4; stroke-width: 1.5; stroke-linecap: square"/>
   </g>
   <g id="line2d_17">
    <path clip-path="url(#p015e637ba5)" style="fill: none; stroke: #ff800e; stroke-width: 1.5; stroke-linecap: square"/>
   </g>
   <g id="line2d_18">
    <path d="M 92.536364 124.281 
L 95.072727 145.071 
L 97.609091 132.117231 
L 100.145455 134.676 
L 102.681818 146.889474 
L 105.218182 145.9818 
L 107.754545 152.851235 
L 110.290909 157.201412 
L 112.827273 160.288465 
L 115.363636 165.711053 
L 117.9 196.505296 
L 120.436364 208.111899 
L 122.972727 211.447962 
L 125.509091 213.660231 
L 128.045455 214.153066 
L 130.581818 215.27514 
L 133.118182 217.834432 
L 135.654545 219.615445 
L 138.190909 222.265895 
L 140.727273 220.850526 
L 143.263636 220.900322 
L 145.8 221.37357 
L 148.336364 224.170754 
L 150.872727 228.128981 
L 153.409091 235.057624 
L 155.945455 240.14928 
L 158.481818 247.216429 
L 161.018182 250.234866 
L 163.554545 255.221122 
L 166.090909 258.38415 
L 168.627273 261.78423 
L 171.163636 265.443275 
L 173.7 267.106189 
L 176.236364 268.474742 
L 178.772727 270.66967 
L 181.309091 273.46728 
L 183.845455 277.437433 
L 186.381818 278.264234 
L 188.918182 279.091035 
L 191.454545 280.196325 
L 193.990909 281.535761 
L 196.527273 283.305097 
L 199.063636 287.896469 
L 201.6 291.504708 
L 204.136364 292.080487 
L 206.672727 292.656265 
L 209.209091 293.232043 
L 211.745455 294.062229 
L 214.281818 295.054767 
L 216.818182 295.961107 
L 219.354545 296.52438 
L 221.890909 297.087654 
L 224.427273 299.904757 
L 226.963636 300.413544 
L 229.5 300.85111 
L 232.036364 301.294847 
L 234.572727 301.767339 
L 237.109091 302.239831 
L 239.645455 302.712324 
L 242.181818 303.245057 
L 244.718182 304.070413 
L 247.254545 305.193375 
L 249.790909 305.739266 
L 252.327273 306.546909 
L 254.863636 307.249862 
L 257.4 307.755853 
L 259.936364 308.278119 
L 262.472727 308.832938 
L 265.009091 309.419265 
L 267.545455 309.45362 
L 270.081818 309.988203 
L 272.618182 310.903797 
L 275.154545 311.387304 
L 277.690909 311.695045 
L 280.227273 311.986694 
L 282.763636 312.241005 
L 285.3 312.495316 
L 287.836364 312.815203 
L 290.372727 313.203353 
L 292.909091 313.883863 
L 295.445455 314.119984 
L 297.981818 314.38532 
L 300.518182 314.917665 
L 303.054545 315.156844 
L 305.590909 315.383438 
L 308.127273 315.607442 
L 310.663636 315.895512 
L 313.2 316.167737 
L 315.736364 316.341149 
L 318.272727 316.462065 
L 320.809091 316.716241 
L 323.345455 317.020221 
L 325.881818 317.330887 
L 328.418182 317.505266 
L 330.954545 317.760826 
L 333.490909 317.835888 
L 336.027273 317.940982 
L 338.563636 318.067413 
L 341.1 318.096069 
L 343.636364 318.1824 
" clip-path="url(#p015e637ba5)" style="fill: none; stroke-dasharray: 5.55,2.4; stroke-dashoffset: 0; stroke: #ff800e; stroke-opacity: 0.3; stroke-width: 1.5"/>
   </g>
   <g id="line2d_19">
    <path d="M 92.536364 43.2 
L 95.072727 43.2 
L 97.609091 43.2 
L 100.145455 43.2 
L 102.681818 43.2 
L 105.218182 60.00525 
L 107.754545 58.27865 
L 110.290909 73.395 
L 112.827273 80.1765 
L 115.363636 88.74 
L 117.9 96.066917 
L 120.436364 101.022947 
L 122.972727 111.586559 
L 125.509091 109.598722 
L 128.045455 130.511583 
L 130.581818 130.831133 
L 133.118182 133.0282 
L 135.654545 143.472 
L 138.190909 156.756808 
L 140.727273 156.440769 
L 143.263636 156.124731 
L 145.8 170.641354 
L 148.336364 175.043552 
L 150.872727 177.964606 
L 153.409091 180.954878 
L 155.945455 182.999821 
L 158.481818 185.619092 
L 161.018182 191.028406 
L 163.554545 196.445874 
L 166.090909 200.9884 
L 168.627273 205.105333 
L 171.163636 208.757333 
L 173.7 212.439086 
L 176.236364 216.526871 
L 178.772727 220.614655 
L 181.309091 224.791969 
L 183.845455 229.228075 
L 186.381818 233.66418 
L 188.918182 244.074661 
L 191.454545 245.481771 
L 193.990909 246.88888 
L 196.527273 248.29599 
L 199.063636 249.998989 
L 201.6 251.762023 
L 204.136364 253.534461 
L 206.672727 255.765802 
L 209.209091 257.997142 
L 211.745455 260.619454 
L 214.281818 264.722943 
L 216.818182 268.891248 
L 219.354545 273.317518 
L 221.890909 276.547495 
L 224.427273 280.330007 
L 226.963636 284.646558 
L 229.5 287.465545 
L 232.036364 290.009149 
L 234.572727 290.542401 
L 237.109091 292.98613 
L 239.645455 294.402693 
L 242.181818 295.259705 
L 244.718182 296.007999 
L 247.254545 296.344349 
L 249.790909 296.6807 
L 252.327273 297.149087 
L 254.863636 298.398691 
L 257.4 299.331063 
L 259.936364 299.991184 
L 262.472727 300.666092 
L 265.009091 301.441283 
L 267.545455 302.265865 
L 270.081818 303.45101 
L 272.618182 305.048328 
L 275.154545 305.605732 
L 277.690909 306.195158 
L 280.227273 307.059243 
L 282.763636 307.549057 
L 285.3 307.9971 
L 287.836364 309.349476 
L 290.372727 309.86098 
L 292.909091 310.515142 
L 295.445455 311.368281 
L 297.981818 311.659978 
L 300.518182 311.876614 
L 303.054545 312.056531 
L 305.590909 312.236447 
L 308.127273 312.974544 
L 310.663636 313.698134 
L 313.2 313.936023 
L 315.736364 314.086442 
L 318.272727 314.246211 
L 320.809091 314.629465 
L 323.345455 315.437125 
L 325.881818 315.867456 
L 328.418182 315.912481 
L 330.954545 316.320999 
L 333.490909 316.672832 
L 336.027273 316.817841 
L 338.563636 317.28487 
L 341.1 317.766173 
L 343.636364 318.1824 
" clip-path="url(#p015e637ba5)" style="fill: none; stroke-dasharray: 5.55,2.4; stroke-dashoffset: 0; stroke: #ff800e; stroke-opacity: 0.3; stroke-width: 1.5"/>
   </g>
   <g id="line2d_20">
    <path d="M 92.536364 83.7405 
L 95.072727 94.1355 
L 97.609091 87.658615 
L 100.145455 88.938 
L 102.681818 95.044737 
L 105.218182 102.993525 
L 107.754545 105.564943 
L 110.290909 115.298206 
L 112.827273 120.232482 
L 115.363636 127.225526 
L 117.9 146.286106 
L 120.436364 154.567423 
L 122.972727 161.51726 
L 125.509091 161.629477 
L 128.045455 172.332324 
L 130.581818 173.053137 
L 133.118182 175.431316 
L 135.654545 181.543723 
L 138.190909 189.511351 
L 140.727273 188.645648 
L 143.263636 188.512527 
L 145.8 196.007462 
L 148.336364 199.607153 
L 150.872727 203.046794 
L 153.409091 208.006251 
L 155.945455 211.57455 
L 158.481818 216.417761 
L 161.018182 220.631636 
L 163.554545 225.833498 
L 166.090909 229.686275 
L 168.627273 233.444782 
L 171.163636 237.100304 
L 173.7 239.772637 
L 176.236364 242.500806 
L 178.772727 245.642163 
L 181.309091 249.129624 
L 183.845455 253.332754 
L 186.381818 255.964207 
L 188.918182 261.582848 
L 191.454545 262.839048 
L 193.990909 264.212321 
L 196.527273 265.800544 
L 199.063636 268.947729 
L 201.6 271.633366 
L 204.136364 272.807474 
L 206.672727 274.211033 
L 209.209091 275.614593 
L 211.745455 277.340841 
L 214.281818 279.888855 
L 216.818182 282.426178 
L 219.354545 284.920949 
L 221.890909 286.817574 
L 224.427273 290.117382 
L 226.963636 292.530051 
L 229.5 294.158327 
L 232.036364 295.651998 
L 234.572727 296.15487 
L 237.109091 297.612981 
L 239.645455 298.557508 
L 242.181818 299.252381 
L 244.718182 300.039206 
L 247.254545 300.768862 
L 249.790909 301.209983 
L 252.327273 301.847998 
L 254.863636 302.824277 
L 257.4 303.543458 
L 259.936364 304.134651 
L 262.472727 304.749515 
L 265.009091 305.430274 
L 267.545455 305.859743 
L 270.081818 306.719606 
L 272.618182 307.976063 
L 275.154545 308.496518 
L 277.690909 308.945102 
L 280.227273 309.522968 
L 282.763636 309.895031 
L 285.3 310.246208 
L 287.836364 311.08234 
L 290.372727 311.532167 
L 292.909091 312.199503 
L 295.445455 312.744133 
L 297.981818 313.022649 
L 300.518182 313.39714 
L 303.054545 313.606687 
L 305.590909 313.809943 
L 308.127273 314.290993 
L 310.663636 314.796823 
L 313.2 315.05188 
L 315.736364 315.213796 
L 318.272727 315.354138 
L 320.809091 315.672853 
L 323.345455 316.228673 
L 325.881818 316.599172 
L 328.418182 316.708874 
L 330.954545 317.040912 
L 333.490909 317.25436 
L 336.027273 317.379411 
L 338.563636 317.676141 
L 341.1 317.931121 
L 343.636364 318.1824 
" clip-path="url(#p015e637ba5)" style="fill: none; stroke-dasharray: 5.55,2.4; stroke-dashoffset: 0; stroke: #ff800e; stroke-width: 1.5"/>
   </g>
   <g id="line2d_21">
    <path clip-path="url(#p015e637ba5)" style="fill: none; stroke: #ababab; stroke-width: 1.5; stroke-linecap: square"/>
   </g>
   <g id="line2d_22">
    <path d="M 92.536364 56.7828 
L 95.072727 89.5848 
L 97.609091 76.0405 
L 100.145455 68.969333 
L 102.681818 64.329706 
L 105.218182 60.946235 
L 107.754545 61.736243 
L 110.290909 65.619879 
L 112.827273 75.869 
L 115.363636 87.86 
L 117.9 94.23 
L 120.436364 98.252308 
L 122.972727 107.117726 
L 125.509091 115.443944 
L 128.045455 115.462575 
L 130.581818 118.371064 
L 133.118182 127.415492 
L 135.654545 135.004985 
L 138.190909 141.742738 
L 140.727273 147.476814 
L 143.263636 151.53316 
L 145.8 157.6666 
L 148.336364 164.066752 
L 150.872727 178.675874 
L 153.409091 185.76 
L 155.945455 193.9632 
L 158.481818 198.242462 
L 161.018182 200.217003 
L 163.554545 201.154767 
L 166.090909 205.686969 
L 168.627273 219.410665 
L 171.163636 216.147883 
L 173.7 225.971353 
L 176.236364 234.264952 
L 178.772727 238.316636 
L 181.309091 242.385042 
L 183.845455 246.501787 
L 186.381818 250.310152 
L 188.918182 253.188407 
L 191.454545 256.066662 
L 193.990909 259.502188 
L 196.527273 263.044368 
L 199.063636 266.899095 
L 201.6 271.168601 
L 204.136364 273.599343 
L 206.672727 275.635422 
L 209.209091 277.398569 
L 211.745455 278.774841 
L 214.281818 280.151113 
L 216.818182 281.707625 
L 219.354545 283.981491 
L 221.890909 286.139774 
L 224.427273 287.814053 
L 226.963636 289.488332 
L 229.5 294.275334 
L 232.036364 295.456283 
L 234.572727 296.545673 
L 237.109091 297.368017 
L 239.645455 297.989133 
L 242.181818 298.61025 
L 244.718182 299.231367 
L 247.254545 300.898316 
L 249.790909 302.23216 
L 252.327273 302.855732 
L 254.863636 303.479304 
L 257.4 304.104153 
L 259.936364 305.230075 
L 262.472727 306.959397 
L 265.009091 307.701419 
L 267.545455 308.061596 
L 270.081818 308.421772 
L 272.618182 308.99649 
L 275.154545 309.872511 
L 277.690909 310.66199 
L 280.227273 311.519164 
L 282.763636 311.965697 
L 285.3 312.366399 
L 287.836364 312.675021 
L 290.372727 312.972444 
L 292.909091 313.323189 
L 295.445455 313.731255 
L 297.981818 314.459647 
L 300.518182 314.906058 
L 303.054545 315.111976 
L 305.590909 315.281152 
L 308.127273 315.48566 
L 310.663636 315.732011 
L 313.2 315.948116 
L 315.736364 316.411155 
L 318.272727 316.643518 
L 320.809091 317.120573 
L 323.345455 317.273846 
L 325.881818 317.551626 
L 328.418182 317.664941 
L 330.954545 317.746437 
L 333.490909 317.800447 
L 336.027273 317.864306 
L 338.563636 317.964654 
L 341.1 318.115973 
L 343.636364 318.1824 
" clip-path="url(#p015e637ba5)" style="fill: none; stroke-dasharray: 9.6,2.4,1.5,2.4; stroke-dashoffset: 0; stroke: #ababab; stroke-opacity: 0.3; stroke-width: 1.5"/>
   </g>
   <g id="line2d_23">
    <path d="M 92.536364 43.2 
L 95.072727 43.2 
L 97.609091 43.2 
L 100.145455 43.2 
L 102.681818 43.2 
L 105.218182 43.2 
L 107.754545 43.2 
L 110.290909 43.2 
L 112.827273 43.2 
L 115.363636 43.2 
L 117.9 43.2 
L 120.436364 43.2 
L 122.972727 43.2 
L 125.509091 43.2 
L 128.045455 43.2 
L 130.581818 43.2 
L 133.118182 49.967785 
L 135.654545 52.391936 
L 138.190909 56.738905 
L 140.727273 73.012075 
L 143.263636 80.944548 
L 145.8 89.173549 
L 148.336364 94.016316 
L 150.872727 100.645539 
L 153.409091 106.034817 
L 155.945455 108.264787 
L 158.481818 109.71225 
L 161.018182 113.5395 
L 163.554545 120.669961 
L 166.090909 121.407843 
L 168.627273 127.455836 
L 171.163636 131.89704 
L 173.7 142.186959 
L 176.236364 149.925079 
L 178.772727 149.767864 
L 181.309091 149.891779 
L 183.845455 155.437853 
L 186.381818 177.205352 
L 188.918182 183.639906 
L 191.454545 191.06941 
L 193.990909 192.02684 
L 196.527273 192.892303 
L 199.063636 193.757767 
L 201.6 198.666097 
L 204.136364 206.102947 
L 206.672727 217.612831 
L 209.209091 222.974771 
L 211.745455 231.992136 
L 214.281818 238.7613 
L 216.818182 246.713988 
L 219.354545 252.844933 
L 221.890909 257.158305 
L 224.427273 259.161007 
L 226.963636 261.163709 
L 229.5 263.166412 
L 232.036364 268.57157 
L 234.572727 272.706181 
L 237.109091 273.774184 
L 239.645455 274.832354 
L 242.181818 275.890523 
L 244.718182 277.148866 
L 247.254545 278.76707 
L 249.790909 280.385275 
L 252.327273 282.371866 
L 254.863636 284.664541 
L 257.4 287.804943 
L 259.936364 291.152324 
L 262.472727 293.458613 
L 265.009091 295.601402 
L 267.545455 297.596906 
L 270.081818 298.96563 
L 272.618182 300.066218 
L 275.154545 301.456106 
L 277.690909 303.318155 
L 280.227273 304.369302 
L 282.763636 305.719865 
L 285.3 307.123812 
L 287.836364 308.363503 
L 290.372727 309.235376 
L 292.909091 309.636685 
L 295.445455 310.037994 
L 297.981818 310.292408 
L 300.518182 310.525934 
L 303.054545 310.759459 
L 305.590909 311.357173 
L 308.127273 312.679289 
L 310.663636 313.107716 
L 313.2 313.359054 
L 315.736364 313.666918 
L 318.272727 314.009517 
L 320.809091 314.443849 
L 323.345455 314.821761 
L 325.881818 315.599316 
L 328.418182 315.759874 
L 330.954545 316.240245 
L 333.490909 316.620037 
L 336.027273 317.150519 
L 338.563636 317.443218 
L 341.1 317.606491 
L 343.636364 318.1824 
" clip-path="url(#p015e637ba5)" style="fill: none; stroke-dasharray: 9.6,2.4,1.5,2.4; stroke-dashoffset: 0; stroke: #ababab; stroke-opacity: 0.3; stroke-width: 1.5"/>
   </g>
   <g id="line2d_24">
    <path d="M 92.536364 49.9914 
L 95.072727 66.3924 
L 97.609091 59.62025 
L 100.145455 56.084667 
L 102.681818 53.764853 
L 105.218182 52.073118 
L 107.754545 52.468122 
L 110.290909 54.40994 
L 112.827273 59.5345 
L 115.363636 65.53 
L 117.9 68.715 
L 120.436364 70.726154 
L 122.972727 75.158863 
L 125.509091 79.321972 
L 128.045455 79.331287 
L 130.581818 80.785532 
L 133.118182 88.691639 
L 135.654545 93.69846 
L 138.190909 99.240822 
L 140.727273 110.244445 
L 143.263636 116.238854 
L 145.8 123.420075 
L 148.336364 129.041534 
L 150.872727 139.660707 
L 153.409091 145.897409 
L 155.945455 151.113993 
L 158.481818 153.977356 
L 161.018182 156.878252 
L 163.554545 160.912364 
L 166.090909 163.547406 
L 168.627273 173.433251 
L 171.163636 174.022461 
L 173.7 184.079156 
L 176.236364 192.095015 
L 178.772727 194.04225 
L 181.309091 196.138411 
L 183.845455 200.96982 
L 186.381818 213.757752 
L 188.918182 218.414156 
L 191.454545 223.568036 
L 193.990909 225.764514 
L 196.527273 227.968336 
L 199.063636 230.328431 
L 201.6 234.917349 
L 204.136364 239.851145 
L 206.672727 246.624126 
L 209.209091 250.18667 
L 211.745455 255.383488 
L 214.281818 259.456207 
L 216.818182 264.210806 
L 219.354545 268.413212 
L 221.890909 271.649039 
L 224.427273 273.48753 
L 226.963636 275.326021 
L 229.5 278.720873 
L 232.036364 282.013926 
L 234.572727 284.625927 
L 237.109091 285.5711 
L 239.645455 286.410743 
L 242.181818 287.250387 
L 244.718182 288.190116 
L 247.254545 289.832693 
L 249.790909 291.308718 
L 252.327273 292.613799 
L 254.863636 294.071923 
L 257.4 295.954548 
L 259.936364 298.1912 
L 262.472727 300.209005 
L 265.009091 301.651411 
L 267.545455 302.829251 
L 270.081818 303.693701 
L 272.618182 304.531354 
L 275.154545 305.664308 
L 277.690909 306.990073 
L 280.227273 307.944233 
L 282.763636 308.842781 
L 285.3 309.745106 
L 287.836364 310.519262 
L 290.372727 311.10391 
L 292.909091 311.479937 
L 295.445455 311.884625 
L 297.981818 312.376028 
L 300.518182 312.715996 
L 303.054545 312.935718 
L 305.590909 313.319162 
L 308.127273 314.082475 
L 310.663636 314.419864 
L 313.2 314.653585 
L 315.736364 315.039036 
L 318.272727 315.326517 
L 320.809091 315.782211 
L 323.345455 316.047803 
L 325.881818 316.575471 
L 328.418182 316.712407 
L 330.954545 316.993341 
L 333.490909 317.210242 
L 336.027273 317.507412 
L 338.563636 317.703936 
L 341.1 317.861232 
L 343.636364 318.1824 
" clip-path="url(#p015e637ba5)" style="fill: none; stroke-dasharray: 9.6,2.4,1.5,2.4; stroke-dashoffset: 0; stroke: #ababab; stroke-width: 1.5"/>
   </g>
   <g id="line2d_25">
    <path clip-path="url(#p015e637ba5)" style="fill: none; stroke: #595959; stroke-width: 1.5; stroke-linecap: square"/>
   </g>
   <g id="line2d_26">
    <path d="M 92.536364 43.2 
L 95.072727 43.2 
L 97.609091 43.2 
L 100.145455 43.2 
L 102.681818 43.2 
L 105.218182 43.2 
L 107.754545 43.2 
L 110.290909 43.2 
L 112.827273 43.2 
L 115.363636 43.2 
L 117.9 43.2 
L 120.436364 43.2 
L 122.972727 43.2 
L 125.509091 43.2 
L 128.045455 43.2 
L 130.581818 43.2 
L 133.118182 43.2 
L 135.654545 43.2 
L 138.190909 43.2 
L 140.727273 43.2 
L 143.263636 43.2 
L 145.8 43.2 
L 148.336364 43.2 
L 150.872727 43.2 
L 153.409091 43.294932 
L 155.945455 44.240449 
L 158.481818 45.185967 
L 161.018182 46.131485 
L 163.554545 46.987767 
L 166.090909 46.875205 
L 168.627273 46.762644 
L 171.163636 46.650082 
L 173.7 46.537521 
L 176.236364 46.93309 
L 178.772727 47.582724 
L 181.309091 48.232359 
L 183.845455 48.881994 
L 186.381818 49.531628 
L 188.918182 50.181263 
L 191.454545 51.812693 
L 193.990909 53.720666 
L 196.527273 55.628638 
L 199.063636 57.53661 
L 201.6 59.444582 
L 204.136364 61.352554 
L 206.672727 63.260526 
L 209.209091 65.168498 
L 211.745455 67.076471 
L 214.281818 70.693971 
L 216.818182 76.816521 
L 219.354545 82.939072 
L 221.890909 87.274729 
L 224.427273 90.390951 
L 226.963636 93.507173 
L 229.5 96.623395 
L 232.036364 99.739617 
L 234.572727 102.855839 
L 237.109091 105.972061 
L 239.645455 109.088283 
L 242.181818 112.204505 
L 244.718182 116.329038 
L 247.254545 122.266267 
L 249.790909 128.203495 
L 252.327273 134.140724 
L 254.863636 140.077952 
L 257.4 146.015181 
L 259.936364 151.54861 
L 262.472727 156.274439 
L 265.009091 161.000268 
L 267.545455 165.726097 
L 270.081818 170.451926 
L 272.618182 175.177755 
L 275.154545 179.903584 
L 277.690909 184.629413 
L 280.227273 189.355242 
L 282.763636 194.443306 
L 285.3 199.571798 
L 287.836364 209.175288 
L 290.372727 219.120127 
L 292.909091 229.064966 
L 295.445455 236.558145 
L 297.981818 242.890774 
L 300.518182 249.223403 
L 303.054545 255.556033 
L 305.590909 261.888662 
L 308.127273 267.094792 
L 310.663636 270.966911 
L 313.2 274.83903 
L 315.736364 278.711149 
L 318.272727 282.583268 
L 320.809091 286.34949 
L 323.345455 291.239523 
L 325.881818 295.867726 
L 328.418182 299.613977 
L 330.954545 303.360227 
L 333.490909 305.905486 
L 336.027273 308.984377 
L 338.563636 311.178184 
L 341.1 315.062933 
L 343.636364 319.058016 
" clip-path="url(#p015e637ba5)" style="fill: none; stroke-dasharray: 1.5,2.475; stroke-dashoffset: 0; stroke: #595959; stroke-opacity: 0.3; stroke-width: 1.5"/>
   </g>
   <g id="line2d_27">
    <path d="M 92.536364 43.2 
L 95.072727 43.2 
L 97.609091 43.2 
L 100.145455 43.2 
L 102.681818 43.2 
L 105.218182 43.2 
L 107.754545 43.2 
L 110.290909 43.2 
L 112.827273 43.2 
L 115.363636 43.2 
L 117.9 43.2 
L 120.436364 43.2 
L 122.972727 43.2 
L 125.509091 43.2 
L 128.045455 43.2 
L 130.581818 43.2 
L 133.118182 43.2 
L 135.654545 43.2 
L 138.190909 43.2 
L 140.727273 43.2 
L 143.263636 43.2 
L 145.8 43.2 
L 148.336364 43.2 
L 150.872727 43.2 
L 153.409091 43.2 
L 155.945455 43.2 
L 158.481818 43.2 
L 161.018182 43.2 
L 163.554545 43.2 
L 166.090909 43.2 
L 168.627273 43.2 
L 171.163636 43.2 
L 173.7 43.2 
L 176.236364 43.2 
L 178.772727 43.2 
L 181.309091 43.2 
L 183.845455 43.2 
L 186.381818 43.2 
L 188.918182 43.2 
L 191.454545 43.2 
L 193.990909 43.2 
L 196.527273 43.2 
L 199.063636 43.2 
L 201.6 43.2 
L 204.136364 43.2 
L 206.672727 43.2 
L 209.209091 43.2165 
L 211.745455 44.586 
L 214.281818 45.9555 
L 216.818182 47.325 
L 219.354545 48.6945 
L 221.890909 50.064 
L 224.427273 51.4335 
L 226.963636 52.803 
L 229.5 54.1725 
L 232.036364 57.097869 
L 234.572727 61.157725 
L 237.109091 65.217582 
L 239.645455 69.277439 
L 242.181818 72.89983 
L 244.718182 76.356959 
L 247.254545 80.784039 
L 249.790909 82.151952 
L 252.327273 83.519865 
L 254.863636 84.887777 
L 257.4 86.25569 
L 259.936364 87.623603 
L 262.472727 88.991516 
L 265.009091 90.359429 
L 267.545455 91.727342 
L 270.081818 93.095255 
L 272.618182 94.463168 
L 275.154545 97.239882 
L 277.690909 103.163527 
L 280.227273 109.087173 
L 282.763636 115.010818 
L 285.3 120.934464 
L 287.836364 126.858109 
L 290.372727 134.247592 
L 292.909091 145.311993 
L 295.445455 156.376393 
L 297.981818 167.440793 
L 300.518182 178.505194 
L 303.054545 188.324701 
L 305.590909 196.716873 
L 308.127273 205.109046 
L 310.663636 213.501218 
L 313.2 221.893391 
L 315.736364 230.285563 
L 318.272727 238.58739 
L 320.809091 246.872437 
L 323.345455 255.157485 
L 325.881818 263.296377 
L 328.418182 270.942953 
L 330.954545 278.58953 
L 333.490909 285.40554 
L 336.027273 291.06355 
L 338.563636 296.759318 
L 341.1 306.494889 
" clip-path="url(#p015e637ba5)" style="fill: none; stroke-dasharray: 1.5,2.475; stroke-dashoffset: 0; stroke: #595959; stroke-opacity: 0.3; stroke-width: 1.5"/>
   </g>
   <g id="line2d_28">
    <path d="M 92.536364 43.2 
L 95.072727 43.2 
L 97.609091 43.2 
L 100.145455 43.2 
L 102.681818 43.2 
L 105.218182 43.2 
L 107.754545 43.2 
L 110.290909 43.2 
L 112.827273 43.2 
L 115.363636 43.2 
L 117.9 43.2 
L 120.436364 43.2 
L 122.972727 43.2 
L 125.509091 43.2 
L 128.045455 43.2 
L 130.581818 43.2 
L 133.118182 43.2 
L 135.654545 43.2 
L 138.190909 43.2 
L 140.727273 43.2 
L 143.263636 43.2 
L 145.8 43.2 
L 148.336364 43.2 
L 150.872727 43.2 
L 153.409091 43.247466 
L 155.945455 43.720225 
L 158.481818 44.192984 
L 161.018182 44.665742 
L 163.554545 45.093884 
L 166.090909 45.037603 
L 168.627273 44.981322 
L 171.163636 44.925041 
L 173.7 44.86876 
L 176.236364 45.066545 
L 178.772727 45.391362 
L 181.309091 45.716179 
L 183.845455 46.040997 
L 186.381818 46.365814 
L 188.918182 46.690631 
L 191.454545 47.506347 
L 193.990909 48.460333 
L 196.527273 49.414319 
L 199.063636 50.368305 
L 201.6 51.322291 
L 204.136364 52.276277 
L 206.672727 53.230263 
L 209.209091 54.192499 
L 211.745455 55.831235 
L 214.281818 58.324735 
L 216.818182 62.070761 
L 219.354545 65.816786 
L 221.890909 68.669364 
L 224.427273 70.912225 
L 226.963636 73.155086 
L 229.5 75.397947 
L 232.036364 78.418743 
L 234.572727 82.006782 
L 237.109091 85.594821 
L 239.645455 89.182861 
L 242.181818 92.552167 
L 244.718182 96.342999 
L 247.254545 101.525153 
L 249.790909 105.177724 
L 252.327273 108.830294 
L 254.863636 112.482865 
L 257.4 116.135436 
L 259.936364 119.586107 
L 262.472727 122.632978 
L 265.009091 125.679849 
L 267.545455 128.72672 
L 270.081818 131.77359 
L 272.618182 134.820461 
L 275.154545 138.571733 
L 277.690909 143.89647 
L 280.227273 149.221207 
L 282.763636 154.727062 
L 285.3 160.253131 
L 287.836364 168.016698 
L 290.372727 176.68386 
L 292.909091 187.188479 
L 295.445455 196.467269 
L 297.981818 205.165784 
L 300.518182 213.864299 
L 303.054545 221.940367 
L 305.590909 229.302768 
L 308.127273 236.101919 
L 310.663636 242.234065 
L 313.2 248.36621 
L 315.736364 254.498356 
L 318.272727 260.585329 
L 320.809091 266.610964 
L 323.345455 273.198504 
L 325.881818 279.582052 
L 328.418182 285.278465 
L 330.954545 290.974879 
L 333.490909 295.655513 
L 336.027273 300.023964 
L 338.563636 303.968751 
L 341.1 310.778911 
" clip-path="url(#p015e637ba5)" style="fill: none; stroke-dasharray: 1.5,2.475; stroke-dashoffset: 0; stroke: #595959; stroke-width: 1.5"/>
   </g>
   <g id="patch_3">
    <path d="M 90 320.4 
L 90 43.2 
" style="fill: none; stroke: #000000; stroke-width: 0.8; stroke-linejoin: miter; stroke-linecap: square"/>
   </g>
   <g id="patch_4">
    <path d="M 343.636364 320.4 
L 343.636364 43.2 
" style="fill: none; stroke: #000000; stroke-width: 0.8; stroke-linejoin: miter; stroke-linecap: square"/>
   </g>
   <g id="patch_5">
    <path d="M 90 320.4 
L 343.636364 320.4 
" style="fill: none; stroke: #000000; stroke-width: 0.8; stroke-linejoin: miter; stroke-linecap: square"/>
   </g>
   <g id="patch_6">
    <path d="M 90 43.2 
L 343.636364 43.2 
" style="fill: none; stroke: #000000; stroke-width: 0.8; stroke-linejoin: miter; stroke-linecap: square"/>
   </g>
   <g id="text_15">
    <!-- PR Curves for Barabasi-Albert graph (250 nodes) -->
    <g transform="translate(70.377869 37.2) scale(0.12 -0.12)">
     <defs>
      <path id="DejaVuSans-20" transform="scale(0.015625)"/>
      <path id="DejaVuSans-43" d="M 4122 4306 
L 4122 3641 
Q 3803 3938 3442 4084 
Q 3081 4231 2675 4231 
Q 1875 4231 1450 3742 
Q 1025 3253 1025 2328 
Q 1025 1406 1450 917 
Q 1875 428 2675 428 
Q 3081 428 3442 575 
Q 3803 722 4122 1019 
L 4122 359 
Q 3791 134 3420 21 
Q 3050 -91 2638 -91 
Q 1578 -91 968 557 
Q 359 1206 359 2328 
Q 359 3453 968 4101 
Q 1578 4750 2638 4750 
Q 3056 4750 3426 4639 
Q 3797 4528 4122 4306 
z
" transform="scale(0.015625)"/>
      <path id="DejaVuSans-75" d="M 544 1381 
L 544 3500 
L 1119 3500 
L 1119 1403 
Q 1119 906 1312 657 
Q 1506 409 1894 409 
Q 2359 409 2629 706 
Q 2900 1003 2900 1516 
L 2900 3500 
L 3475 3500 
L 3475 0 
L 2900 0 
L 2900 538 
Q 2691 219 2414 64 
Q 2138 -91 1772 -91 
Q 1169 -91 856 284 
Q 544 659 544 1381 
z
M 1991 3584 
L 1991 3584 
z
" transform="scale(0.015625)"/>
      <path id="DejaVuSans-76" d="M 191 3500 
L 800 3500 
L 1894 563 
L 2988 3500 
L 3597 3500 
L 2284 0 
L 1503 0 
L 191 3500 
z
" transform="scale(0.015625)"/>
      <path id="DejaVuSans-66" d="M 2375 4863 
L 2375 4384 
L 1825 4384 
Q 1516 4384 1395 4259 
Q 1275 4134 1275 3809 
L 1275 3500 
L 2222 3500 
L 2222 3053 
L 1275 3053 
L 1275 0 
L 697 0 
L 697 3053 
L 147 3053 
L 147 3500 
L 697 3500 
L 697 3744 
Q 697 4328 969 4595 
Q 1241 4863 1831 4863 
L 2375 4863 
z
" transform="scale(0.015625)"/>
      <path id="DejaVuSans-42" d="M 1259 2228 
L 1259 519 
L 2272 519 
Q 2781 519 3026 730 
Q 3272 941 3272 1375 
Q 3272 1813 3026 2020 
Q 2781 2228 2272 2228 
L 1259 2228 
z
M 1259 4147 
L 1259 2741 
L 2194 2741 
Q 2656 2741 2882 2914 
Q 3109 3088 3109 3444 
Q 3109 3797 2882 3972 
Q 2656 4147 2194 4147 
L 1259 4147 
z
M 628 4666 
L 2241 4666 
Q 2963 4666 3353 4366 
Q 3744 4066 3744 3513 
Q 3744 3084 3544 2831 
Q 3344 2578 2956 2516 
Q 3422 2416 3680 2098 
Q 3938 1781 3938 1306 
Q 3938 681 3513 340 
Q 3088 0 2303 0 
L 628 0 
L 628 4666 
z
" transform="scale(0.015625)"/>
      <path id="DejaVuSans-62" d="M 3116 1747 
Q 3116 2381 2855 2742 
Q 2594 3103 2138 3103 
Q 1681 3103 1420 2742 
Q 1159 2381 1159 1747 
Q 1159 1113 1420 752 
Q 1681 391 2138 391 
Q 2594 391 2855 752 
Q 3116 1113 3116 1747 
z
M 1159 2969 
Q 1341 3281 1617 3432 
Q 1894 3584 2278 3584 
Q 2916 3584 3314 3078 
Q 3713 2572 3713 1747 
Q 3713 922 3314 415 
Q 2916 -91 2278 -91 
Q 1894 -91 1617 61 
Q 1341 213 1159 525 
L 1159 0 
L 581 0 
L 581 4863 
L 1159 4863 
L 1159 2969 
z
" transform="scale(0.015625)"/>
      <path id="DejaVuSans-2d" d="M 313 2009 
L 1997 2009 
L 1997 1497 
L 313 1497 
L 313 2009 
z
" transform="scale(0.015625)"/>
      <path id="DejaVuSans-41" d="M 2188 4044 
L 1331 1722 
L 3047 1722 
L 2188 4044 
z
M 1831 4666 
L 2547 4666 
L 4325 0 
L 3669 0 
L 3244 1197 
L 1141 1197 
L 716 0 
L 50 0 
L 1831 4666 
z
" transform="scale(0.015625)"/>
      <path id="DejaVuSans-74" d="M 1172 4494 
L 1172 3500 
L 2356 3500 
L 2356 3053 
L 1172 3053 
L 1172 1153 
Q 1172 725 1289 603 
Q 1406 481 1766 481 
L 2356 481 
L 2356 0 
L 1766 0 
Q 1100 0 847 248 
Q 594 497 594 1153 
L 594 3053 
L 172 3053 
L 172 3500 
L 594 3500 
L 594 4494 
L 1172 4494 
z
" transform="scale(0.015625)"/>
      <path id="DejaVuSans-67" d="M 2906 1791 
Q 2906 2416 2648 2759 
Q 2391 3103 1925 3103 
Q 1463 3103 1205 2759 
Q 947 2416 947 1791 
Q 947 1169 1205 825 
Q 1463 481 1925 481 
Q 2391 481 2648 825 
Q 2906 1169 2906 1791 
z
M 3481 434 
Q 3481 -459 3084 -895 
Q 2688 -1331 1869 -1331 
Q 1566 -1331 1297 -1286 
Q 1028 -1241 775 -1147 
L 775 -588 
Q 1028 -725 1275 -790 
Q 1522 -856 1778 -856 
Q 2344 -856 2625 -561 
Q 2906 -266 2906 331 
L 2906 616 
Q 2728 306 2450 153 
Q 2172 0 1784 0 
Q 1141 0 747 490 
Q 353 981 353 1791 
Q 353 2603 747 3093 
Q 1141 3584 1784 3584 
Q 2172 3584 2450 3431 
Q 2728 3278 2906 2969 
L 2906 3500 
L 3481 3500 
L 3481 434 
z
" transform="scale(0.015625)"/>
      <path id="DejaVuSans-70" d="M 1159 525 
L 1159 -1331 
L 581 -1331 
L 581 3500 
L 1159 3500 
L 1159 2969 
Q 1341 3281 1617 3432 
Q 1894 3584 2278 3584 
Q 2916 3584 3314 3078 
Q 3713 2572 3713 1747 
Q 3713 922 3314 415 
Q 2916 -91 2278 -91 
Q 1894 -91 1617 61 
Q 1341 213 1159 525 
z
M 3116 1747 
Q 3116 2381 2855 2742 
Q 2594 3103 2138 3103 
Q 1681 3103 1420 2742 
Q 1159 2381 1159 1747 
Q 1159 1113 1420 752 
Q 1681 391 2138 391 
Q 2594 391 2855 752 
Q 3116 1113 3116 1747 
z
" transform="scale(0.015625)"/>
      <path id="DejaVuSans-68" d="M 3513 2113 
L 3513 0 
L 2938 0 
L 2938 2094 
Q 2938 2591 2744 2837 
Q 2550 3084 2163 3084 
Q 1697 3084 1428 2787 
Q 1159 2491 1159 1978 
L 1159 0 
L 581 0 
L 581 4863 
L 1159 4863 
L 1159 2956 
Q 1366 3272 1645 3428 
Q 1925 3584 2291 3584 
Q 2894 3584 3203 3211 
Q 3513 2838 3513 2113 
z
" transform="scale(0.015625)"/>
      <path id="DejaVuSans-28" d="M 1984 4856 
Q 1566 4138 1362 3434 
Q 1159 2731 1159 2009 
Q 1159 1288 1364 580 
Q 1569 -128 1984 -844 
L 1484 -844 
Q 1016 -109 783 600 
Q 550 1309 550 2009 
Q 550 2706 781 3412 
Q 1013 4119 1484 4856 
L 1984 4856 
z
" transform="scale(0.015625)"/>
      <path id="DejaVuSans-35" d="M 691 4666 
L 3169 4666 
L 3169 4134 
L 1269 4134 
L 1269 2991 
Q 1406 3038 1543 3061 
Q 1681 3084 1819 3084 
Q 2600 3084 3056 2656 
Q 3513 2228 3513 1497 
Q 3513 744 3044 326 
Q 2575 -91 1722 -91 
Q 1428 -91 1123 -41 
Q 819 9 494 109 
L 494 744 
Q 775 591 1075 516 
Q 1375 441 1709 441 
Q 2250 441 2565 725 
Q 2881 1009 2881 1497 
Q 2881 1984 2565 2268 
Q 2250 2553 1709 2553 
Q 1456 2553 1204 2497 
Q 953 2441 691 2322 
L 691 4666 
z
" transform="scale(0.015625)"/>
      <path id="DejaVuSans-64" d="M 2906 2969 
L 2906 4863 
L 3481 4863 
L 3481 0 
L 2906 0 
L 2906 525 
Q 2725 213 2448 61 
Q 2172 -91 1784 -91 
Q 1150 -91 751 415 
Q 353 922 353 1747 
Q 353 2572 751 3078 
Q 1150 3584 1784 3584 
Q 2172 3584 2448 3432 
Q 2725 3281 2906 2969 
z
M 947 1747 
Q 947 1113 1208 752 
Q 1469 391 1925 391 
Q 2381 391 2643 752 
Q 2906 1113 2906 1747 
Q 2906 2381 2643 2742 
Q 2381 3103 1925 3103 
Q 1469 3103 1208 2742 
Q 947 2381 947 1747 
z
" transform="scale(0.015625)"/>
      <path id="DejaVuSans-29" d="M 513 4856 
L 1013 4856 
Q 1481 4119 1714 3412 
Q 1947 2706 1947 2009 
Q 1947 1309 1714 600 
Q 1481 -109 1013 -844 
L 513 -844 
Q 928 -128 1133 580 
Q 1338 1288 1338 2009 
Q 1338 2731 1133 3434 
Q 928 4138 513 4856 
z
" transform="scale(0.015625)"/>
     </defs>
     <use xlink:href="#DejaVuSans-50"/>
     <use xlink:href="#DejaVuSans-52" x="60.302734"/>
     <use xlink:href="#DejaVuSans-20" x="129.785156"/>
     <use xlink:href="#DejaVuSans-43" x="161.572266"/>
     <use xlink:href="#DejaVuSans-75" x="231.396484"/>
     <use xlink:href="#DejaVuSans-72" x="294.775391"/>
     <use xlink:href="#DejaVuSans-76" x="335.888672"/>
     <use xlink:href="#DejaVuSans-65" x="395.068359"/>
     <use xlink:href="#DejaVuSans-73" x="456.591797"/>
     <use xlink:href="#DejaVuSans-20" x="508.691406"/>
     <use xlink:href="#DejaVuSans-66" x="540.478516"/>
     <use xlink:href="#DejaVuSans-6f" x="575.683594"/>
     <use xlink:href="#DejaVuSans-72" x="636.865234"/>
     <use xlink:href="#DejaVuSans-20" x="677.978516"/>
     <use xlink:href="#DejaVuSans-42" x="709.765625"/>
     <use xlink:href="#DejaVuSans-61" x="778.369141"/>
     <use xlink:href="#DejaVuSans-72" x="839.648438"/>
     <use xlink:href="#DejaVuSans-61" x="880.761719"/>
     <use xlink:href="#DejaVuSans-62" x="942.041016"/>
     <use xlink:href="#DejaVuSans-61" x="1005.517578"/>
     <use xlink:href="#DejaVuSans-73" x="1066.796875"/>
     <use xlink:href="#DejaVuSans-69" x="1118.896484"/>
     <use xlink:href="#DejaVuSans-2d" x="1146.679688"/>
     <use xlink:href="#DejaVuSans-41" x="1180.513672"/>
     <use xlink:href="#DejaVuSans-6c" x="1248.921875"/>
     <use xlink:href="#DejaVuSans-62" x="1276.705078"/>
     <use xlink:href="#DejaVuSans-65" x="1340.181641"/>
     <use xlink:href="#DejaVuSans-72" x="1401.705078"/>
     <use xlink:href="#DejaVuSans-74" x="1442.818359"/>
     <use xlink:href="#DejaVuSans-20" x="1482.027344"/>
     <use xlink:href="#DejaVuSans-67" x="1513.814453"/>
     <use xlink:href="#DejaVuSans-72" x="1577.291016"/>
     <use xlink:href="#DejaVuSans-61" x="1618.404297"/>
     <use xlink:href="#DejaVuSans-70" x="1679.683594"/>
     <use xlink:href="#DejaVuSans-68" x="1743.160156"/>
     <use xlink:href="#DejaVuSans-20" x="1806.539062"/>
     <use xlink:href="#DejaVuSans-28" x="1838.326172"/>
     <use xlink:href="#DejaVuSans-32" x="1877.339844"/>
     <use xlink:href="#DejaVuSans-35" x="1940.962891"/>
     <use xlink:href="#DejaVuSans-30" x="2004.585938"/>
     <use xlink:href="#DejaVuSans-20" x="2068.208984"/>
     <use xlink:href="#DejaVuSans-6e" x="2099.996094"/>
     <use xlink:href="#DejaVuSans-6f" x="2163.375"/>
     <use xlink:href="#DejaVuSans-64" x="2224.556641"/>
     <use xlink:href="#DejaVuSans-65" x="2288.033203"/>
     <use xlink:href="#DejaVuSans-73" x="2349.556641"/>
     <use xlink:href="#DejaVuSans-29" x="2401.65625"/>
    </g>
   </g>
   <g id="legend_1">
    <g id="patch_7">
     <path d="M 97 315.4 
L 202.617188 315.4 
Q 204.617188 315.4 204.617188 313.4 
L 204.617188 255.6875 
Q 204.617188 253.6875 202.617188 253.6875 
L 97 253.6875 
Q 95 253.6875 95 255.6875 
L 95 313.4 
Q 95 315.4 97 315.4 
z
" style="fill: #ffffff; opacity: 0.8; stroke: #cccccc; stroke-linejoin: miter"/>
    </g>
    <g id="line2d_29">
     <path d="M 99 261.785937 
L 109 261.785937 
L 119 261.785937 
" style="fill: none; stroke: #006ba4; stroke-width: 1.5; stroke-linecap: square"/>
    </g>
    <g id="text_16">
     <!-- GmGM -->
     <g transform="translate(127 265.285937) scale(0.1 -0.1)">
      <defs>
       <path id="DejaVuSans-47" d="M 3809 666 
L 3809 1919 
L 2778 1919 
L 2778 2438 
L 4434 2438 
L 4434 434 
Q 4069 175 3628 42 
Q 3188 -91 2688 -91 
Q 1594 -91 976 548 
Q 359 1188 359 2328 
Q 359 3472 976 4111 
Q 1594 4750 2688 4750 
Q 3144 4750 3555 4637 
Q 3966 4525 4313 4306 
L 4313 3634 
Q 3963 3931 3569 4081 
Q 3175 4231 2741 4231 
Q 1884 4231 1454 3753 
Q 1025 3275 1025 2328 
Q 1025 1384 1454 906 
Q 1884 428 2741 428 
Q 3075 428 3337 486 
Q 3600 544 3809 666 
z
" transform="scale(0.015625)"/>
       <path id="DejaVuSans-6d" d="M 3328 2828 
Q 3544 3216 3844 3400 
Q 4144 3584 4550 3584 
Q 5097 3584 5394 3201 
Q 5691 2819 5691 2113 
L 5691 0 
L 5113 0 
L 5113 2094 
Q 5113 2597 4934 2840 
Q 4756 3084 4391 3084 
Q 3944 3084 3684 2787 
Q 3425 2491 3425 1978 
L 3425 0 
L 2847 0 
L 2847 2094 
Q 2847 2600 2669 2842 
Q 2491 3084 2119 3084 
Q 1678 3084 1418 2786 
Q 1159 2488 1159 1978 
L 1159 0 
L 581 0 
L 581 3500 
L 1159 3500 
L 1159 2956 
Q 1356 3278 1631 3431 
Q 1906 3584 2284 3584 
Q 2666 3584 2933 3390 
Q 3200 3197 3328 2828 
z
" transform="scale(0.015625)"/>
       <path id="DejaVuSans-4d" d="M 628 4666 
L 1569 4666 
L 2759 1491 
L 3956 4666 
L 4897 4666 
L 4897 0 
L 4281 0 
L 4281 4097 
L 3078 897 
L 2444 897 
L 1241 4097 
L 1241 0 
L 628 0 
L 628 4666 
z
" transform="scale(0.015625)"/>
      </defs>
      <use xlink:href="#DejaVuSans-47"/>
      <use xlink:href="#DejaVuSans-6d" x="77.490234"/>
      <use xlink:href="#DejaVuSans-47" x="174.902344"/>
      <use xlink:href="#DejaVuSans-4d" x="252.392578"/>
     </g>
    </g>
    <g id="line2d_30">
     <path d="M 99 276.464063 
L 109 276.464063 
L 119 276.464063 
" style="fill: none; stroke-dasharray: 5.55,2.4; stroke-dashoffset: 0; stroke: #ff800e; stroke-width: 1.5"/>
    </g>
    <g id="text_17">
     <!-- GmGM-125pcs -->
     <g transform="translate(127 279.964063) scale(0.1 -0.1)">
      <use xlink:href="#DejaVuSans-47"/>
      <use xlink:href="#DejaVuSans-6d" x="77.490234"/>
      <use xlink:href="#DejaVuSans-47" x="174.902344"/>
      <use xlink:href="#DejaVuSans-4d" x="252.392578"/>
      <use xlink:href="#DejaVuSans-2d" x="338.671875"/>
      <use xlink:href="#DejaVuSans-31" x="374.755859"/>
      <use xlink:href="#DejaVuSans-32" x="438.378906"/>
      <use xlink:href="#DejaVuSans-35" x="502.001953"/>
      <use xlink:href="#DejaVuSans-70" x="565.625"/>
      <use xlink:href="#DejaVuSans-63" x="629.101562"/>
      <use xlink:href="#DejaVuSans-73" x="684.082031"/>
     </g>
    </g>
    <g id="line2d_31">
     <path d="M 99 291.142187 
L 109 291.142187 
L 119 291.142187 
" style="fill: none; stroke-dasharray: 9.6,2.4,1.5,2.4; stroke-dashoffset: 0; stroke: #ababab; stroke-width: 1.5"/>
    </g>
    <g id="text_18">
     <!-- GmGM-60pcs -->
     <g transform="translate(127 294.642187) scale(0.1 -0.1)">
      <use xlink:href="#DejaVuSans-47"/>
      <use xlink:href="#DejaVuSans-6d" x="77.490234"/>
      <use xlink:href="#DejaVuSans-47" x="174.902344"/>
      <use xlink:href="#DejaVuSans-4d" x="252.392578"/>
      <use xlink:href="#DejaVuSans-2d" x="338.671875"/>
      <use xlink:href="#DejaVuSans-36" x="374.755859"/>
      <use xlink:href="#DejaVuSans-30" x="438.378906"/>
      <use xlink:href="#DejaVuSans-70" x="502.001953"/>
      <use xlink:href="#DejaVuSans-63" x="565.478516"/>
      <use xlink:href="#DejaVuSans-73" x="620.458984"/>
     </g>
    </g>
    <g id="line2d_32">
     <path d="M 99 305.820312 
L 109 305.820312 
L 119 305.820312 
" style="fill: none; stroke-dasharray: 1.5,2.475; stroke-dashoffset: 0; stroke: #595959; stroke-width: 1.5"/>
    </g>
    <g id="text_19">
     <!-- TeraLasso -->
     <g transform="translate(127 309.320312) scale(0.1 -0.1)">
      <defs>
       <path id="DejaVuSans-54" d="M -19 4666 
L 3928 4666 
L 3928 4134 
L 2272 4134 
L 2272 0 
L 1638 0 
L 1638 4134 
L -19 4134 
L -19 4666 
z
" transform="scale(0.015625)"/>
       <path id="DejaVuSans-4c" d="M 628 4666 
L 1259 4666 
L 1259 531 
L 3531 531 
L 3531 0 
L 628 0 
L 628 4666 
z
" transform="scale(0.015625)"/>
      </defs>
      <use xlink:href="#DejaVuSans-54"/>
      <use xlink:href="#DejaVuSans-65" x="44.083984"/>
      <use xlink:href="#DejaVuSans-72" x="105.607422"/>
      <use xlink:href="#DejaVuSans-61" x="146.720703"/>
      <use xlink:href="#DejaVuSans-4c" x="208"/>
      <use xlink:href="#DejaVuSans-61" x="263.712891"/>
      <use xlink:href="#DejaVuSans-73" x="324.992188"/>
      <use xlink:href="#DejaVuSans-73" x="377.091797"/>
      <use xlink:href="#DejaVuSans-6f" x="429.191406"/>
     </g>
    </g>
   </g>
  </g>
  <g id="axes_2">
   <g id="patch_8">
    <path d="M 394.363636 320.4 
L 648 320.4 
L 648 43.2 
L 394.363636 43.2 
z
" style="fill: #ffffff"/>
   </g>
   <g id="matplotlib.axis_3">
    <g id="xtick_7">
     <g id="line2d_33">
      <g>
       <use xlink:href="#m941cbe3af6" x="426.068182" y="320.4" style="stroke: #000000; stroke-width: 0.8"/>
      </g>
     </g>
     <g id="text_20">
      <!-- GmGM -->
      <g transform="translate(428.827557 361.265625) rotate(-90) scale(0.1 -0.1)">
       <use xlink:href="#DejaVuSans-47"/>
       <use xlink:href="#DejaVuSans-6d" x="77.490234"/>
       <use xlink:href="#DejaVuSans-47" x="174.902344"/>
       <use xlink:href="#DejaVuSans-4d" x="252.392578"/>
      </g>
     </g>
    </g>
    <g id="xtick_8">
     <g id="line2d_34">
      <g>
       <use xlink:href="#m941cbe3af6" x="489.477273" y="320.4" style="stroke: #000000; stroke-width: 0.8"/>
      </g>
     </g>
     <g id="text_21">
      <!-- GmGM-125pcs -->
      <g transform="translate(492.236648 401.017187) rotate(-90) scale(0.1 -0.1)">
       <use xlink:href="#DejaVuSans-47"/>
       <use xlink:href="#DejaVuSans-6d" x="77.490234"/>
       <use xlink:href="#DejaVuSans-47" x="174.902344"/>
       <use xlink:href="#DejaVuSans-4d" x="252.392578"/>
       <use xlink:href="#DejaVuSans-2d" x="338.671875"/>
       <use xlink:href="#DejaVuSans-31" x="374.755859"/>
       <use xlink:href="#DejaVuSans-32" x="438.378906"/>
       <use xlink:href="#DejaVuSans-35" x="502.001953"/>
       <use xlink:href="#DejaVuSans-70" x="565.625"/>
       <use xlink:href="#DejaVuSans-63" x="629.101562"/>
       <use xlink:href="#DejaVuSans-73" x="684.082031"/>
      </g>
     </g>
    </g>
    <g id="xtick_9">
     <g id="line2d_35">
      <g>
       <use xlink:href="#m941cbe3af6" x="552.886364" y="320.4" style="stroke: #000000; stroke-width: 0.8"/>
      </g>
     </g>
     <g id="text_22">
      <!-- GmGM-60pcs -->
      <g transform="translate(555.645739 394.654688) rotate(-90) scale(0.1 -0.1)">
       <use xlink:href="#DejaVuSans-47"/>
       <use xlink:href="#DejaVuSans-6d" x="77.490234"/>
       <use xlink:href="#DejaVuSans-47" x="174.902344"/>
       <use xlink:href="#DejaVuSans-4d" x="252.392578"/>
       <use xlink:href="#DejaVuSans-2d" x="338.671875"/>
       <use xlink:href="#DejaVuSans-36" x="374.755859"/>
       <use xlink:href="#DejaVuSans-30" x="438.378906"/>
       <use xlink:href="#DejaVuSans-70" x="502.001953"/>
       <use xlink:href="#DejaVuSans-63" x="565.478516"/>
       <use xlink:href="#DejaVuSans-73" x="620.458984"/>
      </g>
     </g>
    </g>
    <g id="xtick_10">
     <g id="line2d_36">
      <g>
       <use xlink:href="#m941cbe3af6" x="616.295455" y="320.4" style="stroke: #000000; stroke-width: 0.8"/>
      </g>
     </g>
     <g id="text_23">
      <!-- TeraLasso -->
      <g transform="translate(619.05483 376.4375) rotate(-90) scale(0.1 -0.1)">
       <use xlink:href="#DejaVuSans-54"/>
       <use xlink:href="#DejaVuSans-65" x="44.083984"/>
       <use xlink:href="#DejaVuSans-72" x="105.607422"/>
       <use xlink:href="#DejaVuSans-61" x="146.720703"/>
       <use xlink:href="#DejaVuSans-4c" x="208"/>
       <use xlink:href="#DejaVuSans-61" x="263.712891"/>
       <use xlink:href="#DejaVuSans-73" x="324.992188"/>
       <use xlink:href="#DejaVuSans-73" x="377.091797"/>
       <use xlink:href="#DejaVuSans-6f" x="429.191406"/>
      </g>
     </g>
    </g>
   </g>
   <g id="matplotlib.axis_4">
    <g id="ytick_7">
     <g id="line2d_37">
      <g>
       <use xlink:href="#m465d3c59b4" x="394.363636" y="320.4" style="stroke: #000000; stroke-width: 0.8"/>
      </g>
     </g>
     <g id="text_24">
      <!-- 0.0 -->
      <g transform="translate(371.460511 324.199219) scale(0.1 -0.1)">
       <use xlink:href="#DejaVuSans-30"/>
       <use xlink:href="#DejaVuSans-2e" x="63.623047"/>
       <use xlink:href="#DejaVuSans-30" x="95.410156"/>
      </g>
     </g>
    </g>
    <g id="ytick_8">
     <g id="line2d_38">
      <g>
       <use xlink:href="#m465d3c59b4" x="394.363636" y="265.508911" style="stroke: #000000; stroke-width: 0.8"/>
      </g>
     </g>
     <g id="text_25">
      <!-- 0.2 -->
      <g transform="translate(371.460511 269.30813) scale(0.1 -0.1)">
       <use xlink:href="#DejaVuSans-30"/>
       <use xlink:href="#DejaVuSans-2e" x="63.623047"/>
       <use xlink:href="#DejaVuSans-32" x="95.410156"/>
      </g>
     </g>
    </g>
    <g id="ytick_9">
     <g id="line2d_39">
      <g>
       <use xlink:href="#m465d3c59b4" x="394.363636" y="210.617822" style="stroke: #000000; stroke-width: 0.8"/>
      </g>
     </g>
     <g id="text_26">
      <!-- 0.4 -->
      <g transform="translate(371.460511 214.417041) scale(0.1 -0.1)">
       <use xlink:href="#DejaVuSans-30"/>
       <use xlink:href="#DejaVuSans-2e" x="63.623047"/>
       <use xlink:href="#DejaVuSans-34" x="95.410156"/>
      </g>
     </g>
    </g>
    <g id="ytick_10">
     <g id="line2d_40">
      <g>
       <use xlink:href="#m465d3c59b4" x="394.363636" y="155.726733" style="stroke: #000000; stroke-width: 0.8"/>
      </g>
     </g>
     <g id="text_27">
      <!-- 0.6 -->
      <g transform="translate(371.460511 159.525951) scale(0.1 -0.1)">
       <use xlink:href="#DejaVuSans-30"/>
       <use xlink:href="#DejaVuSans-2e" x="63.623047"/>
       <use xlink:href="#DejaVuSans-36" x="95.410156"/>
      </g>
     </g>
    </g>
    <g id="ytick_11">
     <g id="line2d_41">
      <g>
       <use xlink:href="#m465d3c59b4" x="394.363636" y="100.835644" style="stroke: #000000; stroke-width: 0.8"/>
      </g>
     </g>
     <g id="text_28">
      <!-- 0.8 -->
      <g transform="translate(371.460511 104.634862) scale(0.1 -0.1)">
       <use xlink:href="#DejaVuSans-30"/>
       <use xlink:href="#DejaVuSans-2e" x="63.623047"/>
       <use xlink:href="#DejaVuSans-38" x="95.410156"/>
      </g>
     </g>
    </g>
    <g id="ytick_12">
     <g id="line2d_42">
      <g>
       <use xlink:href="#m465d3c59b4" x="394.363636" y="45.944554" style="stroke: #000000; stroke-width: 0.8"/>
      </g>
     </g>
     <g id="text_29">
      <!-- 1.0 -->
      <g transform="translate(371.460511 49.743773) scale(0.1 -0.1)">
       <use xlink:href="#DejaVuSans-31"/>
       <use xlink:href="#DejaVuSans-2e" x="63.623047"/>
       <use xlink:href="#DejaVuSans-30" x="95.410156"/>
      </g>
     </g>
    </g>
    <g id="text_30">
     <!-- Explained Variance -->
     <g transform="translate(365.380824 229.54375) rotate(-90) scale(0.1 -0.1)">
      <defs>
       <path id="DejaVuSans-45" d="M 628 4666 
L 3578 4666 
L 3578 4134 
L 1259 4134 
L 1259 2753 
L 3481 2753 
L 3481 2222 
L 1259 2222 
L 1259 531 
L 3634 531 
L 3634 0 
L 628 0 
L 628 4666 
z
" transform="scale(0.015625)"/>
       <path id="DejaVuSans-78" d="M 3513 3500 
L 2247 1797 
L 3578 0 
L 2900 0 
L 1881 1375 
L 863 0 
L 184 0 
L 1544 1831 
L 300 3500 
L 978 3500 
L 1906 2253 
L 2834 3500 
L 3513 3500 
z
" transform="scale(0.015625)"/>
       <path id="DejaVuSans-56" d="M 1831 0 
L 50 4666 
L 709 4666 
L 2188 738 
L 3669 4666 
L 4325 4666 
L 2547 0 
L 1831 0 
z
" transform="scale(0.015625)"/>
      </defs>
      <use xlink:href="#DejaVuSans-45"/>
      <use xlink:href="#DejaVuSans-78" x="63.183594"/>
      <use xlink:href="#DejaVuSans-70" x="122.363281"/>
      <use xlink:href="#DejaVuSans-6c" x="185.839844"/>
      <use xlink:href="#DejaVuSans-61" x="213.623047"/>
      <use xlink:href="#DejaVuSans-69" x="274.902344"/>
      <use xlink:href="#DejaVuSans-6e" x="302.685547"/>
      <use xlink:href="#DejaVuSans-65" x="366.064453"/>
      <use xlink:href="#DejaVuSans-64" x="427.587891"/>
      <use xlink:href="#DejaVuSans-20" x="491.064453"/>
      <use xlink:href="#DejaVuSans-56" x="522.851562"/>
      <use xlink:href="#DejaVuSans-61" x="583.509766"/>
      <use xlink:href="#DejaVuSans-72" x="644.789062"/>
      <use xlink:href="#DejaVuSans-69" x="685.902344"/>
      <use xlink:href="#DejaVuSans-61" x="713.685547"/>
      <use xlink:href="#DejaVuSans-6e" x="774.964844"/>
      <use xlink:href="#DejaVuSans-63" x="838.34375"/>
      <use xlink:href="#DejaVuSans-65" x="893.324219"/>
     </g>
    </g>
   </g>
   <g id="line2d_43">
    <path d="M 411.801136 45.944554 
L 440.335227 45.944554 
L 440.335227 45.944554 
L 411.801136 45.944554 
L 411.801136 45.944554 
" clip-path="url(#p979db2f9f2)" style="fill: none; stroke: #000000; stroke-linecap: square"/>
   </g>
   <g id="line2d_44">
    <path d="M 426.068182 45.944554 
L 426.068182 45.944554 
" clip-path="url(#p979db2f9f2)" style="fill: none; stroke: #000000; stroke-linecap: square"/>
   </g>
   <g id="line2d_45">
    <path d="M 426.068182 45.944554 
L 426.068182 45.944554 
" clip-path="url(#p979db2f9f2)" style="fill: none; stroke: #000000; stroke-linecap: square"/>
   </g>
   <g id="line2d_46">
    <path d="M 418.934659 45.944554 
L 433.201705 45.944554 
" clip-path="url(#p979db2f9f2)" style="fill: none; stroke: #000000; stroke-linecap: square"/>
   </g>
   <g id="line2d_47">
    <path d="M 418.934659 45.944554 
L 433.201705 45.944554 
" clip-path="url(#p979db2f9f2)" style="fill: none; stroke: #000000; stroke-linecap: square"/>
   </g>
   <g id="line2d_48"/>
   <g id="line2d_49">
    <path d="M 475.210227 67.832289 
L 503.744318 67.832289 
L 503.744318 67.535496 
L 475.210227 67.535496 
L 475.210227 67.832289 
" clip-path="url(#p979db2f9f2)" style="fill: none; stroke: #000000; stroke-linecap: square"/>
   </g>
   <g id="line2d_50">
    <path d="M 489.477273 67.832289 
L 489.477273 68.114994 
" clip-path="url(#p979db2f9f2)" style="fill: none; stroke: #000000; stroke-linecap: square"/>
   </g>
   <g id="line2d_51">
    <path d="M 489.477273 67.535496 
L 489.477273 67.163784 
" clip-path="url(#p979db2f9f2)" style="fill: none; stroke: #000000; stroke-linecap: square"/>
   </g>
   <g id="line2d_52">
    <path d="M 482.34375 68.114994 
L 496.610795 68.114994 
" clip-path="url(#p979db2f9f2)" style="fill: none; stroke: #000000; stroke-linecap: square"/>
   </g>
   <g id="line2d_53">
    <path d="M 482.34375 67.163784 
L 496.610795 67.163784 
" clip-path="url(#p979db2f9f2)" style="fill: none; stroke: #000000; stroke-linecap: square"/>
   </g>
   <g id="line2d_54">
    <defs>
     <path id="m2592a91121" d="M 0 3 
C 0.795609 3 1.55874 2.683901 2.12132 2.12132 
C 2.683901 1.55874 3 0.795609 3 0 
C 3 -0.795609 2.683901 -1.55874 2.12132 -2.12132 
C 1.55874 -2.683901 0.795609 -3 0 -3 
C -0.795609 -3 -1.55874 -2.683901 -2.12132 -2.12132 
C -2.683901 -1.55874 -3 -0.795609 -3 0 
C -3 0.795609 -2.683901 1.55874 -2.12132 2.12132 
C -1.55874 2.683901 -0.795609 3 0 3 
z
" style="stroke: #000000"/>
    </defs>
    <g clip-path="url(#p979db2f9f2)">
     <use xlink:href="#m2592a91121" x="489.477273" y="68.291939" style="fill-opacity: 0; stroke: #000000"/>
    </g>
   </g>
   <g id="line2d_55">
    <path d="M 538.619318 136.545879 
L 567.153409 136.545879 
L 567.153409 136.221269 
L 538.619318 136.221269 
L 538.619318 136.545879 
" clip-path="url(#p979db2f9f2)" style="fill: none; stroke: #000000; stroke-linecap: square"/>
   </g>
   <g id="line2d_56">
    <path d="M 552.886364 136.545879 
L 552.886364 136.928225 
" clip-path="url(#p979db2f9f2)" style="fill: none; stroke: #000000; stroke-linecap: square"/>
   </g>
   <g id="line2d_57">
    <path d="M 552.886364 136.221269 
L 552.886364 135.81183 
" clip-path="url(#p979db2f9f2)" style="fill: none; stroke: #000000; stroke-linecap: square"/>
   </g>
   <g id="line2d_58">
    <path d="M 545.752841 136.928225 
L 560.019886 136.928225 
" clip-path="url(#p979db2f9f2)" style="fill: none; stroke: #000000; stroke-linecap: square"/>
   </g>
   <g id="line2d_59">
    <path d="M 545.752841 135.81183 
L 560.019886 135.81183 
" clip-path="url(#p979db2f9f2)" style="fill: none; stroke: #000000; stroke-linecap: square"/>
   </g>
   <g id="line2d_60"/>
   <g id="line2d_61">
    <path d="M 602.028409 45.944554 
L 630.5625 45.944554 
L 630.5625 45.944554 
L 602.028409 45.944554 
L 602.028409 45.944554 
" clip-path="url(#p979db2f9f2)" style="fill: none; stroke: #000000; stroke-linecap: square"/>
   </g>
   <g id="line2d_62">
    <path d="M 616.295455 45.944554 
L 616.295455 45.944554 
" clip-path="url(#p979db2f9f2)" style="fill: none; stroke: #000000; stroke-linecap: square"/>
   </g>
   <g id="line2d_63">
    <path d="M 616.295455 45.944554 
L 616.295455 45.944554 
" clip-path="url(#p979db2f9f2)" style="fill: none; stroke: #000000; stroke-linecap: square"/>
   </g>
   <g id="line2d_64">
    <path d="M 609.161932 45.944554 
L 623.428977 45.944554 
" clip-path="url(#p979db2f9f2)" style="fill: none; stroke: #000000; stroke-linecap: square"/>
   </g>
   <g id="line2d_65">
    <path d="M 609.161932 45.944554 
L 623.428977 45.944554 
" clip-path="url(#p979db2f9f2)" style="fill: none; stroke: #000000; stroke-linecap: square"/>
   </g>
   <g id="line2d_66"/>
   <g id="line2d_67">
    <path d="M 411.801136 45.944554 
L 440.335227 45.944554 
" clip-path="url(#p979db2f9f2)" style="fill: none; stroke: #ff800e"/>
   </g>
   <g id="line2d_68">
    <path d="M 475.210227 67.652561 
L 503.744318 67.652561 
" clip-path="url(#p979db2f9f2)" style="fill: none; stroke: #ff800e"/>
   </g>
   <g id="line2d_69">
    <path d="M 538.619318 136.490271 
L 567.153409 136.490271 
" clip-path="url(#p979db2f9f2)" style="fill: none; stroke: #ff800e"/>
   </g>
   <g id="line2d_70">
    <path d="M 602.028409 45.944554 
L 630.5625 45.944554 
" clip-path="url(#p979db2f9f2)" style="fill: none; stroke: #ff800e"/>
   </g>
   <g id="patch_9">
    <path d="M 394.363636 320.4 
L 394.363636 43.2 
" style="fill: none; stroke: #000000; stroke-width: 0.8; stroke-linejoin: miter; stroke-linecap: square"/>
   </g>
   <g id="patch_10">
    <path d="M 648 320.4 
L 648 43.2 
" style="fill: none; stroke: #000000; stroke-width: 0.8; stroke-linejoin: miter; stroke-linecap: square"/>
   </g>
   <g id="patch_11">
    <path d="M 394.363636 320.4 
L 648 320.4 
" style="fill: none; stroke: #000000; stroke-width: 0.8; stroke-linejoin: miter; stroke-linecap: square"/>
   </g>
   <g id="patch_12">
    <path d="M 394.363636 43.2 
L 648 43.2 
" style="fill: none; stroke: #000000; stroke-width: 0.8; stroke-linejoin: miter; stroke-linecap: square"/>
   </g>
   <g id="text_31">
    <!-- Explained Variance; Box and Whiskers -->
    <g transform="translate(406.639006 37.2) scale(0.12 -0.12)">
     <defs>
      <path id="DejaVuSans-3b" d="M 750 3309 
L 1409 3309 
L 1409 2516 
L 750 2516 
L 750 3309 
z
M 750 794 
L 1409 794 
L 1409 256 
L 897 -744 
L 494 -744 
L 750 256 
L 750 794 
z
" transform="scale(0.015625)"/>
      <path id="DejaVuSans-57" d="M 213 4666 
L 850 4666 
L 1831 722 
L 2809 4666 
L 3519 4666 
L 4500 722 
L 5478 4666 
L 6119 4666 
L 4947 0 
L 4153 0 
L 3169 4050 
L 2175 0 
L 1381 0 
L 213 4666 
z
" transform="scale(0.015625)"/>
      <path id="DejaVuSans-6b" d="M 581 4863 
L 1159 4863 
L 1159 1991 
L 2875 3500 
L 3609 3500 
L 1753 1863 
L 3688 0 
L 2938 0 
L 1159 1709 
L 1159 0 
L 581 0 
L 581 4863 
z
" transform="scale(0.015625)"/>
     </defs>
     <use xlink:href="#DejaVuSans-45"/>
     <use xlink:href="#DejaVuSans-78" x="63.183594"/>
     <use xlink:href="#DejaVuSans-70" x="122.363281"/>
     <use xlink:href="#DejaVuSans-6c" x="185.839844"/>
     <use xlink:href="#DejaVuSans-61" x="213.623047"/>
     <use xlink:href="#DejaVuSans-69" x="274.902344"/>
     <use xlink:href="#DejaVuSans-6e" x="302.685547"/>
     <use xlink:href="#DejaVuSans-65" x="366.064453"/>
     <use xlink:href="#DejaVuSans-64" x="427.587891"/>
     <use xlink:href="#DejaVuSans-20" x="491.064453"/>
     <use xlink:href="#DejaVuSans-56" x="522.851562"/>
     <use xlink:href="#DejaVuSans-61" x="583.509766"/>
     <use xlink:href="#DejaVuSans-72" x="644.789062"/>
     <use xlink:href="#DejaVuSans-69" x="685.902344"/>
     <use xlink:href="#DejaVuSans-61" x="713.685547"/>
     <use xlink:href="#DejaVuSans-6e" x="774.964844"/>
     <use xlink:href="#DejaVuSans-63" x="838.34375"/>
     <use xlink:href="#DejaVuSans-65" x="893.324219"/>
     <use xlink:href="#DejaVuSans-3b" x="954.847656"/>
     <use xlink:href="#DejaVuSans-20" x="988.539062"/>
     <use xlink:href="#DejaVuSans-42" x="1020.326172"/>
     <use xlink:href="#DejaVuSans-6f" x="1088.929688"/>
     <use xlink:href="#DejaVuSans-78" x="1146.986328"/>
     <use xlink:href="#DejaVuSans-20" x="1206.166016"/>
     <use xlink:href="#DejaVuSans-61" x="1237.953125"/>
     <use xlink:href="#DejaVuSans-6e" x="1299.232422"/>
     <use xlink:href="#DejaVuSans-64" x="1362.611328"/>
     <use xlink:href="#DejaVuSans-20" x="1426.087891"/>
     <use xlink:href="#DejaVuSans-57" x="1457.875"/>
     <use xlink:href="#DejaVuSans-68" x="1556.751953"/>
     <use xlink:href="#DejaVuSans-69" x="1620.130859"/>
     <use xlink:href="#DejaVuSans-73" x="1647.914062"/>
     <use xlink:href="#DejaVuSans-6b" x="1700.013672"/>
     <use xlink:href="#DejaVuSans-65" x="1754.298828"/>
     <use xlink:href="#DejaVuSans-72" x="1815.822266"/>
     <use xlink:href="#DejaVuSans-73" x="1856.935547"/>
    </g>
   </g>
  </g>
 </g>
 <defs>
  <clipPath id="p015e637ba5">
   <rect x="90" y="43.2" width="253.636364" height="277.2"/>
  </clipPath>
  <clipPath id="p979db2f9f2">
   <rect x="394.363636" y="43.2" width="253.636364" height="277.2"/>
  </clipPath>
 </defs>
</svg>
